<mxfile host="65bd71144e">
    <diagram id="WVVvVa14LHBOuxjfh97P" name="Page-1">
        <mxGraphModel dx="3032" dy="3012" grid="1" gridSize="10" guides="1" tooltips="1" connect="1" arrows="1" fold="1" page="1" pageScale="1" pageWidth="850" pageHeight="1100" math="0" shadow="0">
            <root>
                <mxCell id="0"/>
                <mxCell id="1" parent="0"/>
                <mxCell id="2" value="_app" style="rounded=1;whiteSpace=wrap;html=1;fillColor=#dae8fc;strokeColor=#6c8ebf;fontColor=#000000;" parent="1" vertex="1">
                    <mxGeometry x="370" y="770" width="360" height="60" as="geometry"/>
                </mxCell>
                <mxCell id="3" value="private route" style="rounded=1;whiteSpace=wrap;html=1;fillColor=#dae8fc;strokeColor=#6c8ebf;fontColor=#000000;" parent="1" vertex="1">
                    <mxGeometry x="370" y="610" width="120" height="60" as="geometry"/>
                </mxCell>
                <mxCell id="4" value="public route" style="rounded=1;whiteSpace=wrap;html=1;fillColor=#dae8fc;strokeColor=#6c8ebf;fontColor=#000000;" parent="1" vertex="1">
                    <mxGeometry x="610" y="610" width="120" height="60" as="geometry"/>
                </mxCell>
                <mxCell id="5" value="Redirects" style="edgeStyle=none;html=1;entryX=0;entryY=0.5;entryDx=0;entryDy=0;fontColor=#FCFCFC;dashed=1;" parent="1" source="3" target="4" edge="1">
                    <mxGeometry relative="1" as="geometry"/>
                </mxCell>
                <mxCell id="6" value="Layout (s)" style="rounded=1;whiteSpace=wrap;html=1;fillColor=#dae8fc;strokeColor=#6c8ebf;fontColor=#000000;" parent="1" vertex="1">
                    <mxGeometry x="370" y="690" width="360" height="60" as="geometry"/>
                </mxCell>
                <mxCell id="7" value="Pages" style="rounded=1;whiteSpace=wrap;html=1;fillColor=#dae8fc;strokeColor=#6c8ebf;fontColor=#000000;" parent="1" vertex="1">
                    <mxGeometry x="370" y="530" width="360" height="60" as="geometry"/>
                </mxCell>
                <mxCell id="8" value="Components" style="rounded=1;whiteSpace=wrap;html=1;fillColor=#dae8fc;strokeColor=#6c8ebf;fontColor=#000000;verticalAlign=top;spacingTop=7;" parent="1" vertex="1">
                    <mxGeometry x="370" y="390" width="360" height="110" as="geometry"/>
                </mxCell>
                <mxCell id="9" value="commons" style="rounded=1;whiteSpace=wrap;html=1;fontColor=#ffffff;fillColor=#1ba1e2;strokeColor=#006EAF;" parent="1" vertex="1">
                    <mxGeometry x="380" y="430" width="100" height="60" as="geometry"/>
                </mxCell>
                <mxCell id="10" value="internal" style="rounded=1;whiteSpace=wrap;html=1;fontColor=#ffffff;fillColor=#1ba1e2;strokeColor=#006EAF;" parent="1" vertex="1">
                    <mxGeometry x="495" y="430" width="100" height="60" as="geometry"/>
                </mxCell>
                <mxCell id="11" value="modals" style="rounded=1;whiteSpace=wrap;html=1;fontColor=#ffffff;fillColor=#1ba1e2;strokeColor=#006EAF;" parent="1" vertex="1">
                    <mxGeometry x="610" y="430" width="105" height="60" as="geometry"/>
                </mxCell>
                <mxCell id="13" value="Internal" style="rounded=1;whiteSpace=wrap;html=1;fillColor=#dae8fc;strokeColor=#6c8ebf;fontColor=#000000;verticalAlign=top;spacingTop=7;" parent="1" vertex="1">
                    <mxGeometry x="370" y="160" width="360" height="210" as="geometry"/>
                </mxCell>
                <mxCell id="14" value="Table" style="rounded=1;whiteSpace=wrap;html=1;fontColor=#ffffff;fillColor=#1ba1e2;strokeColor=#006EAF;" parent="1" vertex="1">
                    <mxGeometry x="380" y="210" width="100" height="60" as="geometry"/>
                </mxCell>
                <mxCell id="15" value="Token selector" style="rounded=1;whiteSpace=wrap;html=1;fontColor=#ffffff;fillColor=#1ba1e2;strokeColor=#006EAF;" parent="1" vertex="1">
                    <mxGeometry x="500" y="210" width="100" height="60" as="geometry"/>
                </mxCell>
                <mxCell id="16" value="chart displayer" style="rounded=1;whiteSpace=wrap;html=1;fontColor=#ffffff;fillColor=#1ba1e2;strokeColor=#006EAF;" parent="1" vertex="1">
                    <mxGeometry x="620" y="210" width="100" height="60" as="geometry"/>
                </mxCell>
                <mxCell id="19" value="Login reducer" style="rounded=1;whiteSpace=wrap;html=1;fontColor=#ffffff;fillColor=#D843A6;strokeColor=#A50040;verticalAlign=top;" parent="1" vertex="1">
                    <mxGeometry x="990" y="-10" width="340" height="210" as="geometry"/>
                </mxCell>
                <mxCell id="20" value="session data" style="rounded=1;whiteSpace=wrap;html=1;fillColor=#d5e8d4;strokeColor=#82b366;fontColor=#000000;" parent="1" vertex="1">
                    <mxGeometry x="1105" y="40" width="110" height="50" as="geometry"/>
                </mxCell>
                <mxCell id="21" value="sucess" style="rounded=1;whiteSpace=wrap;html=1;fillColor=#d5e8d4;strokeColor=#82b366;fontColor=#000000;" parent="1" vertex="1">
                    <mxGeometry x="1380" y="-180" width="110" height="50" as="geometry"/>
                </mxCell>
                <mxCell id="23" value="errorData" style="rounded=1;whiteSpace=wrap;html=1;fillColor=#d5e8d4;strokeColor=#82b366;fontColor=#000000;" parent="1" vertex="1">
                    <mxGeometry x="1105" y="110" width="110" height="50" as="geometry"/>
                </mxCell>
                <mxCell id="24" value="recover_last_session" style="rounded=1;whiteSpace=wrap;html=1;fontColor=#ffffff;fillColor=#1ba1e2;strokeColor=#006EAF;" parent="1" vertex="1">
                    <mxGeometry x="1410" y="-130" width="120" height="60" as="geometry"/>
                </mxCell>
                <mxCell id="25" value="log_in_request" style="rounded=1;whiteSpace=wrap;html=1;fontColor=#ffffff;fillColor=#1ba1e2;strokeColor=#006EAF;" parent="1" vertex="1">
                    <mxGeometry x="1420" y="-60" width="120" height="60" as="geometry"/>
                </mxCell>
                <mxCell id="26" value="log_out_request" style="rounded=1;whiteSpace=wrap;html=1;fontColor=#ffffff;fillColor=#1ba1e2;strokeColor=#006EAF;" parent="1" vertex="1">
                    <mxGeometry x="1550" y="-170" width="120" height="60" as="geometry"/>
                </mxCell>
                <mxCell id="27" value="saga" style="rounded=1;whiteSpace=wrap;html=1;verticalAlign=top;" parent="1" vertex="1">
                    <mxGeometry x="1450" y="-10" width="410" height="350" as="geometry"/>
                </mxCell>
                <mxCell id="28" value="log_in_hook" style="rounded=1;whiteSpace=wrap;html=1;fontColor=#ffffff;fillColor=#0050ef;strokeColor=#001DBC;" parent="1" vertex="1">
                    <mxGeometry x="1595" y="130" width="120" height="60" as="geometry"/>
                </mxCell>
                <mxCell id="29" value="log_in_request" style="rounded=1;whiteSpace=wrap;html=1;fontColor=#ffffff;fillColor=#1ba1e2;strokeColor=#006EAF;" parent="1" vertex="1">
                    <mxGeometry x="1470" y="140" width="120" height="40" as="geometry"/>
                </mxCell>
                <mxCell id="30" value="session data" style="rounded=1;whiteSpace=wrap;html=1;fillColor=#ffff88;strokeColor=#36393d;fontColor=#000000;" parent="1" vertex="1">
                    <mxGeometry x="1700" y="30" width="120" height="40" as="geometry"/>
                </mxCell>
                <mxCell id="31" value="recover_session_saga" style="rounded=1;whiteSpace=wrap;html=1;fontColor=#ffffff;fillColor=#0050ef;strokeColor=#001DBC;" parent="1" vertex="1">
                    <mxGeometry x="1595" y="20" width="120" height="60" as="geometry"/>
                </mxCell>
                <mxCell id="33" value="recover_last_session" style="rounded=1;whiteSpace=wrap;html=1;fontColor=#ffffff;fillColor=#1ba1e2;strokeColor=#006EAF;" parent="1" vertex="1">
                    <mxGeometry x="1470" y="20" width="120" height="60" as="geometry"/>
                </mxCell>
                <mxCell id="35" value="session data" style="rounded=1;whiteSpace=wrap;html=1;fillColor=#ffff88;strokeColor=#36393d;fontColor=#000000;" parent="1" vertex="1">
                    <mxGeometry x="1715" y="130" width="120" height="40" as="geometry"/>
                </mxCell>
                <mxCell id="MOFeGI0LqtlbLJH9V86s-35" value="fetch reducer" style="rounded=1;whiteSpace=wrap;html=1;fontColor=#ffffff;fillColor=#D843A6;strokeColor=#A50040;verticalAlign=top;" parent="1" vertex="1">
                    <mxGeometry x="990" y="550" width="340" height="290" as="geometry"/>
                </mxCell>
                <mxCell id="MOFeGI0LqtlbLJH9V86s-38" value="fetch_request" style="rounded=1;whiteSpace=wrap;html=1;fontColor=#ffffff;fillColor=#1ba1e2;strokeColor=#006EAF;" parent="1" vertex="1">
                    <mxGeometry x="1180" y="600" width="120" height="60" as="geometry"/>
                </mxCell>
                <mxCell id="MOFeGI0LqtlbLJH9V86s-39" value="fetch_success" style="rounded=1;whiteSpace=wrap;html=1;fontColor=#ffffff;fillColor=#1ba1e2;strokeColor=#006EAF;" parent="1" vertex="1">
                    <mxGeometry x="1180" y="680" width="120" height="60" as="geometry"/>
                </mxCell>
                <mxCell id="MOFeGI0LqtlbLJH9V86s-40" value="fetch_error" style="rounded=1;whiteSpace=wrap;html=1;fontColor=#ffffff;fillColor=#1ba1e2;strokeColor=#006EAF;" parent="1" vertex="1">
                    <mxGeometry x="1180" y="750" width="120" height="60" as="geometry"/>
                </mxCell>
                <mxCell id="MOFeGI0LqtlbLJH9V86s-41" value="saga" style="rounded=1;whiteSpace=wrap;html=1;verticalAlign=top;" parent="1" vertex="1">
                    <mxGeometry x="1460" y="520" width="410" height="350" as="geometry"/>
                </mxCell>
                <mxCell id="MOFeGI0LqtlbLJH9V86s-42" value="fetch_request_saga" style="rounded=1;whiteSpace=wrap;html=1;fontColor=#ffffff;fillColor=#0050ef;strokeColor=#001DBC;" parent="1" vertex="1">
                    <mxGeometry x="1605" y="657.5" width="120" height="60" as="geometry"/>
                </mxCell>
                <mxCell id="MOFeGI0LqtlbLJH9V86s-44" value="fetch_request" style="rounded=1;whiteSpace=wrap;html=1;fontColor=#ffffff;fillColor=#1ba1e2;strokeColor=#006EAF;" parent="1" vertex="1">
                    <mxGeometry x="1480" y="665" width="100" height="45" as="geometry"/>
                </mxCell>
                <mxCell id="MOFeGI0LqtlbLJH9V86s-45" value="fetch_success" style="rounded=1;whiteSpace=wrap;html=1;fontColor=#ffffff;fillColor=#1ba1e2;strokeColor=#006EAF;" parent="1" vertex="1">
                    <mxGeometry x="1740" y="650" width="120" height="40" as="geometry"/>
                </mxCell>
                <mxCell id="MOFeGI0LqtlbLJH9V86s-46" value="fetch_error" style="rounded=1;whiteSpace=wrap;html=1;fontColor=#ffffff;fillColor=#1ba1e2;strokeColor=#006EAF;" parent="1" vertex="1">
                    <mxGeometry x="1740" y="700" width="120" height="40" as="geometry"/>
                </mxCell>
                <mxCell id="MOFeGI0LqtlbLJH9V86s-47" value="external data reducer&lt;span style=&quot;white-space: pre&quot;&gt;&#9;&lt;/span&gt;" style="rounded=1;whiteSpace=wrap;html=1;fontColor=#ffffff;fillColor=#D843A6;strokeColor=#A50040;verticalAlign=top;" parent="1" vertex="1">
                    <mxGeometry x="990" y="930" width="340" height="290" as="geometry"/>
                </mxCell>
                <mxCell id="MOFeGI0LqtlbLJH9V86s-49" value="session data" style="rounded=1;whiteSpace=wrap;html=1;fillColor=#d5e8d4;strokeColor=#82b366;fontColor=#000000;" parent="1" vertex="1">
                    <mxGeometry x="1030" y="980" width="110" height="50" as="geometry"/>
                </mxCell>
            </root>
        </mxGraphModel>
    </diagram>
    <diagram id="-p3pOK6Bg-zVyu3R8zWz" name="fetch hook">
        <mxGraphModel dx="1895" dy="1195" grid="1" gridSize="10" guides="1" tooltips="1" connect="1" arrows="1" fold="1" page="1" pageScale="1" pageWidth="850" pageHeight="1100" math="0" shadow="0">
            <root>
                <mxCell id="i0_J2BGvvJ4QvCI9Tnon-0"/>
                <mxCell id="i0_J2BGvvJ4QvCI9Tnon-1" parent="i0_J2BGvvJ4QvCI9Tnon-0"/>
                <mxCell id="i0_J2BGvvJ4QvCI9Tnon-2" value="page" style="rounded=1;whiteSpace=wrap;html=1;fillColor=#eeeeee;strokeColor=#36393d;fontColor=#000000;" parent="i0_J2BGvvJ4QvCI9Tnon-1" vertex="1">
                    <mxGeometry x="360" y="220" width="120" height="60" as="geometry"/>
                </mxCell>
                <mxCell id="i0_J2BGvvJ4QvCI9Tnon-4" value="page" style="rounded=1;whiteSpace=wrap;html=1;fillColor=#eeeeee;strokeColor=#36393d;fontColor=#000000;" parent="i0_J2BGvvJ4QvCI9Tnon-1" vertex="1">
                    <mxGeometry x="520" y="220" width="120" height="60" as="geometry"/>
                </mxCell>
                <mxCell id="i0_J2BGvvJ4QvCI9Tnon-5" value="page" style="rounded=1;whiteSpace=wrap;html=1;fillColor=#eeeeee;strokeColor=#36393d;fontColor=#000000;" parent="i0_J2BGvvJ4QvCI9Tnon-1" vertex="1">
                    <mxGeometry x="670" y="220" width="120" height="60" as="geometry"/>
                </mxCell>
                <mxCell id="i0_J2BGvvJ4QvCI9Tnon-6" value="page" style="rounded=1;whiteSpace=wrap;html=1;fillColor=#eeeeee;strokeColor=#36393d;fontColor=#000000;" parent="i0_J2BGvvJ4QvCI9Tnon-1" vertex="1">
                    <mxGeometry x="200" y="220" width="120" height="60" as="geometry"/>
                </mxCell>
                <mxCell id="i0_J2BGvvJ4QvCI9Tnon-7" value="useFetch" style="rounded=1;whiteSpace=wrap;html=1;fillColor=#ffcc99;strokeColor=#36393d;fontColor=#000000;" parent="i0_J2BGvvJ4QvCI9Tnon-1" vertex="1">
                    <mxGeometry x="200" y="100" width="120" height="60" as="geometry"/>
                </mxCell>
                <mxCell id="i0_J2BGvvJ4QvCI9Tnon-9" value="useFetch" style="rounded=1;whiteSpace=wrap;html=1;fillColor=#ffcc99;strokeColor=#36393d;fontColor=#000000;" parent="i0_J2BGvvJ4QvCI9Tnon-1" vertex="1">
                    <mxGeometry x="520" y="100" width="120" height="60" as="geometry"/>
                </mxCell>
                <mxCell id="i0_J2BGvvJ4QvCI9Tnon-10" value="useFetch" style="rounded=1;whiteSpace=wrap;html=1;fillColor=#ffcc99;strokeColor=#36393d;fontColor=#000000;" parent="i0_J2BGvvJ4QvCI9Tnon-1" vertex="1">
                    <mxGeometry x="360" y="100" width="120" height="60" as="geometry"/>
                </mxCell>
                <mxCell id="i0_J2BGvvJ4QvCI9Tnon-11" value="fetchReducer" style="rounded=1;whiteSpace=wrap;html=1;fillColor=#1ba1e2;strokeColor=#006EAF;fontColor=#ffffff;" parent="i0_J2BGvvJ4QvCI9Tnon-1" vertex="1">
                    <mxGeometry x="360" y="350" width="120" height="60" as="geometry"/>
                </mxCell>
                <mxCell id="i0_J2BGvvJ4QvCI9Tnon-12" value="fetchReducer" style="rounded=1;whiteSpace=wrap;html=1;fillColor=#1ba1e2;strokeColor=#006EAF;fontColor=#ffffff;" parent="i0_J2BGvvJ4QvCI9Tnon-1" vertex="1">
                    <mxGeometry x="670" y="350" width="120" height="60" as="geometry"/>
                </mxCell>
                <mxCell id="i0_J2BGvvJ4QvCI9Tnon-13" value="tableData" style="ellipse;whiteSpace=wrap;html=1;fontColor=#FFFFFF;fillColor=#60a917;strokeColor=#2D7600;" parent="i0_J2BGvvJ4QvCI9Tnon-1" vertex="1">
                    <mxGeometry x="205" y="150" width="110" height="70" as="geometry"/>
                </mxCell>
                <mxCell id="i0_J2BGvvJ4QvCI9Tnon-14" value="table data" style="ellipse;whiteSpace=wrap;html=1;fontColor=#FFFFFF;fillColor=#60a917;strokeColor=#2D7600;" parent="i0_J2BGvvJ4QvCI9Tnon-1" vertex="1">
                    <mxGeometry x="365" y="150" width="110" height="70" as="geometry"/>
                </mxCell>
                <mxCell id="i0_J2BGvvJ4QvCI9Tnon-15" value="table data" style="ellipse;whiteSpace=wrap;html=1;fontColor=#FFFFFF;fillColor=#60a917;strokeColor=#2D7600;" parent="i0_J2BGvvJ4QvCI9Tnon-1" vertex="1">
                    <mxGeometry x="525" y="150" width="110" height="70" as="geometry"/>
                </mxCell>
                <mxCell id="i0_J2BGvvJ4QvCI9Tnon-16" value="user data" style="ellipse;whiteSpace=wrap;html=1;fontColor=#FFFFFF;fillColor=#60a917;strokeColor=#2D7600;" parent="i0_J2BGvvJ4QvCI9Tnon-1" vertex="1">
                    <mxGeometry x="365" y="280" width="110" height="70" as="geometry"/>
                </mxCell>
                <mxCell id="i0_J2BGvvJ4QvCI9Tnon-17" value="user data" style="ellipse;whiteSpace=wrap;html=1;fontColor=#FFFFFF;fillColor=#60a917;strokeColor=#2D7600;" parent="i0_J2BGvvJ4QvCI9Tnon-1" vertex="1">
                    <mxGeometry x="675" y="280" width="110" height="70" as="geometry"/>
                </mxCell>
            </root>
        </mxGraphModel>
    </diagram>
    <diagram id="a3bcc9iILHBDQng0r-hw" name="login system">
        <mxGraphModel dx="1648" dy="503" grid="1" gridSize="10" guides="1" tooltips="1" connect="1" arrows="1" fold="1" page="1" pageScale="1" pageWidth="850" pageHeight="1100" math="0" shadow="0">
            <root>
                <mxCell id="WiiSMA_Z27GCbpn9DQuG-0"/>
                <mxCell id="WiiSMA_Z27GCbpn9DQuG-1" parent="WiiSMA_Z27GCbpn9DQuG-0"/>
                <mxCell id="WiiSMA_Z27GCbpn9DQuG-13" style="edgeStyle=none;html=1;entryX=1;entryY=0.5;entryDx=0;entryDy=0;startArrow=none;" parent="WiiSMA_Z27GCbpn9DQuG-1" source="WiiSMA_Z27GCbpn9DQuG-5" target="WiiSMA_Z27GCbpn9DQuG-7" edge="1">
                    <mxGeometry relative="1" as="geometry"/>
                </mxCell>
                <mxCell id="WiiSMA_Z27GCbpn9DQuG-22" style="edgeStyle=none;html=1;entryX=0;entryY=0.5;entryDx=0;entryDy=0;" parent="WiiSMA_Z27GCbpn9DQuG-1" source="WiiSMA_Z27GCbpn9DQuG-2" target="WiiSMA_Z27GCbpn9DQuG-3" edge="1">
                    <mxGeometry relative="1" as="geometry"/>
                </mxCell>
                <mxCell id="WiiSMA_Z27GCbpn9DQuG-24" style="edgeStyle=none;html=1;exitX=0.75;exitY=1;exitDx=0;exitDy=0;" parent="WiiSMA_Z27GCbpn9DQuG-1" source="WiiSMA_Z27GCbpn9DQuG-2" target="WiiSMA_Z27GCbpn9DQuG-8" edge="1">
                    <mxGeometry relative="1" as="geometry"/>
                </mxCell>
                <mxCell id="WiiSMA_Z27GCbpn9DQuG-2" value="app" style="rounded=1;whiteSpace=wrap;html=1;" parent="WiiSMA_Z27GCbpn9DQuG-1" vertex="1">
                    <mxGeometry x="-200" y="130" width="120" height="60" as="geometry"/>
                </mxCell>
                <mxCell id="WiiSMA_Z27GCbpn9DQuG-32" style="edgeStyle=none;html=1;entryX=1;entryY=0.5;entryDx=0;entryDy=0;" parent="WiiSMA_Z27GCbpn9DQuG-1" source="WiiSMA_Z27GCbpn9DQuG-3" target="WiiSMA_Z27GCbpn9DQuG-8" edge="1">
                    <mxGeometry relative="1" as="geometry">
                        <Array as="points">
                            <mxPoint x="180" y="390"/>
                        </Array>
                    </mxGeometry>
                </mxCell>
                <mxCell id="WiiSMA_Z27GCbpn9DQuG-3" value="browser" style="rounded=1;whiteSpace=wrap;html=1;" parent="WiiSMA_Z27GCbpn9DQuG-1" vertex="1">
                    <mxGeometry x="120" y="130" width="120" height="60" as="geometry"/>
                </mxCell>
                <mxCell id="WiiSMA_Z27GCbpn9DQuG-15" style="edgeStyle=none;html=1;entryX=0.5;entryY=1;entryDx=0;entryDy=0;" parent="WiiSMA_Z27GCbpn9DQuG-1" source="WiiSMA_Z27GCbpn9DQuG-7" target="WiiSMA_Z27GCbpn9DQuG-2" edge="1">
                    <mxGeometry relative="1" as="geometry">
                        <Array as="points">
                            <mxPoint x="-520" y="240"/>
                            <mxPoint x="-140" y="240"/>
                        </Array>
                    </mxGeometry>
                </mxCell>
                <mxCell id="WiiSMA_Z27GCbpn9DQuG-7" value="backend_server" style="rounded=1;whiteSpace=wrap;html=1;" parent="WiiSMA_Z27GCbpn9DQuG-1" vertex="1">
                    <mxGeometry x="-580" y="130" width="120" height="60" as="geometry"/>
                </mxCell>
                <mxCell id="WiiSMA_Z27GCbpn9DQuG-30" value="consult" style="edgeStyle=none;html=1;entryX=0;entryY=1;entryDx=0;entryDy=0;" parent="WiiSMA_Z27GCbpn9DQuG-1" source="WiiSMA_Z27GCbpn9DQuG-8" target="WiiSMA_Z27GCbpn9DQuG-3" edge="1">
                    <mxGeometry relative="1" as="geometry"/>
                </mxCell>
                <mxCell id="WiiSMA_Z27GCbpn9DQuG-33" style="edgeStyle=none;html=1;" parent="WiiSMA_Z27GCbpn9DQuG-1" source="WiiSMA_Z27GCbpn9DQuG-8" target="WiiSMA_Z27GCbpn9DQuG-31" edge="1">
                    <mxGeometry relative="1" as="geometry"/>
                </mxCell>
                <mxCell id="WiiSMA_Z27GCbpn9DQuG-8" value="private_route" style="rounded=1;whiteSpace=wrap;html=1;" parent="WiiSMA_Z27GCbpn9DQuG-1" vertex="1">
                    <mxGeometry x="-170" y="360" width="120" height="60" as="geometry"/>
                </mxCell>
                <mxCell id="WiiSMA_Z27GCbpn9DQuG-11" value="cookie" style="ellipse;whiteSpace=wrap;html=1;" parent="WiiSMA_Z27GCbpn9DQuG-1" vertex="1">
                    <mxGeometry x="-10" y="140" width="50" height="40" as="geometry"/>
                </mxCell>
                <mxCell id="WiiSMA_Z27GCbpn9DQuG-5" value="login / logout" style="rounded=1;whiteSpace=wrap;html=1;" parent="WiiSMA_Z27GCbpn9DQuG-1" vertex="1">
                    <mxGeometry x="-360" y="140" width="90" height="40" as="geometry"/>
                </mxCell>
                <mxCell id="WiiSMA_Z27GCbpn9DQuG-14" value="" style="edgeStyle=none;html=1;entryX=1;entryY=0.5;entryDx=0;entryDy=0;endArrow=none;" parent="WiiSMA_Z27GCbpn9DQuG-1" source="WiiSMA_Z27GCbpn9DQuG-2" target="WiiSMA_Z27GCbpn9DQuG-5" edge="1">
                    <mxGeometry relative="1" as="geometry">
                        <mxPoint x="-200" y="160" as="sourcePoint"/>
                        <mxPoint x="-365" y="160" as="targetPoint"/>
                    </mxGeometry>
                </mxCell>
                <mxCell id="WiiSMA_Z27GCbpn9DQuG-17" value="token" style="ellipse;whiteSpace=wrap;html=1;" parent="WiiSMA_Z27GCbpn9DQuG-1" vertex="1">
                    <mxGeometry x="-350" y="220" width="50" height="40" as="geometry"/>
                </mxCell>
                <mxCell id="WiiSMA_Z27GCbpn9DQuG-20" value="1" style="text;html=1;strokeColor=none;fillColor=none;align=center;verticalAlign=middle;whiteSpace=wrap;rounded=0;" parent="WiiSMA_Z27GCbpn9DQuG-1" vertex="1">
                    <mxGeometry x="-260" y="110" width="60" height="30" as="geometry"/>
                </mxCell>
                <mxCell id="WiiSMA_Z27GCbpn9DQuG-21" value="2" style="text;html=1;strokeColor=none;fillColor=none;align=center;verticalAlign=middle;whiteSpace=wrap;rounded=0;" parent="WiiSMA_Z27GCbpn9DQuG-1" vertex="1">
                    <mxGeometry x="-470" y="200" width="60" height="30" as="geometry"/>
                </mxCell>
                <mxCell id="WiiSMA_Z27GCbpn9DQuG-23" value="3" style="text;html=1;strokeColor=none;fillColor=none;align=center;verticalAlign=middle;whiteSpace=wrap;rounded=0;" parent="WiiSMA_Z27GCbpn9DQuG-1" vertex="1">
                    <mxGeometry x="-70" y="100" width="60" height="30" as="geometry"/>
                </mxCell>
                <mxCell id="WiiSMA_Z27GCbpn9DQuG-27" value="4" style="text;html=1;strokeColor=none;fillColor=none;align=center;verticalAlign=middle;whiteSpace=wrap;rounded=0;" parent="WiiSMA_Z27GCbpn9DQuG-1" vertex="1">
                    <mxGeometry x="-100" y="210" width="60" height="30" as="geometry"/>
                </mxCell>
                <mxCell id="WiiSMA_Z27GCbpn9DQuG-28" value="5" style="text;html=1;strokeColor=none;fillColor=none;align=center;verticalAlign=middle;whiteSpace=wrap;rounded=0;" parent="WiiSMA_Z27GCbpn9DQuG-1" vertex="1">
                    <mxGeometry x="-90" y="310" width="60" height="30" as="geometry"/>
                </mxCell>
                <mxCell id="WiiSMA_Z27GCbpn9DQuG-35" value="no" style="edgeStyle=none;html=1;entryX=0;entryY=0.5;entryDx=0;entryDy=0;" parent="WiiSMA_Z27GCbpn9DQuG-1" source="WiiSMA_Z27GCbpn9DQuG-31" target="WiiSMA_Z27GCbpn9DQuG-34" edge="1">
                    <mxGeometry relative="1" as="geometry"/>
                </mxCell>
                <mxCell id="WiiSMA_Z27GCbpn9DQuG-37" value="yes" style="edgeStyle=none;html=1;entryX=1;entryY=0.5;entryDx=0;entryDy=0;" parent="WiiSMA_Z27GCbpn9DQuG-1" source="WiiSMA_Z27GCbpn9DQuG-31" target="WiiSMA_Z27GCbpn9DQuG-36" edge="1">
                    <mxGeometry relative="1" as="geometry"/>
                </mxCell>
                <mxCell id="WiiSMA_Z27GCbpn9DQuG-31" value="" style="rhombus;whiteSpace=wrap;html=1;" parent="WiiSMA_Z27GCbpn9DQuG-1" vertex="1">
                    <mxGeometry x="-150" y="470" width="80" height="80" as="geometry"/>
                </mxCell>
                <mxCell id="WiiSMA_Z27GCbpn9DQuG-34" value="login_page" style="rounded=1;whiteSpace=wrap;html=1;" parent="WiiSMA_Z27GCbpn9DQuG-1" vertex="1">
                    <mxGeometry x="30" y="480" width="120" height="60" as="geometry"/>
                </mxCell>
                <mxCell id="WiiSMA_Z27GCbpn9DQuG-36" value="continue" style="rounded=1;whiteSpace=wrap;html=1;" parent="WiiSMA_Z27GCbpn9DQuG-1" vertex="1">
                    <mxGeometry x="-360" y="480" width="120" height="60" as="geometry"/>
                </mxCell>
                <mxCell id="WiiSMA_Z27GCbpn9DQuG-38" value="6" style="text;html=1;strokeColor=none;fillColor=none;align=center;verticalAlign=middle;whiteSpace=wrap;rounded=0;" parent="WiiSMA_Z27GCbpn9DQuG-1" vertex="1">
                    <mxGeometry x="-120" y="430" width="60" height="30" as="geometry"/>
                </mxCell>
            </root>
        </mxGraphModel>
    </diagram>
    <diagram id="qv0SuTy-rP2ShjnL--BF" name="Page-4">
        <mxGraphModel dx="1798" dy="1698" grid="1" gridSize="10" guides="1" tooltips="1" connect="1" arrows="1" fold="1" page="1" pageScale="1" pageWidth="850" pageHeight="1100" math="0" shadow="0">
            <root>
                <mxCell id="mWZPp7UFH57vghHxyWlN-0"/>
                <mxCell id="mWZPp7UFH57vghHxyWlN-1" parent="mWZPp7UFH57vghHxyWlN-0"/>
                <mxCell id="mWZPp7UFH57vghHxyWlN-15" style="edgeStyle=none;html=1;" parent="mWZPp7UFH57vghHxyWlN-1" source="mWZPp7UFH57vghHxyWlN-2" target="mWZPp7UFH57vghHxyWlN-3" edge="1">
                    <mxGeometry relative="1" as="geometry"/>
                </mxCell>
                <mxCell id="mWZPp7UFH57vghHxyWlN-16" style="edgeStyle=none;html=1;entryX=0.5;entryY=0;entryDx=0;entryDy=0;" parent="mWZPp7UFH57vghHxyWlN-1" source="mWZPp7UFH57vghHxyWlN-2" target="mWZPp7UFH57vghHxyWlN-7" edge="1">
                    <mxGeometry relative="1" as="geometry">
                        <Array as="points">
                            <mxPoint y="150"/>
                        </Array>
                    </mxGeometry>
                </mxCell>
                <mxCell id="mWZPp7UFH57vghHxyWlN-17" style="edgeStyle=none;html=1;" parent="mWZPp7UFH57vghHxyWlN-1" source="mWZPp7UFH57vghHxyWlN-2" target="mWZPp7UFH57vghHxyWlN-10" edge="1">
                    <mxGeometry relative="1" as="geometry">
                        <Array as="points">
                            <mxPoint x="40" y="220"/>
                        </Array>
                    </mxGeometry>
                </mxCell>
                <mxCell id="mWZPp7UFH57vghHxyWlN-18" style="edgeStyle=none;html=1;entryX=0.5;entryY=0;entryDx=0;entryDy=0;" parent="mWZPp7UFH57vghHxyWlN-1" source="mWZPp7UFH57vghHxyWlN-2" target="mWZPp7UFH57vghHxyWlN-11" edge="1">
                    <mxGeometry relative="1" as="geometry">
                        <Array as="points">
                            <mxPoint x="320" y="190"/>
                        </Array>
                    </mxGeometry>
                </mxCell>
                <mxCell id="mWZPp7UFH57vghHxyWlN-2" value="" style="shape=cylinder3;whiteSpace=wrap;html=1;boundedLbl=1;backgroundOutline=1;size=15;" parent="mWZPp7UFH57vghHxyWlN-1" vertex="1">
                    <mxGeometry x="130" y="-20" width="60" height="80" as="geometry"/>
                </mxCell>
                <mxCell id="mWZPp7UFH57vghHxyWlN-3" value="entries page" style="rounded=1;whiteSpace=wrap;html=1;" parent="mWZPp7UFH57vghHxyWlN-1" vertex="1">
                    <mxGeometry x="100" y="200" width="120" height="60" as="geometry"/>
                </mxCell>
                <mxCell id="mWZPp7UFH57vghHxyWlN-7" value="create" style="rounded=1;whiteSpace=wrap;html=1;" parent="mWZPp7UFH57vghHxyWlN-1" vertex="1">
                    <mxGeometry x="-50" y="340" width="120" height="60" as="geometry"/>
                </mxCell>
                <mxCell id="mWZPp7UFH57vghHxyWlN-8" value="enties" style="ellipse;whiteSpace=wrap;html=1;" parent="mWZPp7UFH57vghHxyWlN-1" vertex="1">
                    <mxGeometry x="20" y="10" width="65" height="50" as="geometry"/>
                </mxCell>
                <mxCell id="mWZPp7UFH57vghHxyWlN-9" value="read" style="rounded=0;whiteSpace=wrap;html=1;" parent="mWZPp7UFH57vghHxyWlN-1" vertex="1">
                    <mxGeometry x="210" y="210" width="70" height="30" as="geometry"/>
                </mxCell>
                <mxCell id="mWZPp7UFH57vghHxyWlN-10" value="update" style="rounded=1;whiteSpace=wrap;html=1;" parent="mWZPp7UFH57vghHxyWlN-1" vertex="1">
                    <mxGeometry x="100" y="340" width="120" height="60" as="geometry"/>
                </mxCell>
                <mxCell id="mWZPp7UFH57vghHxyWlN-11" value="delete confirmation" style="rounded=1;whiteSpace=wrap;html=1;" parent="mWZPp7UFH57vghHxyWlN-1" vertex="1">
                    <mxGeometry x="260" y="440" width="120" height="60" as="geometry"/>
                </mxCell>
                <mxCell id="mWZPp7UFH57vghHxyWlN-12" value="read" style="rounded=0;whiteSpace=wrap;html=1;" parent="mWZPp7UFH57vghHxyWlN-1" vertex="1">
                    <mxGeometry x="380" y="460" width="70" height="30" as="geometry"/>
                </mxCell>
                <mxCell id="mWZPp7UFH57vghHxyWlN-13" value="read" style="rounded=0;whiteSpace=wrap;html=1;" parent="mWZPp7UFH57vghHxyWlN-1" vertex="1">
                    <mxGeometry x="210" y="355" width="70" height="30" as="geometry"/>
                </mxCell>
                <mxCell id="mWZPp7UFH57vghHxyWlN-14" value="read" style="rounded=0;whiteSpace=wrap;html=1;" parent="mWZPp7UFH57vghHxyWlN-1" vertex="1">
                    <mxGeometry x="-110" y="355" width="70" height="30" as="geometry"/>
                </mxCell>
            </root>
        </mxGraphModel>
    </diagram>
    <diagram id="By5h-ua3Fcv0bx9sDQBW" name="new page">
        <mxGraphModel dx="3191" dy="869" grid="1" gridSize="10" guides="1" tooltips="1" connect="1" arrows="1" fold="1" page="1" pageScale="1" pageWidth="850" pageHeight="1100" math="0" shadow="0">
            <root>
                <mxCell id="PDZQ3TdTwW282XvhMDcU-0"/>
                <mxCell id="PDZQ3TdTwW282XvhMDcU-1" parent="PDZQ3TdTwW282XvhMDcU-0"/>
                <mxCell id="PDZQ3TdTwW282XvhMDcU-24" value="REQUEST" style="edgeStyle=none;html=1;entryX=0;entryY=0.75;entryDx=0;entryDy=0;exitX=1;exitY=0.75;exitDx=0;exitDy=0;strokeColor=#35F0E4;" edge="1" parent="PDZQ3TdTwW282XvhMDcU-1" source="PDZQ3TdTwW282XvhMDcU-2" target="PDZQ3TdTwW282XvhMDcU-23">
                    <mxGeometry relative="1" as="geometry"/>
                </mxCell>
                <mxCell id="PDZQ3TdTwW282XvhMDcU-30" style="edgeStyle=none;html=1;entryX=1;entryY=0.75;entryDx=0;entryDy=0;strokeColor=#24F016;exitX=0;exitY=0.75;exitDx=0;exitDy=0;" edge="1" parent="PDZQ3TdTwW282XvhMDcU-1" source="PDZQ3TdTwW282XvhMDcU-2" target="PDZQ3TdTwW282XvhMDcU-27">
                    <mxGeometry relative="1" as="geometry"/>
                </mxCell>
                <mxCell id="PDZQ3TdTwW282XvhMDcU-2" value="Page" style="rounded=0;whiteSpace=wrap;html=1;" vertex="1" parent="PDZQ3TdTwW282XvhMDcU-1">
                    <mxGeometry x="-470" y="360" width="120" height="60" as="geometry"/>
                </mxCell>
                <mxCell id="PDZQ3TdTwW282XvhMDcU-6" value="" style="shape=image;verticalLabelPosition=bottom;labelBackgroundColor=#ffffff;verticalAlign=top;aspect=fixed;imageAspect=0;image=data:image/png,iVBORw0KGgoAAAANSUhEUgAAAgAAAAIACAYAAAD0eNT6AAAAAXNSR0IArs4c6QAAIABJREFUeJzs3Xd4VFX+x/H3pNFDCQKhlxRCQhMVFSyggAoWUAFX0FVQEMuu7tpWt7j2uioqoIIiiIJgFxUUCx1EeoBAIPQiNRBCZlJ+f4z4Q0PIzD135s5MPq/n4XElc879cHyW8517zz3HRcUQBbQHzgZSgFSgJVADqArUci6aiIg44CCQBxwGNgHrgCxgPrACKHYuWnC4nA4QQDWAvkA/4HygtrNxREQkTBwAfgSmAR8BR5yNExiRWACcBfwFuArvt3sRERGrjgIfAy8Cix3OYqtIKgB6AP8ALnQ6iIiIRKRZwBPAt04HsUMkFACtgCeBa50OIiIiFcLneO80b3Q6iIlopwMYiALuB6bgXeAnIiISDCnAMMCDd9FgibNxrAnXOwD1gfFAL6eDiIhIhfYdMBjY7nQQf4VjAdAZ+BSo53QQERERYDdwOWG2SDDK6QB+uhLvIgxN/iIiEirq470TcIXTQfwRTmsABgKTgUpOBxEREfmDOKA/sBZY7XAWn4TLI4ArgKlArNNBRERETsEDXA185nSQ8oRDAXAu3tv++uYvIiLh4BjePWkWOh3kVEK9AKgPLAEaOR1ERETEDzuBTr/+MySF8iLAaOADNPmLiEj4SQQmEcLzbCgvAvw7MNTpECIiIhY1x3uwUEg+CgjVRwBJwHJsPszH5XLRrFlrklq1pWmTZOrWbUi1qvFUrqwzg0REjisqKuJYfoHTMQKqoOAoeUcPs2//LnbsyGbjptVs3baeAGzqlwdkADl2d2wqVAuA6cCldnUWGxvH2Wf1omvXPtSqWdeubkVEIlahp5CCArfTMYLqUO4+lvz8LT/9PItjx/Ls7PpTvPvYhJRQLAC6ArPt6MjlcnF250vofmE/4uPr2NGliEiF4S5w4/EUOh0j6PLzj/DDnI9Y/NNMSkpsuyNwDrDArs7sEIoFwA/A+aadVK1ag4H9/0JqSkcbIomIVDwlJXAs/xjFxcVOR3HE+uzlfPzpaPLzj9jR3SzgIjs6skuoFQCdsaFCSkxszo2DH6B2rdNsiCQiUnEVFxVx7FgB9n0RDi8HD+1l8gcvsHvPVju6OwPvq+0hIdTeAngM6GDSQUKdBgy75RFqxifYFElEpOJyRUVRXFxMcXHFrAAqV65Km9ZnsS5riR13AlyE0A6BoXQHoDbe4xSrWO2gRo1ajBj2BHXq1LcvlYhIBVdcUkx+3jGnYzjqwIE9jHvnv+TlHTLpJg9oCOTak8pMKG1Q0AeDyR9gYP+/avIXEbFZlCuKmJhQu2EcXLVr1+OqK4aZdlMNuMyGOLYItQLAso4dziepVVu7soiIyAliY3UWW6sWbUlvc7ZpN0ZznZ1CpQCIAXpabVy5clV6X3qjjXFERORErqgoXFGh9NTYGb0uvp5KlYxuVl9KiKy/C5UCIAOoZbXx2Z17UaOG5eYiIlIOlwtiokNi3nJU9eq1OL1DN5Mu6gBpNsUxEioFgOWV/y6Xi85nWb55ICIiPoqu4OsAjjvjdOPX+UNig5pQKQBOt9qwUaNW1Kldz84sIiJyElFRoTJlOKt27XokNmhh0oXlOc9OofJfs5XVhinJ7e3MISIiZXC5XES5tA4AoGWLDJPmluc8O4VKAWD53b0mjZLszCEiIqfgilYBAN67zwYa2JXDRKgUAIlWGybUbWhnDhEROYWokNo/zjl1ahvtOWN5zrNTMP5LxuLd/zgdSAFS8a6CrMr/r/xvjsVipHat03DpuZSISFCUlJRAxdwV+HeKS4o5dGiv5eZAzq//+yDeHQIPAOt+/ZUJ/AR4DGOeUqAKgCbAAOBivMf7VgvQdURERCJRHjAb+AaYDGyz+wJ2FgAxeCf9m4BuhM7jBRERkXBWjPc44beAKUChHZ3aUQDEAQOBh4FkG/oTERGRk8sBXgTGAEYnNJkWAN2BV4HWhv2IiIiI77KBu4DpVjuwWgDUB0YBfa1eWERERIxNBW4H9vjb0EoBcAEwCe+ZxiIiIuKsPcAgYKY/jfzd2Pk+4B2gpp/tREREJDCqAX8CjgLzfG3kawHgAp4F/o1W94uIiISaKKAnkAB8jQ+7NfhSAEQB44HbjKKJiIhIoHXGu7nep5RTBPhSALwADLMhlIiIiAReB+A0ynlDoLwC4CHgH3YlEhERkaA4EygA5pT1gVO9BdAd74pCPfMXEREJP8XApcCMk/2wrAKgPrCMEDmyUERERCzZA3QEdvzxB2V9ux+PJn8REZFwVw9482Q/ONkdgGvxHjZgq6pVqtK16wWce+55pKWl06hRE2rW1HYCIiISWCUlUFDg/Weoyc09xPbtW1iXlcmCBT8yb94PHDuWH4hLXQNMO/E3/lgA1ADWAI3sumJqahp33nEP/fr1p0aNeLu6FRER8VlJMeQbHZ0THIcP5/Lpp1MYNep51m9Ya2fX24A04Mjx3/hjAXA/8JQdVzrttHo8+ugzXDdwMFFRWkcoIiLOKiqEArfTKXxTXFzM5CnjefTR+9m37xe7ur0feOb4v5xYAFQGNgKJple48MKLePONidSvr2UEIiISOtxuKCx0OoXv9u37hTvuvIFZs76yo7vdQAsgH36/D8AwYIBp77feejvjxk6iRo0apl2JiIjYKioKioqcTuG7qlWr0feq69i7bw/Ll/9k2l11vG8DLIbfFwCvY7jyf/iwO3nuuZG4XFZPGRYREQkcl8v7K5yKgKioKHr06MP+fXtZumyxaXeJeOf73x4BtAVWmPR42WVX8N6kj/S8X0REQt6xfCgOwbcCTqW4uJgbbriCmd98YdpVBrD6+Gw9yKSnRo0aM2b025r8RUQkLETHOp3Af1FRUYwcOZ4GDRqadnU9/P9GQD1Nenrm6ZeoVau2aSAREZGgiPHlKLwQVLt2Av995AXTbnqC9xFAHeAXLO7536nTWXz/3ULTMCIiIkFVUBBeawFO1OuSs1hmfT1AMXBaFHA+Bgf+3HP3/VabioiIOCY6jJ9a3377vSbNo4DzovAuALSkTp0ELrmkj0kIERERR0SH6WMAgEsvuZLatRNMusiIAlKtB+hDXFycSQARERFHuML4DkBsbBzdu19i0kWqUQHQtesFJhcXERFxVDi/vNa1SzeT5qlRwGlWW7dJt/z0QERExHFRYbxvXevWGSbN60bh3RrQkmZNm5tcXERExFlhXAA0bdrCpHl8FN4jgC3R8b4iIhLWwrgAiI+vadK8RhRgeRWfFgCKiEg4C+P5n7i4SibNK4Xx8gcRERGxSgWAiIhIBaQCQEREpAJSASAiIlIBqQAQERGpgFQAiIiIVEAqAERERCogFQAiIiIVkAoAERGRCijG6QAiIuFoy9bNzJnzA2vWrGb9+nVs2JBFXt4Rjhw5Qm7uIeLja1K9enWqV69BUlIKSUkppKWlc955F9KkcVOn44eFLVtymD3nB9auzfRpjJOTU2nduo3G2EcuoMRq48O5lpuKiISdn35ayHvvT2DGjC/JydlouZ8WLVrRq+dlDLxuMJ1OP9PGhOFv8eIFv43x5s2bLPfTsmUSPXtcWu4YezzeX+GqfgPrmxlHfAGQnb2esePGkJOzkZKSEpo3a8HNQ4aTnJTidLRSlFUk9OTn5zNhwjhGjxnJ+vXrbO8/NTWN4cPuZNCgm6hcubLt/YeD/Px83pkwljFjXgnoGA8efDOVKv1+/3wVABaFcgGwcuUy/vSnfuSUUUE2bdqcSe9+SPv2HYOcrLTly5cyaNDVyioSQjweD6PHjOTFF59hz57dAb9egwaJ3H33/dwydASxsbEBv14ocLvdjBr9Mi+//JxjY6wCwKJQLQBmfvMV117bh6KiolN+Ljo6mvcmfcSll14epGSl+ZP1/fc+4ZJLegcpWWkzZkyn/4ArwiKriIm5c3/k7ntGsGbN6qBfOykphReef5Vu3S4O+rWDyckxTk5O5fnnXqFbt4tVAFhtHIoFwKFDB2mVlEhBwTGfPh8bG8vaNVupV69+gJOVFk5Z9+3fS0pKI9xut0+fdzKriFVut5uHH76X0WNGUlLi3N9vLpeLO26/m0ceeSri7gYUFBTw8MP3Mub1Vxwf4zvvuIeHHnoSCN8xNikAIu41wKG3DPZ5QgXvbb7bRtwcwERls5J1xO1DApiobMOG/dnnyR+czSpixZYtOfTo0YVRo192dGICKCkpYeQrL9Cz13ls27bV0Sx22rx5Ez16dHG8wALvGL888nl69zmf7TsiZ4z9EXF3ABLqVvJrogLvt9X9+/xrYwdrWePYv68gQInKFk5ZRfy1Zs1qrurbix07tjsdpZQGDRL5cNqXtG3b3ukoRjIzV9G33yUhOcb16yfy3qQvSU8PvzHWHYBfZWau8nuSAu+31ZUrlwUgUdmsZ3WzatWKACQq26pVK8Imq4i/FiyYS4+eXUNyYgLYtWsnl/XuxuLFC5yOYtn8+XNCeox3795Jv6u78/PPC52OElQRVQAsX7HUkbbBvp6yithj9eqVXNv/cg4dOuh0lFM6ePAAV/W9hJUrlzsdxW/Hxzg395DTUU7p4MH9DBjYi9Wrw2+MrYqoAsDlMlgN6QruUJhkjYoKblaT6wU7q4ivNm/exFV9e3Hw4AGno/gkN/cQ11zbm63btjgdxWc5ORu58qqeIV9gHZebe4hBg/pUmDUBEfW3c0Z6O0faWpHeJsNy24z0tjYmCez1gp1VxBcFBQUMHnwtu3btdDqKX3bs2M7gwddaeiQXbMfHePfuXU5H8cuOndsYMuQaPJ7QH2NTkVUAZLQjNjbO73axsbFB37imbdsOll7viY2NpW3bDgFIVLZwyirii4ce+jtLly1xOoYlS5Ys4pFH/uF0jHI9+I97WLb8Z6djWLJ06SKeePIhp2MEXEQVAIClzTMuvNCZDTesXLdbtx4BSFK+cMoqcipz5/7I62+86nQMIyNfeYE5c35wOkaZ5sz5gTffHOV0DCOjRj3PvPmhO8Z2iLjXAPfu3UNq6yY+3yKLiYllTeZmGjRIDHCy0vbu3UNKahOfbzXFxsaSuVpZRaxyu92c26UD69atcTqKsTZtMpgz++eQ2yjI7XZzzrntycpa63QUY61bZ/DNzNAb4xOZvAYYcccB161bj3fGT+FP1/ejuLj4lJ+NiorinfFTHJuk6tatx/i3JzNo8NU+ZZ3wzgfKKmJg1KiXbJ/8a9SqTeeLe3N2j940aNqC0xIbU6NWbXIP7Gfvru3s2rKJ+TM+Z+E3X3DExsVwmZmrGDtuNMOH3Wlbn3Z47bUXbZ/8a1epQu/kZPqkpNC8Vi0ax8dTu0oV9ufnsy03l00HDvB5VhbT16/n4DHfN1crz9q1q3hnwhiG3HyHbX2Gkoi7A3DckiWLGTT46jJ30WrUqDHvTvyQTp2cP4rzp58WMmjwNWzfvu2kP1dWEXNH84+SkdGCX37ZY0t/DZu34qYHHuWCy68lOqb871KFHg8/fPYB4558mF1brB9z+7sMDRuxYnl2qRPunGL3GLeqU4fHunfnmjZtiPHhjSJPURFTVq/m4VmzyDloT7GVmNiIRQuziYsLjTH+I50FcAqZmasY99YYcnK8/4dr1qw5N/35VjIygrvq3xd/zNq8eQtuvmkYbQzeGAiUcMoqAjBq9Mvcd99fjPuJiY1l6ENP0nfoncRYWHRc6HEzbcyLjHvqYQptOIXmxf+NYsiQ4cb92OG1US9x//1/Ne4nLjqaJy++mDvOOou46Gi/2xcUFvLiggU8PGsWheXcsfTFs8+M5oYbhhn3EwgqAERETqGkpISOp6eSnb3eqJ+adery77FTaX/uBcaZls39jkeGXEvugX1G/aSmpvHT4kzjPKZKSkro0DGFjRs3GPVTt2pVpg0YwPnNmhlnmrVpE9dOmcL+/HyjflJS2jD7x+CfWugLbQUsInIKixbNt2XyHzl9vi2TP0CHLt0Y+cU84msnGPWzbt0afl76ky2ZTCxcOM948j+tWjXmDx1qy+QP0L1FC+YNGUKdKlWM+snKymT5ivB8bfRUVACISMR77/0JRu1jYuP4z7hpNGqRZFMir8atUvj32A+IMVxlPvn9iTYlss50jOOio5nWvz9JderYlMgrtW5dplx7rU9rCE5l6lTnx9huKgBEJOLNnPGlUftb/vkU7c4536Y0v9ehSzdufvBxoz6+njHdpjTWmY7x0z16cJ5N3/z/6KKWLXmse3ejPr791vkxtpsKABGJaJs2ZbNl62bL7RObteSqm2+3MVFpV9/6Fxo2b2W5fXb2eqM/o6mNGzcYnVGQnJDA7WcG9s2hu885h1YGdxeys7PYsfPkbz+FKxUAIhLRTHfMG/rQk5ZW+/sjJjaOmx541KiPuXN/tCmN/0zH+PHu3Ym1sNrfH3HR0Txy4YVGfcyb+71NaUKDCgARiWhr1lhfvR1fO4HzevezMU3ZLrj8WmrUqm25/dq1zr0JYDLGCVWr0jctzcY0Zeufnk5tgwWBWVnOv21hJxUAIhLRstavs9z2nF6X+7TJjx2iY2I466LLLLdfb/DnNGVy7StSU40X6PkqNjqaS5KsL+TckO3cGAeCCgARiWibNmVbbtvZYEK24pyefSy3NX0Fz8RGgzG+LDnZxiTl65OSYrntpk3OjXEgqAAQkYh28OABy23tfu2vPC3bWN+h9JCN5wz4y2SM7X7trzzt6te33NbJMQ4EFQAiEtGOHDliuW2d+sE90Kpug0aW2+bm5tqYxD95BmOcWL26jUnK16hGDcttjxxxbowDQQWAiES0Y8esbwNrukufvypXrWa5bX7+URuT+HltgzE23aXPX9XirL/RcfSoc2McCCoARCSiVa5sfYIx3affX8eO5lluW6VKVRuT+HltgzE23affX3lut+W2Vas6N8aBoAJARCJadYNbzPt27bAxSfn27tpuuW18fLyNSfxTzWCMdxw+bGOS8m03uF716s6NcSCoABCRiFbL4N36HTnWV7dbsWnNSstta9asZWMS/5iMcfYB6wsIrVi5e7fltk6OcSCoABCRiNaieUvLbRcGef/3eV9/ZrltixbWtxI2ZTLG09ebndLor8+ysiy3bW6wXXMoUgEgIhEtOTnVctv5X39GUWGhjWnKVujxsMig4DD5c5oyufan69ZRWFxsY5qyeYqK+GqD9Xf5k1o5N8aBoAJARCJamzYZltvmHtjHnOkf2ZimbLO/mMZhg/fp09LSbUzjH5Mx3nf0KB+vXWtjmrJ9kJnJAYNFh6mpzo1xIKgAEJGI1qWL2TG+bzz2AIUe6yvHfVHocfPWU/806sP0z+nktR/69ls8RUU2pTk5d1ER//ruO6M+zu1idphQqFEBICIRrWXLJJo2sX7O/M7NG/n07VE2JirtozdHst1gm9lWrZKN/oymWrVKpknjppbbZ+3bx2uLF9uYqLSXFiwge/9+y+1btUqhYWJjGxM5TwWAiES8Hj0vNWo/5pH7WLVwjk1pfm/5vB948/EHjfro1TO4ZxacjOkY3zdzJnO3bLEpze99n5PDQ7NmGfVxUZDPhQgGFQAiEvGuGzjYqH2hx82/b76anZs32pTIa/umDTwy5BoKPR6jfgYMHGRTIutMx9hdVES/yZPZaPNrgev37ePaKVOMHzFcc43zY2w3FQAiEvE6dz6XpCTrp8ABHNy7hxG9zmL5vO9tybRq0Vz+cnlXDu3fa9RPamoap3c8w5ZMJjp3Ptf4VcQ9eXl0fuMNvs/JsSXTnC1b6DpuHHsNt/BNTk6jfbtOtmQKJcE56NpB6zdkMW7saHI2bwKgWdPmDBl6G8mGfxkEgrKKBM4tt4zg/vv/atRH7oF93Ne/F7f+62muvOl2YmJj/e6j0OPh47EjeeOxB21ZXDjs1juM+7CDy+Vi2LA7eOCBu4362Xv0KL0mTOCZHj0YceaZxEZH+92Hu6iIlxcu5B82LS4cOuRO4z5CkQsosdr4cK7lpgG3fPlSrh/Uj82bT15JNm3SjIkTp9Gxo/NVnS9ZJ036iPbtOwY5WWnhlFXkREfzj5KR0YJfftljS3+NWiYz5MHHOa93P6J8mKSKi4r48fOpjHvyYaMFfydKTGzIiuXZVK5c2Zb+TB3NP0p6enP27v3Flv5SEhJ4/KKL6Nu6NdFR5d+wLiwuZmpmJg/PmmW04O9EiYmNWLQwm7i4Srb0Z7f6DVyW20ZkATBjxnT6D7iConIqv6ioKN5/72MuvfTyICUrzdes0dHRvDfpI0ezfvXVFwy87sqwyCpyMi+99CwP//M+W/usWacunXv05pwefWjZph0JDRpSpVp18vOOsG/XDjasWsbCb75gwcwvbD9c6JlnXuK24XfZ2qep//3vaf717wds7bNu1ar0SUmhd0oK7evXJ7FGDarHxXHE7WbH4cMs27WLz7Oy+CIry/bDhR5//OWQvgOgAuAEhw4dpFVSIgUFx3z6fGxsLJmrN9OgQXDP/QZrWdeu2Uq9evUDnKy0ffv3kpLSCLePJ2k5mVWkLG63m3O7dGDdujVORzGWlpbO3DlLibXwGCKQ3G4355zbnqys4GzuE0itW2fwzcyfQ26MT2RSAETcIsAhQwf5PKECeDweRtw+JICJymYl620jbg5gorLdeuuNPk/+4GxWkbLExcXx4v9G4XJZ/0szFLhcLp5/7pWQnJji4uJ47tmRTscw5nK5ePLJ0Bxju0TcHYCEupX8mqjA+211/77A7vR1MtayxrF/X0GAEpUtnLKKlOdvf7+D119/1ekYlt15xz088cTzTsc4pbvvGcGbbwZ2A6VAuu22v/Gffz/ndIxy6Q7ArzIzV/k9SYH32+rKlcsCkKhs1rO6WbVqRQASlW3VqhVhk1XEF088/jwdOzi/ANiKTqefyX/+86TTMcr11JP/o0P7052OYUnHjmfx0D+ecDpGwEVUAbB8xVJH2gb7esoqYqZSpUpMmPAB9es3cDqKXxITGzJh4lTi4uKcjlKu42McbuuAEhMbMXbsVGJjQ3+MTUVUAWDyXM/lCu5QmGSN8uF1GDuZXC/YWUV81axZCz75eAY1a9ZyOopP4uNrMvWDL4z23A+25s1b8uknM8NqjN+d+AWNGjZxOkpQRNTfzu3adjBo297GJOXLSG9n0LatjUnK1zbD+tgEO6uIP9LT2zJl8qfUqBHvdJRTqlmzFtOmfkG7dtb/jnNKenpb3n/v47AY40nvTic9PbhzgZMibhFgnYRKePzcXcupRYB1EuLw+LkHuLKK2C8zcxV9+13Cjh3bnY5SSoMGiUybOj0sJ/8TrV69kr79LmHnzh1ORymlfv1EJr07nYyM8BtjLQI8QbduF1to0yMAScp34YX+Z+3evWcAkpQvnLKK+KtNmwxmfD075BYGdup0FrNmLQj7yR+8dwJmfD075BYGdurUmS+nLwjLyd9UxN0BsLJhjVMbAe3du4fU1k3CYnOdcMoqYlVBQQEPP3wvo8c4+x67y+VixG1/4b//fTosFvz5o6CggH889DfHX8N0uVzcPuKvPPzwU7hc4TvGugNwgoQ6dZk4YapPi8+ioqKY8M4Hjkz+AHXr1uOd8VP8yurUhBpOWUWsqlSpEs8++zJfffkDaWnpjmRISkrhk49n8NRT/4u4yR+8Y/z8c6/w5fTvHRvj5ORUPvl4Bk8++UJEjrGvIu4OwHFLlixm0OBr2LZty0l/3rhxEyZOmEanTmcGOVlp3qxXs23b1pP+vHHjJkx696OQOLgonLKKmHC73YweM5KXXnqWPXt2B/x6DRokcvfd93PL0BERvfvcidxuN6NGv8xLLz1r2yFNp3KyMfZ4vL/Clc4COIW1azMZO3Y0m7fkUFJSQrNmzbn5pmG0aZPhdLRS1q7N5M2xo347aa9Zs+YMHXIbrVu3cThZaeGUVcREfn4+b49/gzFjXiE7e73t/SclpTB8+J3ceMPQkDnVL9iO5h/l7be9Y7xxoz0nJZ4oOTmV4cPu5IYbhpQaYxUAFoVDASAiYpdFi+bz/uSJfP31dLZsOfmR2L5o3rwlvXpexoAB13PmmWfbmDD8LVw4j/cnT2TGjC9tGeOBAwdxxhmdy/ycCgCLVACISEWVk7OROXN+YM2a1WStX8fGjRs4dOggR44cIS/vCNWqVad69erUrFmLli2TSE1pTVpaOl27XkCzZi2cjh8WcnI2Mnv296xdm8m6rLVs2pRd5hi3apVMSnIqaWnpnHfehTRt2tyna6gAsEgFgIiIhLOKXABE3FsAIiIiUj4VACIiIhWQCgAREZEKSAWAiIhIBaQCQEREpAJSASAiIlIBqQAQERGpgFQAiIiIhKGSEqO9eEqigHyrrfPzLTcVERFxXDhvZ5eff9SoeRRw2GrrgwcPmFxcRETEWWFcARw8ZDQHH44CjlhtHYhTm0RERIIljOd/Nm00Op0yNwrYZrX1suU/m1xcRETEUSXFTiewbuXKpSbNt0cB66y2/uGHWSYXFxERcZTZOjpn/fjjNybN1xkVAN99N1PrAEREJCwVF4dvAXDw4H5mzzH6Er4uCrB8H//YsWO89/4EkwAiIiKOKCpyOoF1U6a8g9tdYNLFUhdQGTjw6z/91qRxU5YtW09cXJxJEBERkaA6dsx7FyDcFBQco/PZSezcud1qF/lA7SjgGDDfai9bt23hpZeetdpcREQk6IqLw3PyBxg58mmTyR9gLlBwfCfAL0x6eva5x1m9eqVJFyIiIkFTVOh0AmtWr17OyyOfMu3mCwDXr/+SCGwFoq32lpLSmm+/mUetWrVNg4mIiARMSQmE40a2Bw/u57Le55CdnWXSTSHQGNh9/A7ATmCmSY9ZWWvpP+AK8vIs7yskIiIScIUepxP4Ly/vCIMGX246+YN3rt8Nvz8MaJRpr/Pnz6F3n4v45Zc9pl2JiIjYrrgYPGF2+3/Pnl3069eNxYvn2dHdb3P9iQXAZ8AK056XLFlEl64d+fHH70y7EhERsZXb7XQC/8ye/S1K+L9+AAAgAElEQVQX9zidZct/sqO75cDnx//lxAKgBHjCjivs3LmDPpdfxPDhf2bL1s12dCkiImLE4wmflf9bt+Zw+x2DubZ/D3bv3mlXt49zwvEHrj/8MArv6wFn23W12NhY+l51LX+6/kbOP68bsbGxdnUtIiLik6IiKDDaNyfwPB4Ps2d/ywdTJ/DZZx/g8di6WGEe0JVTFAAAHYHFGLwRUJZq1arT+axzaNMmg8ZNmlK9WnXi42vafZmgi4uLo0FiQ9q360hMTIzTcYwUFRWxbPnP7Nq5A3e43SsTETmJkl+f+wdj199Cj4ftO7byyy+7qVevAQ0TGxNTxhffw7mHyMs7wrbtW1i7dhWLF8/j6NG8gMQCzsD7COA3JysAAJ4H7glEikhWp04CN910K/fd+xBVq1ZzOo5fjh7N49nnnuCtt15n3769TscRERH7PAfc+8ffLKsAqIT3UUCnQCaKVKmpaXzy8QwaNWrsdBSf7N69iyuv6qnNnEREIs9PeG/9l3oAUlYBANAKWAKE/z16B3Rofzrffjs/5M9IKCwspEfPrvz000Kno4iIiL0O4v0iv/FkP4w62W/+KhvoD+hBsAXLlv/MO++MdTpGucaPf1OTv4hI5HED11LG5A+nLgAAZgB/BsLkxYnQ8uZY472VAm7suNFORxAREXsVAzcC35zqQ6d6BHCiW/DuHmT7mwGRzOVykb1hF6edVs/pKCe1b99eWrSsR0lJMNbGiohIEBQBw4E3y/tgeXcAjnsDuBrvGcLio5KSErZsyXE6Rpk2b8nR5C8iEjkKgOvwYfIH8Oel9U+AXsBkvKcHig8++3QOa1YfcDrGSW3atNbpCCIiYo/twAC8b/D5xN9da2YDHYCJQA8/21ZIMdFVyM0NyMYOxqKiKjkdQUREzH0NDAZ+8aeRr48ATrQHuAS4CzhkoX2FUaNGbWrXDs3n/wC1a9cjPr6O0zFERMSag8AdwGX4OfmDtQIAvCsMRwKt8d4N0FsCJ3F6xwtwuXxdZ+mM0zte4HQEERHxTzHwDt45+FUszsFWC4DjduG97ZABTMC737AA1avX5PyuVzgdo1znd72C6tVrOR1DRETKV4h34k/H+5rfbpPO7Hqtby/wETAe2A80Aura1HfYiYurxODr76NB/aZORylXXFwlmjRKYuWqeRQVFTkdR0RESlsLvAgMwTvP2nJgSyDvT3cCLga6492HuGoArxUyGjdqxdV9b6NhwxZOR/HLjh2bmPbxaLZt2+B0FBGRiu4oMAf4Fu9mPj8H4iLBekAdDTQHUoEUIAGoAVTDe9bANVaztM04x/Hn7NWqxRMfX4fkpHY0bpTkeB6rSkpK2L49m6wNy8nNPUBentZ4isjvFRcXU1ysZV+UQObaRQatmYp3If2RX3/tA9YBWUAO3g19AipUZqpCLD6OePKxD4iKMl3KICIivvC43bjdWu5VUlLMo0/eaLV5Ef6/hm87zZwiIiIVkAoAERGRCkgFgIiISAWkAkBERKQCUgEgIiJSAakAEBERqYBUAIiIiFRAKgBEREQqIBUAIiIiFZAKABERkQpIBYCIiEgFFKyzABLxnl+cgvdAoDp4DwKq8evPL7KaJalV27A9fEdEJNwUF5dQUqLDgEpKYFPOasvN8Z70B3AYyMN7GFAW3gOBMoGdphnLE6iZswrQB+/E3h1IDtB1REREIlEW8B0wE5gO5Nt9AbsLgHOBIXiP9423uW8REZGK6BDwAfAWMM+uTu0qALoC/8H7jV9EREQCYy7wNPA53kcJlpkWAO2A14Auhv2IiIiI734EbgdWWe3A6lsAVYEXgCVo8hcREQm284Gfgefwrrvzm5U7AKnAFLzf/kVERMRZa4D++Hk3wN87AAPxfuvX5C8iIhIa0oD5eIsAn0X78dk7gTeASv5cQERERAIuDu8beHn4+KaArwXAo8CTBG/jIBEREfGPC+iJd27/rrwP+1IA3A/81zCUiIiIBMcF+HAnoLwC4EZgJPrmLyIiEk56ABuBFWV94FQT+xnAHPTMX0REJBwV4H1Vf8nJflhWAVAT7/uFLQMUSkRERAIvG+iEdzvh3ynrNcBX0eQvIiIS7lrhfZRfysnuAFwEfBOIFKmpaXTpcj5paek0btSEatWqB+IyIiIivykpAY/H+89Qc/RoHtu2b2HdutXMn/8j69evCcRlSvDO7b97M+CPBUAcsBxobddV69RJYOjQ27j+TzfSsmWSXd2KiIj4rLgYCgpCswg40aZNG5g8ZTxvvz2KAwf22dn1GqAD4D7+G38sAIYDo+y4UpUqVbjn7ge4666/UbVqNTu6FBERsaywENzu8j8XCvLyjvDaqOcYOfJpCgqO2dXtMOD14/9yYgEQA2QBLUyv0K5dB8a/PZmkpBTTrkRERGxTUABFRU6n8N36DWu59dYBZGaW+TafPzbiPc+nEH6/CPA6bJj8e/e+km9mztPkLyIiIScu1ukE/klOas30L+bTs+fldnTXEu+ZPsDvC4BbTXu+6qpreHfiNKpUsXQyoYiISEC5osKvCKhSpSpvjfuQyy7ra0d3v831xx8BtALWY7Dj39lnd+Hzz76lUiXtGyQiIqEtPz/0FwT+UUHBMfr268aSJQtMuinBO+dvOn4H4HoMJv/atevw1rj3NPmLiEhYiIlxOoH/KlWqzBuvT6ZmzVom3bjwzvm/PQK41KS3/z7yFI0bNzHpQkREJGjCsQAAaNSoKQ8++LhpN73AWwnUAPbjfQvAb61bt2HhgpVERZW1qaCIiEjoCbc3Ao4rKiri/PPT2ZC9zmoXHqBOFNAVi5M/wF//ep8mfxERCTtR5Z2HG6Kio6O5/Y77TLqIBbpGAe2t9lCjRjx9+15rEkJERMQR0WH83fWqKweYbqffLgrvpgCW9Ox5KVWrVDUJICIi4ohwvnldtWo1unXrZdJFa6MC4LyuF5pcXERExFHhXAR07drdpHlKFNDAauu2bS0/PRAREXFcOBcAbdLamTRvEAVYfojQvHlLk4uLiIg4y/IOOM5r0cLohN0aUXhfA7TEcDMCERERsSg+vqZJ8xpRQGWrrbXzn4iIhLMwvgFA5cpG5+5UCeOnHyIiImKVCgAREZEKSAWAiIhIBaQCQEREpAJSASAiIlIBqQAQERGpgFQAiIiIVEAqAERERCogFQAiIiIVkAoAERGRCijG6QAiIuFo8+ZNzJnzA2vWrCZr/To2btxAbu4h8vLyyM09RHx8TapVq0Z8fE1atUomOTmVtNZtOO+8C2natLnT8cNCTs5G5sz5gbVrM8lav47s7PUcPpz7uzGuXr06NWrE//8Yp6VzXtcLNMY+cAElVhsfzrXcVEQk7CxaNJ/33p/AjBlfsmVLjuV+mjVrQa9elzFwwCDOPPNsGxOGv4UL5/He+xOYOeNLtmzdbLmf5s1b0qvnZQwcOIgzzuhc5uc8Hu+vcFW/gfXTDCK+AMjKWsubY0f/9n/WJo2bMmTIcFq3buNwstL+mLVp0+bcfNOtYZN1yM3DSE1NcziZiL3y8/MZ/86bjB49kuzs9bb3n5ycyvBhdzJ48M1UqWJ0uEvYOpp/lPHj32TMmFcCOsY33DCEypV/f/6dCgCLQrkAWLp0CYMGXV1mBdm4cRMmTphGp05nBjlZaUuXLuH6Qf3YunXLSX/euHFTJr37IR07dgpystLKy9qkSVPenRgaWUVMuN1uRo1+mZdeepZfftkT8OvVr9+Av/71PobdegexsbEBv14ocLvdvPbai7w88nnHxlgFgEWhWgB89dUXDLzuSoqKik75uaioKCZOmMbll18VpGSl+ZN10rsf0rv3lUFKVpo/Wd+b9BGXXXZFkJKJ2GvOnB+452+3s2bN6qBfOykpheeff4Xu3XoE/drBNGfOD9x9zwjWrs0M+rVPHGMVABaFYgGwb/9eUlIa4Xa7ffp8TEwsazI306BBYoCTlRbpWdeu2UL9+g0CnEzEPgUFBTz00N8Z8/orjuZwuVzcNvwuHn30GeLi4hzNYrdjx47xj4f+xhtvvOZoDpfLxYjb/sI///k0Llf4jrFJARBxrwHeeuuNPk9SAIWFHm4bcVMAE5XNStYRtw8JYKKy3XLLDf5nHXFzABOJ2CsnZyMXX3yu45M/QElJCa+NeomePbsaLYQLNcfH2OnJH7xj/OprL3JZ7/PYvv3kjzQjXcTdAUioW8mviQogNjaW/fv8a2OHcMpaJ6ESHo+/WePYv68gQIlE7JOZuYq+/S5hx47tTkcppX79Bnw47UvatevgdBQjq1evpG+/S9i5c4fTUUqpXz+RSe9OJyMj/MZYdwB+lZm5yu8JFcDj8bBy5bIAJCqbSdZVq1YEIFHZVq1a4ffkD+DxuIOeVcRf8+bNpkfPriE5+QPs3r2Ly3p3Y+HCeU5HsWzu3B/p0bNrSE7+ALt376Tf1d1YvDh8x9iKiCoAlq9Y6kjbYF8vnLKuCHJhJeKP1atX0n/AFeTmHnI6yikdOnSQvv0uZcWK8Pv/06pVKxgw8EoOH851OsopHTp0kD9dfxmrVoXfGFsVUQWAy2WwGtIV3KEwyRoVFdysJtcz+XOKBFJOzkauvKonhw4ddDqKTw4fzuWaa3uzdVv4PK/etCk7rMY4N/cQgwb3qTBrAiKqAGjX1vrzm3Zt29uYpHwZ6e0st22bEdysJtcz+W8iEigFBQUMHnwtu3fvcjqKX3bu3MHgQddYenwYbAUFBdxwQ3/27NntdBS/7Ny5nZuHXGPpsWe4iagCoE2bDEuvzMTGxtI2yBNVRkY7YmOtZI0jI8N68WCF1axxcXGkp7cNQCIRM/946G8sW/6z0zEsWfLzYv7znwedjlGuBx68O2zHeNmyxTz+xD+cjhFwEVUAAHSzsHlG9+49A5CkfN26Xex3m4suCp+sTo2ryKnMmfNDSLyGZuKVV//H7NnfOx2jTN999w1vvjnK6RhGRo9+gXnzQneM7RBxrwH6u2FNbGwsa9dspV69+gFOVpqyigSX2+3m3C4dWLdujdNRjKWlpTN3ztKQ2zbY7XZzzrntycpa63QUY6mp6Xz7TeiN8YlMXgOMuOOAE+rU5d2JH/q0ZW10dDTvTpzm2CSVUKcuEydMZeB1V1FcXHzKzyqriLnXXnvR9sk/oWpV+qSk0Ds5mZa1a5NYowZ1q1Zl79Gj7Dh8mI0HDvBFVhafZ2WxPz/ftuuuWbOaN8eO4rbhd9nWpx1effV/tk/+8bUTOLtnH86+uDeJzVqS0KAhNeskcGjfXvbu2sHOzRtZMPNzFsz8gsMH99t23XXrVjP+ndEMHXKnbX2Gkoi7A3BceYcBhdKhNeUdsNO0STMmTfqI9u07BjlZaeGUVeRER/OPkpHRwrZDZ5ITEnise3euTksj2oc3ZQqLi5mamcnDs2aRvd+eSSoxsSErlmeXOuHOKUfzj5Ke3py9e3+xpb9GLZMZ8uDjnNe7H1HR0eV+vqiwkB8++4C3nvonO3KybcmQmNiIRQuziYurZEt/dtNZAKeQlbWWcePGkLN5E+A9tnbokOGkpLR2OFlpJztiV1lF7PHaqJe4//6/GvcTFx3N0z16cPuZZxLrw6T0R+6iIkYuXMiD336Lp5y7lL743wuvMXTobcb92OHV117kgQfuNu4nJjaOYf9+hiv+PIIYC7ffCz1uPnzjZcY+8Q8KbTjp55mnR3HjjcON+wkEFQAiIuXoeHoqGzZkGfWRULUqU/v358LmzY3zzN2yhX6TJ7MnL8+on9TUNH5aHPwT9f6opKSE9h2S2bTJ7Jt3fO0E/jNuKu3PvdA406qFc/j3zVdzcK/ZXZ/k5DTmzHZ+jE9GWwGLiJzCggVzjSf/etWqsXDoUFsmf4AuTZsyd8gQ6latatTPunVrWPLzYlsymViwYK7x5F+rbj1e+3qRLZM/QEbnrrz82RziaycY9bN+/RqWLf/JlkyhRAWAiES8996fYNQ+LjqaaQMG0KpOHZsSeSXVqcPU/v0tPUo40eT3J9qUyDrTMY6JjeORcdNIbNbSpkRejVom8++xH1h6lHCiqVOdH2O7qQAQkYg3c8aXRu2f7tGDrk2b2pTm9y5o3pwnL7rIqI8ZM83+fHaYaZhh2L+fIaNzV5vS/F6HLt24+cHHjfqYNcv5MbabCgARiWgbN24w2j8/JSGB288808ZEpd3VuTNJBncXsrPXl/nGUzBkZ69n27atlts3bpXCFX8eYWOi0q6+9S80bN7Kcvvs7Cx27NxmYyLnqQAQkYg2d+6PRu0f697d+BZ9eWKjo3m0e3ejPkz/nE5ee8iDjxvfoi9PTGwcf77/v0Z9zJsbWTsDqgAQkYiWmbnKctuEqlXpm5ZmY5qyXdOmDQkGCwLXrFltYxr/mIxxfO0Eulx6lY1pynbB5ddSo1Zty+3XrXNujANBBYCIRLT169dZbntFaioxQTp+OyYqikuTkiy3N/lzmjK5dpdLryQ6Jjib0sbExnJW90stt9+Q7dwYB4IKABGJaJtyNlpuazIhW9EnJcVy240bN9iYxD8mY2wyIVtxds8+lttu2uTcGAeCCgARiWgHDx6w3NZkYZ4VbetbPz8jN/eQjUn8YzLGDVsEt8hqkWb9iHInxzgQVACISEQ7cuSI5baJNWrYmKR8jQyul5uba2MS/+QZjHFC/UQbk5SvboNGltseOeLcGAeCCgARiWjHjlk/gS+hShUbk5SvWlyc5bb5+UdtTOLntQ3GuEat4N5lqVKtmuW2R486N8aBoAJARCJa5crWJ/G9Qf4LP8/ttty2ShWzLYVNVDEY49wD+2xMUr58g7MXqhpu2xxqVACISESrXr265bY7DW5tW7H98GHLbePj421M4p9qBmO8f/dOG5OUb++u7ZbbVq/u3BgHggoAEYlotQze+87ev9/GJOVbsXu35bY1a9ayMYl/TMZ4R47ZAUL+2pi5wnJbJ8c4EFQAiEhEa9HC+vavX6xfb2OS8n2eZf3EwpYtg7ua/nfXNhjjBd98YWMSH64343PLbVsE+Y2FQFMBICIRLSU51XLbz7OyKCwutjFN2TxFRUw3KDiSDf6cpkyuPf/rzygqLLQxTdkKPR4WGRzqk9TKuTEOBBUAIhLR0tLSLbfdd/QoH65ZY2Oask3NzORAvvXV9K1bt7ExjX9Mxjj3wD7mTP/IxjRl++HTKRw5dNBy+5QU58Y4EFQAiEhE69r1AqP2D37zDe6iIpvSnJy7qIh/fvedUR9dupxvUxr/mY7xG489QKHH+hsQvij0uHn7mX8b9XFulwttShMaVACISERr0aIVTZs0s9x+44EDvLpokY2JSntpwQKjBYdJSSlGf0ZTLVsm0aRxU8vtd27eyCdvvWZjotKmjv6f0YLDpFapNExsbGMi56kAEJGI17PXZUbtH/jmG2Zv3mxTmt/7PieHh2bNMuqjZ4/g7qd/0gyGY/z6f+9n5YLZNqX5vaVzZvHW0/806qP7Rc6Psd1UAIhIxBs4YJBRe3dREVdPmWL7a4Hr9+3j2ilT8Bg+Yhgw0OzPZwfTMS70uPnPkGtsfy1wW3YW/x3an0KPx6ifa65xfoztpgJARCJe587nkpRk/aQ9gF/y8uj85pt8t2mTLZnmbNlC13HjjHcbTE1N4/SOZ9iSycTZZ3cxHuODe/dw+yWdWTbXbD3EcasWzuEvV5xnvNtgcnIa7dt1siVTKIn4AiAray333f9XBl53FQMGXsm9997F2rWZTsc6qXDPum5dcFZLi1hx6623G/ex7+hRLpk4kRfmz7f8rd1dVMRz8+bRffx49hhsS3vc8GF3Gvdhl1tuGWHcR+6Bfdw/4BKmjvmf5W/thR43k195hr9d3Z2De/cYZ7pl6F3GfYQiF1BitfHhXMtNA27p0iUMGnQ1W7ae/Lld48ZNmDhhGp06nRnkZKUtXbqE6wf1Y+vWLSf9eePGTZn07od07Oh8BVpe1iZNmvLuxNDIKnKio/lHychowS+/mE8I4D0q+LHu3bm6TRtiosr/LlVYXMwHq1fz8KxZbDxg/fjcEzVs2IgVy7OpVKmSLf2ZsnuMG7VI4uYHH+O83lcTHRNT7ueLCgv5/tMpvPXUP9m5eaMtGRITG7FoYTZxcaExxn9Uv4HLctuILAC++uoLBl53JUXlVOhRUVFMnDCNyy+/KkjJSvMn66R3P6R37yuDlKw0f7K+N+kjLrvsiiAlE/HNSy8/x8MP32trn3WqVKF3Sgq9k5Pp0KABDapXp2blyhw6doydR46wfNcuPs/KYvr69ew3eM//ZJ599uWQugMA8NJLz/LwP++ztc8atepwdo/enN2jD63S21OnXgOqxdckL/cQ+3bvIHv1chbM/IKF33zB4YP2FFfHPfHESIbcfIetfdpJBcAJ9u3fS0pKI9w+nqoVExPLmszNNGgQ3DOpIfKzrl2zhfr1GwQ4mYjv3G4353bpEBGPq9q0yWDO7J+JjY11OsrvuN1uzjm3PVlZa52OYqx16wy+mRl6Y3wikwIg4tYA3HrrjT5PUgCFhR5uG3FTABOVzUrWEbcPCWCist1yyw3+Zx1xcwATifgvLi6Ol14cjctl/S/NUOByuXj+uVdCcmKKpDF+8snQHGO7RNwdgIS6lfyaqABiY2PZvy+wu1CdTDhlrZNQCY+fO3XFxsaxf19BgBKJWHfvvXcxesxIp2NY9pe7/s5jjz3rdIxT+tvf7+D11191OoZlt4+4l3/96xmnY5RLdwB+lZm5yu8JFcDj8bBy5bIAJCqbSdZVq6wfZ2nFqlUr/J78ATwed9CzivjiiSee58wzz3Y6hiWdOp3Fv/71uNMxyvXE48/Tof3pTsewpGPHs3jwwcecjhFwEVUALF+x1JG2wb5eOGVdEeTCSsQXsbGxvP3We46spzHRsGEjJk6YSlxcnNNRylWpUiUmTpwaduuAGiY2ZuzYqcTGhv4Ym4qoAsDkmZPLFdyhMMka5cMrR3YyuV64PweUyNW0aXM+/uhratWq7XQUn8TH12TqB1/QuHETp6P4rFmzFnzy8Qxq1qzldBSfxMfXZOLEz2nUMHzG2EREFQDt2nYwaNvexiTly0hvZ7lt24zgZjW5nsl/E5FAS09vy5TJnxIfX9PpKKdUq1ZtPvrwS9oG+e8pO6Snt2Xy+5+E/hjXrM17k74kPT38xtgqLQJEC+t8YSVrXFwc+/ZqEaCEvszMVfTtdwk7dmx3OkopDRok8uG08Jz8TxTKY1y/fmLYTv5aBHiCbt16+N2me/eeAUhSvm7dLva7zUUXhU9Wp8ZVxF9t2mQwc8ackNhT/0RnnNGZ72YtDPvJH7xjPOPr2XTsEFq7hJ5xxtl8+eXCsJz8TUXcHQB/N6yJjY1l7Zqt1KtXP8DJSlNWkdDidrt5+OF7GT1mJCUlzv395nK5uOP2u3nkkaci7j30goICHn74Xsa8/orjY3znHffw0ENPAuE7xroDcIKEOnV5d+KHREdHl/vZ6Oho3p04zbFJKqFOXSZOmOrTIjtlFQm8uLg4nnnmJb6c/j1t2mQ4kiE5OZVPPp7BE088H3GTP3jfDnj22Zf5cvr3pKWlO5IhOTmVTz+ZyeOPPxeRY+yriLsDcFx5hwGF0qE15R2w07RJMyZN+oj27TsGOVlp4ZRVxITH42HM66/w4ovPsHv3roBfLzGxIXfffT+3DB1BjA8H30QCj8fD6DEjefHFZ9izZ3fAr5eY2JB77nmAoUNu+22MPR7vr3ClswBOIStrLePGjSFns/cM76ZNmzN0yHBSUlo7nKy0rKy1vDl2NFu25ADKKhIKjh07xvh33mTMmFdYv36d7f2npLRm+LA7GTz4ZipXrmx7/+EgPz//tzHesCHL9v5TUlpz2/C7GDz45lInJ6oAsCgcCgAREbv89NNC3n9/Il/PmE5OjvXjZlu2TKJXz8sYMHAQnU53/kjyULJ48QLenzyRGTO+DMoYqwCwSAWAiFRUW7bkMHvOD6xZs5r169eRnb2ew4dzOXz4MIcP5xIfX5Pq1atTo0Y8SUkpJCenkpaWznnnXUiTxk2djh8WtmzJYfbs71mzNvO3Mc7NPcSRI0dsG2MVABapABARkXBWkQuAiHsLQERERMqnAkBERKQCUgEgIiJSAakAEBERqYBUAIiIiFRAKgBEREQqIBUAIiIiFVAUcMxq42PHLDcVERFxXDjvZnPsWL5J8/wo4LDV1rm5h0wuLiIiIhYdOnTQpPnhKOCI1dYm+zSLiIg4LoxvAeTkZJs0PxwFWD7ncsWKZSYXFxERcVRxkdMJrFududyk+a4owPL5lrPnfG9ycREREUcVh/EdgDlzZpk0X2dUAHz99XTy8iw/QRAREXFMcbHTCaw7ejSP77+fYdLFuijA8j2EvLwjfPTRByYBREREHFEUxgXAxx+/b/oFfIULqAHsA2Kt9JCamsaihauIitKWAiIiEj4KCqAoDNcAFBUVcd75bcjOzrLahQeoc/w1wJ+s9rJu3Rreeut1q81FRESCrrgkPCd/gLfHjzKZ/AEWAkeOf23/0qSn/zzyD7Zu22LShYiISNAUFTqdwJqtW3N46qmHTbv5Ev5/K+B3MXgb8uDBA/z5zwO1M6CIiISFwjAsAI4dy+eWWweYbsJXAkyC/y8ANgJzTHpctGg+Q4ZeT2E4jqqIiFQYHg+UhNnrf4WFhQy/7U8sXbrItKvZQA78/jAg4wf5n376IdcPupr8fKP9iUVERAKiuNhbAISTo0fz+PNNffnyy4/t6O63ud51wm/G4N0ToKVp7xkZ7Rj/9mRSUlqbdiUiImKbcFv5n5WVyS23DmDt2lV2dJcNtAYKAaJP+EEx3pMBLze9wp49u3nnnbF4PB46nX4mcXFxpl2KiIgYKSwMn2f/R44c5oX/PcYdd97I7t077er2fk5468/1hx/GAcuANLuuVrt2HYYMGc71f7qRpKQUu7oVERHxWXGx99t/qD/7X7GkZCcAACAASURBVL9hLR9MeYfx74zh4MH9dna9GuiIdw8AoHQBANAN+LaMnxlJTk6lS5fzSUtLp2mTZlSrVt3uS4iIRJy6dU+jYcNGJCTUdTqKJXv3/sLOnTvYu/cXR65fUhK6C/+OHDnM9u1bWLtuNfPn/2D6fn9ZSvDO7T+c+JtlTfLvAIMDkUJERKxp364jt9wygsGDbw753VeLiop4++03GDtuNCtXGp1aJ+beAW7842+WVQDUBJYArQKZSERE/Net28W8N+mjkL2LevhwLv0HXMGcOT+U/2EJtA1AJyD3jz841W3+TsBcoFKAQomIiEWXXNKHKZM/xeWy/WmtkZKSEvr2vYRvZxmdVCf2OAacCyw92Q9PdQ9pCXArBjsEiohIYHz11ed8/PFUp2OUMnnKu5r8Q0MJcAtlTP5w6gIAvM8N7rczkYiI2GP0mJFORyhl9OjQy1RB3QtMPNUHfL139ChgfPqAiIjYJyYmhq1b9lO9eg2nowBw4MB+mrc4jeLiYqejVHSPAv8q70O+LiP9J3An3s2CREQkBBQWFpKTs8npGL/ZuHGDJn9nlQB/x4fJH7zb//rqFWAPMBYIzaWnIiIVzIyv57Mxu9QC74ApKvTg8Zx8ks9avyJoOaSUI8BNgM8LQ/wpAACmACt+/WdbP9uKiIjNjuYVs23rnqBdz+N243affD/dw4fC7JSdyLEC6I/3PB+fWdlJYi3QGXiBXw8UEBGR4KtevSa1a9dzOsZvEhIaULlyVadjVCQe4DngbPyc/MFaAQCQD/wNOB2YY7EPEREx0L5tl5DaB8DliqJNWmenY1QUP+Kdg+/FOyf7zXQvyZXAecAlwGzDvkRExEeVK1Xh/POudDpGKV3O6UNsrPaPC6AfgV7ABYDRGcHR5X/EJ9nAW8DMX/+9FVDZpr5FROQEUVHRDOj/F5o1Df4Jq8VFRRQVlb3Sv0rlatSudRprs5agfeRscxDvO/134n3FL9uOTgN176gKcBlwMdAd0DnAIiI2qF3rNPr1HU5KcgdHrn+qRYAnytqwlOlfvk3uYVuPtK1IsvCezDsT+BLvtr62CtbDo0SgDZCKtxhIwPsq4fHXCS+ymiWpVduQegYmImK36OhYatasQ3JSe1qndiI2Ns6xLL4WAAAej5v1G5aycdNqDh/eT1Fx5KwbLymBTTmrLTfHO7mD9/W9I8A+vAv5soBMYKdpxvKEysxZiMXHEU8+9kHIH4spIhIp/CkAIllJSTGPPlnqhF1fFeH/a/i208wpIiJSAakAEBERqYBUAIiIiFRAKgBEREQqIBUAIiIiFZAKABERkQpIBYCIiEgFpAJARESkAlIBICIiUgGpABAREamAVACIiIhUQMHaizgGaA60BpKB04Bqv/6Kx6AQmfT+CzoMSEQkSIqLiykuLvs44ArD7KTjKGAKkAvk/fprD7Ae74FAOXjPyAmoQM6cZ+E9Drgb0AXvEcEiIiJyakeBucB3wDfA4kBcxO4CoBlwIzAYSLK5bxERkYooC5gIvANstqtTuwqAdOB+4DpC4IhDERGRCFQMTAP+A2SadmZaACQCzwED0YJCERGRYCgGJgH3ArusdhJtsV0UcCfwIXAGgV1LICIiIv/PBbQDbsG7gPAnLCxLtDJxnwZMAHpZaCsiIiL2+g64HtjpTyN/C4ALgPeBBn62ExERkcDZCQwAZvvawJ/n9lcBX6HJX0REJNQkAjOB/r428HUNwK3AeCDOQigREREJvBigH967AT+X92FfCoDrgHE+flZEREScEwX0wbub4PJTfbC8NQAXA58DlezJJSIiIkHgAa7A++j+pE5VACQBS/Du1S8iIiLh5TDeV/WzTvbDshYBVgImo8lfREQkXNXAe+hQ5ZP9sKzn+s8DfQOVSERERIKiAd6Td7/+4w9O9gjgdGARAVj0V716Dc45uwtpaek0btKUalWrUaOGbjKIiEjglJSAx2N6gq/9jhzOJe9oHtu3b2HdutUsWjSXI0cOB+JSRcCZwNITf/OPBUAUMB/vUb62iIuL4+p+A/jTn26ka9cLiInRWUEiIhJcRUVQUOB0ilMrLCxk3rzvmTxlPJ98MgWPx21n9wuALnjPEQBKFwDX4T1gwJjL5WLQoJv4x4P/oXHjJnZ0KSIiYpnH4/0VDrZv38Izz/ybyVPGU1Ji272LgXjX9wG/LwBceN8ZbGt6hUaNGjP2zXfp0uV8065ERERsc+wYFBeX/7lQMW/e94y4fRA7d263o7sVQAd+fRpyYgFwJfCxae9nnnk2H0z5jISEuqZdiYiI2KqkxFsE2PelOvD27t3DoMGXs3TpIju6uxL4FH7/GuBtpr2ee+55fP7ZN5r8RUQkJLlcEB1mS9Hq1q3HtKnf0rlzVzu6G378fxy/A9AQ2ILByv/Wrdvw7TfziI+vaZhNREQkcEpKID/f6RT+O3joAH16n8v6DWtNuikEmgC7jt8B+BMGk3/VKlV5Z/wUTf4iIhLyXC6IDbO7AAC1atbmjTemULlyFZNuYvAu+P/tEUBvk97uv/+fpKWlm3QhIiISNDGxTiewJi2tLX+560HTbi4D7yOAKsB+ytgqsDxNmzRj6dIs4uJ0UrCIiISPgmNQFEZvBBzndhfQuXMSO3Zus9pFPlAnCjgHi5M/wJ13/U2Tv4iIhJ2oMD3kPi7u/9q77/Coq3yP4++USSiBFFoIHZIAIWBBUIogRMANokgTu4IosuDedXWFXcvdq+xacHURVFyBVZoIol5QkF6CKBggEBJIowWkpReSmUxy/xjwIiEk8zu/md+U7+t5eHaFOed8cvThfOdXzglkypTnVbqoD/Txxbb1ryb16tXjgfGPqIQQQgghDOHnpgUAwNhxjxIQEKjSxY2+QLTW1oMHDyU4OEQlgBBCCGEIX1/bA4HuKCQ4lAG3x6l00cUX6KK19cCBg1UGF0IIIQzlrgUAwO1qBUBnX6CV1tY39LhJZXAhhBDCUD6+tX/GVXXvrrQGR/gCQVpbd+wYqTK4EEIIYSg3vgBAh45RKs0b+wKNtLYOCQlVGVwIIYQwlhtXACHBSmtwI18UXgGsX19pNyIhhBDCUG68/lO/fgOl5r64988vhBBCeCUftScY3fnxByGEEEJoJQWAEEII4YWkABBCCCG8kBQAQgghhBeSAkAIIYTwQlIACCGEEF5ICgAhhBDCC/kbHUAIIdxRZmY6O3duJzX1EGlphzl6LIv8/DxKSkooLS2hQYOGNGzYkNDQMDq070h0dBe6du1G//4D6dChk9Hx3UJmZjoJCds4fDilxjkOCgoiJCRU5lgDH6BKa+OiQs1NhRDCrVRVVfHjjztZ9vkiNmxYS3b2Sc19tWndlqHD4nlg/CP07t1HdUMXj1FVVcWuXQm/zvGpU9ma+2rbph1Dh8Uz/v6HufXWvjV+zmKx/XJXLcK1/7fj8QXA4cMpfDL/Q44fPwZA27btmDhhMjExsQYnqy4lJZkFC+f9mrVdu/ZMeOJpySqEgUpLS1j4n38zb94cjh7N1L3/jh0jmTx5Go899iQN1LZ2dVulpSUsWPgx8+bN4dixLN3779Qpiqefnsrjj02qtoW9FAAauXIBkJi4h4cfGUN29olr/nlERGuWLF7JLbfc6uRk1dmyjq7xG0WrVq1ZvMhdsra5lLW3k5MJoa/y8nI++OA9Zr//DhcunHf4eM2aNecPf3iBZyY/S0BAgMPHcwXl5eXMnfsus99/h5ycCw4f71pzLAWARq5aAKxdu5rxD4yksrLyup/z9fVl0WcruOeeUU5KVp09WRcv+pIRI0Y6KVl13377DQ8+NKpOWZcs/pK77zYuqxAqduzYyh+fm8KRI6lOH7tTpyjeeWcOcYOHOn1sZ9q+fQvP/en3hs+xFAAauWIBkJN7gejoVpjN5jp93t/fRGrKccLDWzo4WXXulPXChXN07tLGLbIKoVV5eTkvv/xnPvxottFReOKJp3j7rdkEBgYaHUVXrjbHf585G19f951jlQLA414DnDTp0TovUgAVFRYmP/O4AxPVTEvWZ6Y84cBENZv0lP1Zp0yZ4MBEQujr6NFM4uL6uMTCBLBw4ccMHdqfEyeOGR1FN1lZGQyOu82l5jg+vj8nT3rOHNvD464AhDUJxGKp+0IFYDKZyM2xr40e3CtrABY7r5OZTAHk5pQ7KJEQ+jl06CD3jbqLX345bXSUalq0CGfVl2vp0eNGo6Mo2bc/kdGj4zl//pzRUapp3jycZUvXEhvrfnMsVwAuSU4+YPeCCmCxWEhK2ueARDVTyXrw4H4HJKrZwYP77V78ASwWMwcPJjkgkRD62blzO0OG9nfJxR/g7Nkz/C7+DnbtSjA6imY7dmwlPn6QSy7+AOfOnWHU6EHs3r3T6ChO5VEFwMFk7YvNwWQnL6oKWQ84eVFVGU/l5xTC0ZKTD3D/+HspKio0Osp1FRYWMHrMcKd/UdFDcvIBHnjwPoqLi4yOcl0FBfk8+FA8yU5eC4zkUQWAymYaPj7OnQqVrL6+zs2qMp5scCJc1bFjWdw7cigFBflGR6mToqJCxowdzomTx42OUmdZWRncc+8Qt5rjhx4eTna2+8yxCo8qAHp0137/pkf3G3RMUrvYbj00t+0e69ysKuOp/DsRwlHKy8t55JGxnDt31ugodjlz5hcefWSsXQ/kGqWsrIxHHx3nspf9a3LmzGkmPjlW0y1ad+NRBUBMTKymDTRMpgC6O3mhio3toSlrQEAAsbHaiwctVLJ269bdAYmEUDN9xh/Zn7TX6BiaJO7dwyuvvGh0jFq9OP2/SDrgfrcsAPbv38Nrr083OobDeVQBADBYw+YZcXHGbLgxaNAQu9vExQ1zQJLaacl6553GZBXierZs2cgnn3xodAwlH3z4L7Zv32J0jBpt3rKBBQvmGR1Dyccfv8cPP2w1OoZDedxrgAUF+XSKDKe8vG6vn5lMJg6nnqR58xYOTladvRsBuVfWANKOnKRp0+YOTiZE3ZnNZvr0vYG0tMNGR1HWtWs3dibsw2QyGR3lN8xmM7f16UF6+hGjoyjr3Lkbmza63hxfSeU1QI87Djg4OISlS1Yx7v57sFqt1/2sn58fS5d8ZciCCtAkrClLFq9i/AP3emDWVbL4C5czd+67ui/+wWFN6TNsBLfGxRPRIZKw5uGENGlGfs55cs/+wqmjGfy06Tt+XL+Gglz99rtPTT3Evz/5gCnP/EG3PvUwZ84/dV/8mzVsyN3R0cRHRREZFkZ4UBDNGjTgfGkpvxQVkZGby7fp6axJSyOntFS3cY8cOcR/Pv2QSU8+q1ufrsTjrgBclpS0j4ceHvXraXVXa9u2PUuXrOKGG25ycrLqkpL28eBDo2rc8atdu/YsW/qV059TuBZ3yirElUovltKtW3vdDvZp3SmaiTNm0j/+Pnz9/Gr9fKXVyo5vVzH/H3/lVFa6LhnCw1ty8EAW9erV06U/VaWlJcR0a6/bwT6dmzZl5uDBjOzSBb86vI1kraxkZUoKL23eTEZuri4ZwsMj2P1TJoGBrjHHV5OzAK4jMzOd+Qvm/XqMZ/t2HZgwcTJRkdEGJ6suPSONhQs/lqxCOMDcD95j+vQ/KvdjCgjkqVfe4p7Hn8Ffw6XhCouFrxfM4d+vTadChyfN//nOXCZNmqLcjx7mzH2XGTOeU+4n0N+ft4cM4ZlevfDX8BqyxWrl/d27mbFxI+ZarljWxZtvfMDjjz+j3I8jSAEghBC1uOnmzmRkpCn1ERzWlFfnr+SGvgOV8yTv3sl/TxhN3nm1VxEjI6PZt9f4++1VVVXccGPUr18KtGraoAErx41jYPv2ypl2njjBqOXLOVdSotRPVFRXEnakKOdxBNkKWAghrmPXrgTlxT+kaXPmrvtJl8UfILZ3P2av2UlIk2ZK/WRkpJG4d48umVT8+ONO5cW/RVAQuydN0mXxB+jXti07J06kaYMGSv2kp6eyP+lnXTK5EikAhBAe7/Pli5XamwIC+dvCVbRs11GnRDYR7Tvx6vyV+Jvs32fjSss/V/v59LDs80VK7QP9/Vl1//10CA3VKZFNZFgYK8eNw1SH5zSuZ+UKtZ/PFUkBIITweBvWr1Vq/9QrbxHbu59OaX6rR58BTHrpH0p9fL/+O53SaLdhg9ocvz1kCH3btNEpzW8NbN+ev8fFKfWxabPaz+eKpAAQQni0rKwMTmaf0Ny+dado7nHwA2AjJ06jVYdIze2zsjIMPSMgMzOd7OyTmttHN2nC5Ftu0TFRdc/eeiudwsI0t8/KSve4MwKkABBCeLSEhG1K7SfOmKnpaX97+JtMTJjxulIfqj+nkWP/PS5O+RJ9bQL8/Hht0CClPnbt2q5TGtcgBYAQwqOlph7S3LZxaBP6/W6kjmlqNuDuMTQObaK5/eHDxj2lrjLHTRs0YGSXLjqmqdmYmBhC69fX3D4tzTXfBNBKCgAhhEdT2ZWu71334OfvnA1Tff38uPXOeM3tjdx6V2Xsezp3rtMmP3ow+fkRHxWluX1GpvGvW+pJCgAhhEc7eixLc9tb47QvyFrcNmS45rZZWRk6JrGPyhyrLMhaDFcY7+hR4+bYEaQAEEJ4tPz8PM1tI9p30jFJ7TrGaD/qu7CwQMck9lGZY5UH87To0UL7eSpGzrEjSAEghPBoxcXFmts2CY/QMUkdxmuhfbzCwkIdk9inRGGOIxo10jGJY8crLjZujh1BCgAhhEcrK7uouW2jEOd+O63XoKHmthcv6ncKnt1jK8xxqJMPMmoYoH3TpVIdTxp0BVIACCE8Wv362reB1fP43rooK9W+Z73Kz6lKZeyci9qLBy1KzNoPYGqguKWwq5ECQAjh0YKCgjS3zTlzWscktbtw5pTmto0bN9YxiX1U5vh0UZGOSWp3SmG8oCDj5tgRpAAQQni04OAQzW1PH1M73MZeWSkHNLdV+TlVqYydmZurY5LaHTir/fRFI+fYEaQAEEJ4tA4dtD/J/9Mm5+6xv+v71ZrbduyofSthVR0V5vi79HQdk9Ru9RHt7/J3UNiu2RVJASCE8GjRUZ01t931/WqsFRU6pqlZhcXCboUDZ6IUfk5VKmOvTkujorJSxzQ1s1itrMvQ/i5/ZCfj5tgRpAAQQni0mJhYzW2L8nPZ8e2XOqap2bbVKyhSeJ++a9duOqaxj8oc55SWsio1Vcc0NVt+6BD5ZWWa23fubNwcO4IUAEIIj9av3wCl9v9+fQYVFu1PjtdFhcXMf958RamP2/vfoVMa+6nO8YyNGzFbrTqluTaz1cqrW7Yo9dGn70Cd0rgGKQCEEB6tQ4dOtG3bXnP7MyeO8vX8OTomqu7Lee8pPXAYGRlNq1atdUxkn44dI2nbpp3m9ll5eczdvVvHRNX9c9cusvK0X2GJ7NSZiJbGzbEjSAEghPB4Q4f+Tqn9v1+fTtIPjjlud//OLSx44yWlPoYNde6ZBdcyRHGOp2/cyPbjx3VK81ubsrJ4efNmpT7iFA5qclVSAAghPN4D4x9Ral9hsfC3iWM4pfNhMNmZafxt4lgqLBalfu4f/7BOibRTnWOz1cqYL74gQ+fXAo9cuMC4FSuUHzQcM8b4OdabFABCCI/Xq9dtdOqkdupcQe4FpsX30e1KwP6dW5g2vC+FeTlK/XTpEsNNN/bUJZOK3r37KL+KeL6khD6ffKLblYBNWVn0nT+fXMXdBjt37kaP7jfrksmVeHwBcPhwCs+/MI2x40YwdtwI/vT8VFJSko2OdU0pKcm/yfr8C9MkqxA68PHxYfLkacr9FORe4M/jhvDFB7M0PxhYYTGzfM5bvHj/MOXFH2Dy0+o/lx70muMLpaUM+ewz3vnhB80PBpZXVPBGQgJ3LV6svPgDPDnRNeZYbz5AldbGRYWamzpcYuIeHn5kDNnZJ6755xERrVmyeCW33HKrk5NVZ8s6muzsk9f881atWrN4kbtkbXMpa28nJxPi+i5evEhs9w6cO6d9J7grtWzXkQkzXmfgiLH4+fvX+vkKi4Vtq1ew4B8vcebEUV0yRES04kBSJoGBgbr0p6r0YimxsR04f/6cLv11Cgvj9cGDGRMTg79v7d9XLVYrXxw6xEubN3MsP1+XDBEtW/PTTxkEBLjGHF+tRbiP5rYeWQCsXbua8Q+MpLKWez6+vr4s+mwF99wzyknJqrMn6+JFXzJixEgnJavu22+/4cGHRtUp65LFX3L33cZlFeJaZr//Dn/96/O69tkoJJTecfH0GXo3HWN6ENa8JUHBIRQX5JNz9jRZKQf4cf0aftr0HcUF+ixKl82a9T5PPzVV1z5V/Wv2LF566QVd+wytX5/hUVEMj46mR4sWtAwKIqRePfLLyjhdVMSBs2dZnZbG2vR0pff8r+Uf/5jDhCd+r2ufepIC4Ao5uReIjm6FuY4nPvn7m0hNOU54eEsHJ6vOnbJeuHCOzl3auEVWIWpiNpvp2+9GjhxxzsYzjhQTE0vCjr2YTCajo/yGJ81x167d2bhhL/51uMJjFJUCwOOeAZg06dE6L1IAFRUWJj/zuAMT1UxL1memPOHARDWb9JT9WadMmeDARELYLyAggH+99xE+Ptr/0nQFPj4+vDNrjsst/uBZc/z2Wx+59OKvyuMKgK1bN9ndZvt2td2htNKSdds2tXdZtdIy7laDsgpxPf36DXCZB+e0evbZ5+nf33V3pevXbwBPTXLdy+Z18fspL9CrV1+jYziURxUAyckHsGh4MtdisZCUtM8BiWqmkvXgwf0OSFSzgwf3Y9HwnrLFYubgwSQHJBJCzcyZs+jdu4/RMTTp2bM3r7z8utExajVz5iyXeD1Ri5tvvpXp018zOobDeVQBcDBZ+2JzMNnJi6pC1gNOXlRVxlP5OYVwFJPJxMIFS93uGZVWrVqzZPGXBAQEGB2lVoGBgSxatMLt5jgiog3z56/EZHL9OVblUQWAyj0nHx/nToVKVt86vA6jJ5Xx3P0+oPBcbdu255uv1xMSEmp0lDpp3DiYlSu+NXTPf3u1a9eBr7/63q3meMniNR63539NPKoA6NH9RoW2N+iYpHax3Xpobts91rlZVcZT+XcihKPFxMSy4ovVBAeHGB3lukJCQvn6q3XExmr/e8Mo3bp154vl/0vjxsFGR7mukJAwln/+PTEx7jfHWnnca4BNmgba9bQ6gMkUQG5OuYMS1UxL1oCAAHIuSFYh9JSaeoj7Rt3FqVPZRkepJjy8Jau+XEt3J39J0Vtq6iFG3jeM06dPGR2lmhYtWvL5snVuufjLa4BXGDx4qN1t4uLsb6OHQYOG2N0mLm6YA5LUTkvWO+80JqsQ9uratRvr1yfQs6dr7WDZu3cftm7Z7faLP9jmeMP6BHre3MvoKL/Ru3df1q3b7ZaLvyqPuwJQUJBPp8hwysvr9s3TZDJxOPUkzZu3cHCy6uzdCMi9sgaQduQkTZs2d3AyIfRjNpt55ZUX+eDDf1FVZdzfbz4+Pjw77U+8+urfXfJdfxVms5mXX/4zH3402/g5fvZ5/jJjJuC+cyxXAK4QHBzC0iWr8PPzq/Wzfn5+LF3ylSELKkCTsKYsWeypWVfJ4i/cTkBAAG+88S7r1m6jW7fuhmSIje3B+u938Prrb3vc4g+2OX7zzfdYt3YbMTGxhmT4dY5fe8sj57iuPK4AABg6NJ5tW/fQrl37Gj/Ttm17tm3dw113DXdisuruums427buoW3bmrO2a9eeHdt/lqxCOEnfvrezY3sib775ntNeY4uIaMWsWe+zY3sit93WzyljGqlv39tJ2LGXN95412lz3KpVa96ZNcdr5rg2HncL4GqZmenMXzCPo0czAWjfrgMTJk4mKjLa4GTVpWeksXDhx5JVCBdSVlbGokUL+Gje+6SlHda9/y5dYpj89DQefvgJlznVz9nKysr47LP5zPt4jsPm+JnJz/LQQ49Xm2OLxfbLXclhQEII4QSJe/ew/PPFrN+wlszMdM39REZGM2xoPPePf9htd8tzlMTE3Xx+aY6zsjI091PXOZYCQCMpAIQQ3upk9gkSEraRmnqI9PQjZGSkUVxcRHFxMfn5eYSEhBIUFESjRo2JjIwmMjKarl27MeD2QW61mY+RTmafYMeOraSmHiIjI61OcxwTE8vt/e+o8xxLAaCRFABCCCHcmTcXAB75EKAQQgghrk8KACGEEMILSQEghBBCeCEpAIQQQggvJAWAEEII4YWkABBCCCG8kBQAQgghhBeSAkAIIYTwQlIACCGEEF7IF6jbAe/XUNez4YUQQghX5M772ZrN5SrNy32BIq2ti4oKVQYXQgghjOXGFUBhYYFK8yJfoFhr6+MnjqkMLoQQQhjLjQuAEyeOqjQv9AXOaW2dcuigyuBCCCGEoSrduABITVVag8/7AmlaWyckbFMZXAghhDBUZaXRCbRL2LlFpXmaL3BEa+u169ZQXq70EIIQQghhCHde/C0WM1u2fK/SxRFfQPM1hNzcHNatW6MSQAghhDBEpdXoBNqtXfcNeXk5Kl0k+wBhwHk07gnQs2dvtm75SSWEEEII4XRl5e5bBAwb1ov9ST9rbW4FmvkCuUCS1l4SE3fz9dcrtTYXQgghnK6qyn0X/6++Wqay+APsA/Iuf+tfr9LTi9P/i7y8XJUuhBBCCKepcNPFPzf3Aq/+959Uu1kP/3/Zf4lKT6dPn+Kppx+j0p2fqBBCCOEVqqqgwmJ0CvtZrVamTn2Us2d/Ue1qCYDfpX84B9wLtNTaW0ZGGnm5uQwdGq8aTAghhHAYawVY3fAKwIy/TOWrr5apdpMIzIT/LwAA/AGl1TsxcTfnz59jyJ134esr5wwJIYRwLVVV4G7H2FitVl6cPoVPP/1Ij+5mAnsAfK74zXpAFgpXAS4bMGAQC+YvpUWLcNWuhBBCCN2Um21XANxFTs55fj/1EdV3/i87C3QALsJvrwBUXPrnIaojHD9+jKXLPqNJWBO6d78BuYU5qQAACHRJREFUHx+f2hsJIYQQDmStAIub3Pu3Wq0sW7aAxx6/T3XL3yv9Ddh++R+uXpmDgFSgtV6jRUV1ZtrU5xg9+n4aNw7Wq1shhBCizioroazM6BS1KyjI55tvlvPRvH+Smal5p/5rOQHEACWXf+NaX81HA7q/2F+vXj369R1Av34D6Nq1G61atyE0JFTvYQwTHBxCaGiY0THqLD8/j/z8PKNjCCGEw1VVgbncNQ/+yS/I41T2CdLSUvhh1zZ+/HEH5eUOqVRGAV9d+Rs1XZv/DvidIxJ4sgb1G3DHoDuZNGkKd8YNMzpONRs3fc8nn3zIli0bKS0tqb2BEEIIT/AdMPzq36ypAGgJ7AeaOzKRJ3tg/CPMnTsfk8lkdBQsFgtTpz7J0mWfGR1FCCGEc50FbgTOXP0HftU/C0Axtu2BH6LmIkFcR3LyAU6ePM6IEfcZHYXfT32SpUs/NTqGEEII56oE7qOGQ/9qKgDA9kqgGbjTAaG8wsHkJHr27E1kpyjDMmzYuI6XXnrBsPGFEEIY5kVgcU1/WNtuPW8As3WN42XmzPmnseO/b+z4QgghDPEe8Pb1PlCXy/u+wELgUT0SeRuTycTJE7k0bBjk9LFLS0to0zYMs7tteyWEEELFf4CJ2G4B1Kgu+/VWAo8Db+kQyutYLBYyMtINGTszM0MWfyGE8C6zqcPiD7b9/+uiCtu9hPPYbgtc79kBcZUdO/ZixGnJqan7nT+oEEIII1QAfwberWuDuhYAl83CdojAUiDCzrZe6/zZYlI46vxxzxc7fUwhhBBOdwp4ANhhTyMtR/ZtA27CAbsFeqLAwPo0a2ZMrdSkSTj1AusbMrYQQgin+ALbmmzX4g/aCgCAc8BYbLsFZmjswyvEdO2Fr68xd0x8ff3o2rWXIWMLIYRwqHRgGHA/ttvzdtNaAFy2DogFnsa2b4C4gp+fP3cMGGlohjsG3oefn713eoQQQrioTGAStrV3vUpHenw1tQKJwAfAEaAxtvOGvX4HwbvjHyMmprehGYKCgqlXrwFH0vYZmkMIIYRmVmAj8DIwBfj50u8pcdQi3QoYBwwBbsd2zLDXCAysz93xj9G71xCjo/xq954NrPnuU8rLLxodRQghRO2Kge3ABmz3+U/rPYAzvqWbgJ5ANyD60q8wbEVByKXPtEfj7YjQkGb4+KreyVBn8jcRHNyUyMge3HzjQBo1Cqm9kZMVFeWzb/820jMOUFCYg8UiewQIIexTVVVlezHcy1VWVVJQcEFzc+DYpf+fj22xzwXSsF1JT8H2Lb9CMeZ1ucpl+pNAay0Nn/vDe7Ro0UbnOEIIIa6lvNxMhcWh65JbOHfuJB998hetzU8CbXWMo4nxX51tzmptmJPzi545hBBCXEdVVa0bzHmF3DzNyxZc42heI7hKAaB5Mk5kG7PNrhBCeKMqq1z/B8g+pfQGvEt8c3WVAiBTa8P09CQ9cwghhKhBVVUVlVVSAAAcPXZIpbnmNU9PrlIAaH5H7dTpLHJzlS7FCCGEqIPKSrn8D7bL/7+cOVb7B2vmEu9lu0oBsFdrw6qqKnb99L2eWYQQQlyDtUL51XOP8HPiRtUuEvXIocpVCoAUIE9r492711NUpLm5EEKIWlRVSQEAUFScx979W1W6yMH2qp/hXKUAqAA0f40vK7/Imu/+o2McIYQQV6qstMr9f+D7DUswm8tUuvgOHXbx04OrFAAAa1Qa709KIE0eCBRCCIeQd/8hI+sAKak/qXbzrR5Z9OBKBcC3QKlKB8tXzCYn1yVerxRCCI9RWVVJhZdf/s/NO8s3q+epdlOM7QqAS3ClAiAfWK7SQXFxPp8s+B+KivJ1iiSEEMJSbjE6gqFKS4tYunwWJSWFql0tBYp0iKQLYw6qr9kv2I451OzixRLSM5LoHH0T9es31CmWEEJ4J6u1EovFewuA/PzzLF3+Nhcu6HIWz1O4yCZA4HoFwCngDmyHA2lWXFzA3n3bCA9vS9OmEfokE0IIL1NVBeVl5bYDgLxQWvo+lix/W+XQnyttAt7UoyO9uFoBAJABTFDtxFJhJulAAoVFeUS07EC9eg10iCaEEN7DbDZjtXrfvf/Cwhw2bPqcDZs/p6JCl1NTq4AHsX3JdRmuchrg1dYAw/XqzN/fxG29h9K//whCQ5rp1a0QQngsi6UCc7l3HRmeX3CBH3evJXHvZqxWXd96+Bq4T88O9eCqBUBH4CCg69d2Hx8f2rSOIiqyB23aRNGsWSsaNmxM/XryrIAQQlxmrbBSVlZudAyHKisrpaS0kJzcXzh1KpOso8mcOp2F7cu6roqBWOC43h2rctUCAOA54B2jQwghhBAKpgFzjA5xLa5cAPhhe2hioNFBhBBCCA02A0MAlzxFyZULAIAWwM9Aa6ODCCGEEHY4CfQEzhsdpCautBHQtZwFxgJKGy8LIYQQTnQRGI0LL/7g+gUAwI/AvYBnP5EihBDCE1iwfXHdY3SQ2rjiPgDXkgmkAaNwj6JFCCGE97ECDwDfGB2kLlz9GYCrDQNWAI2MDiKEEEJcoQTb4r/a6CB15W4FAEAvbBPcwuggQgghBLb9/UcAiUYHsYc7Xk7fA/QA1hodRAghhNfbBNyCmy3+4D7PAFytBFh26X/7AyZj4wghhPAyF4EZwBRc6Ihfe7hrAQC2/Rp/AD4FmgE3GBtHCCGEl1iD7ZL/d0YHUeGOtwCulg08CgzGdilGCCGEcIQN2I6sHwEcNTiLMnd8CLA2vYA/ACMBOeVHCCGEihJsp/m9ixve578eTywALgvCVgSMAgYATYyNI4QQwk3kANuAVdgW/xJj4ziGJxcAV/LFdhxjHyAa6Ax0wlYkBAEhxkUTQghhgDxsC3sxkIFts7k0YBe24+h1PxfY1fwffdhoJnylsE8AAAAASUVORK5CYII=;" vertex="1" parent="PDZQ3TdTwW282XvhMDcU-1">
                    <mxGeometry x="85" y="250" width="50" height="50" as="geometry"/>
                </mxCell>
                <mxCell id="PDZQ3TdTwW282XvhMDcU-9" style="edgeStyle=none;html=1;" edge="1" parent="PDZQ3TdTwW282XvhMDcU-1" source="PDZQ3TdTwW282XvhMDcU-8" target="PDZQ3TdTwW282XvhMDcU-6">
                    <mxGeometry relative="1" as="geometry"/>
                </mxCell>
                <mxCell id="PDZQ3TdTwW282XvhMDcU-8" value="" style="shape=image;verticalLabelPosition=bottom;labelBackgroundColor=#ffffff;verticalAlign=top;aspect=fixed;imageAspect=0;image=data:image/png,iVBORw0KGgoAAAANSUhEUgAAAgAAAAIACAYAAAD0eNT6AAAAAXNSR0IArs4c6QAAIABJREFUeJzs3Xl8XHW9//HXLMlM9rbZ0zRJ0zZNuqf7Di0FSimgIAoiily3qyiiXq7c+xP368JVUa+IO6K4IFRkLVAKpRS6722WNvueTNbJ7NvvjzNJkzZt08nMnJnk83w85nFOzplzzida8n2f7fvVIIQINg2QACQByf5P0pBpLBAD6C8yvdS6K51e7jsawA14hkw9Iyy72PRKvusG7IDF/7EOmbdcZrkV8F3J/wlCiEvTqF2AEBEknos32smXWTd0PhHQhrn2icDKlYWGPsAEdPinAx9LuAsXIhJJABDjjR5IB7L8n0z/NANI4dKNt06FekX42RgeCM4PCCMtc6tSqRAhJAFARAMtkMa5xnxow37+sjTk37UIvh4uHRDO/7kHuWUhIpz8oRRqmsLIjfj5y9KRs3MRXdxAJ5cODB1APdCAcgtDiLCSACBCJQOYMeQzjQsb+BjVqhMisphQwsDAp+68n9uQKwoiyCQAiEDpgDyGN/JDP4nqlSbEuOMAGrkwGNQDtf6PS7XqRFSSACAuJR4oZOQGPh85gxciUriBGqDyvE8F0IxcPRAjkAAg0rj4WXy2inUJIYLDApzhwnBQCXSrWJdQmQSAiSMJuAWYx/BGPlnNooQQqjKhXCU4PxicRem0SYxjEgDGvwXAV4H3AXEq1yKEiA5elBBwdMjnCNCqZlEiuCQAjG/rgBeRs3whRHC0cWEoOIMSGESUkQAwfq0BXkfO+oUQoWUFjjM8FJxA6XFRRDAJAOPXbmCt2kUIISYkD8qzBAOBYCAcdKhZlBhOAsD4tBrYo3YRQghxnmaUIPAe8BawH3CqWtEEple7ABESt6tdwESn1emIi0/AGJ9AXEICxrh44hISMcbFExsXh16nR6fXo9Xp0On16HR6dP55rU6HXj+w3r9OP3y9TqdHP2z7c/vRnvf98/et059bDxq8Hg9erxevx43X68Xj8eD1epTlHq9/vce//Nz3hi0f8r2B/XmGfs/jweNx47TbcdjtOOw2/7xt8DOwzmm34XDYcdrOrXM5pY0YJ3L8ny3+n20oYWAXSiDYh9LpkQgDCQDjU4LaBUQjjUaLMT7e32D7G+74BGVZfKJ/OnT5heuM/m1jDQa1f51R0+n1/oEWYlWu5OJ8Pu+QgDBScLAp6xx2HDYbdpuF/t4ezD09mHt7MPd209/bg6WvF69XnleLIHHARv8HlFcP96IEgl0o4UBeRwwRuQUQPBpgEUq6TQIMwBso3XeG25PA3SocNyLo9TEkT5lCyuRUkqekkjIldXA+PiFx2Fm5MSGRuLh4jAkJGIzyvOR45/N5sZjN/nDQjbm3R5n3B4Thy5SPwybj9KjIgXKb4C2UQPAu8nBh0EgAGJs04Hpgs3+aft56H/AO8AjwQqiKePrdd+P6bbElPo1vngbt3D888s3bdr/y/IxQHU8NWp2O5ElTSJmSSvLkKaRMSfNPU0me7G/k/esSkuStRxE8LqfzXDjo6xkWFMw93fSft6y/rxevx6N22eOVEzjA8EBgUbWiKCYB4MrogOUoDf4NwBKUseovxwt8HnhsrAX84c39WXh1y9D4lnl9zNdomIfSX/9gHU211Xzt3g+O9VAhp9FoSZo06dyZ+uQpJE9J85+xT/EvUxr2hOQUNBr55yoin8/nw9pvHryK0N/bQ19PF3093fR2d2Pu6aLb1EFXeys9HW143G61S45mLuAg5wLBHqBf1YqiiPxFvbwslAZ/M3Atyhj2gboP+MVov/yr1w+mGHTapR6fd5lG41sGmuVA7mi2/dZn7qa2sizQOoMiISmZjJxcMqbmkp6TS3p2LpPT0v1n62kkpkxCqx1NfhJifHK6XXR2tNPe3ERHazOm1ha621vobm+jp0P5uF0yyN8VcANvA88B/0IZLVFchASAC+lRXqMbOMtfSPD+d+oCCgDz+Sv+8OabRq8npVSj9S7D51uGRrMMKAr02PVnKvjBlz6NzRK6MKzRaJmSnkG6v5HPyFEa+oycXNKzpxKfmBSyYwsxXrk9HlweD26PB4fLRXenie72VrrbW+npaB+c7+5oo6e9DbdL3pC4hMMoYeCfwEmVa4k4EgAUGpROcz6M8gpdagiP9ZDP5/vBE28fmuf1+pZrfCzHp1mGhvkE+a2MyhNH+PGD9+F0BP5WTazBQFrW1HON+5CGPi0rG71eRgQWIpR8Ph8ujwen243L7cbp8eDznRvdt7+nezAQdPtvK3S3t9HjX+Yaw3//40wVShh4DuXZgQn/OshEDwCLUBr9O4Bp4ThgZm5ez/ee3OZlbLcSRq2lrobtT/+J915/Bbd75EuJiSmTSM9WGvmBT7q/oU+Zkib33oWIMC6PRwkDbjcujwfPJV5t7O/twdTUQFt9LW31NbQ11NJWX4vV3BfGiiNOO/A88BTKswO+S399fJqIf9lnAHeiNPwl4T54Zm4e33tyW7gPS29XJzUVp3DYlI5W4hISBxv6uHjpNkCIaObxegfDgNPtxj2KtxD6e7qVUNAwEAzqaK+vxW6dcA/V16K8Ov0kylWCCWOiBIAs4IMojf4KNQtJmZLKT555Vc0ShBDjnNfrxeF243C7cbpceH2jP8HtNXUMCwVtdTW0N9ZNlFsJ7wBPAP8Axv0lkvEcAPTAB4B7UXqZ0qlbjqKgqISHH/+T2mUIISYQl/+BQof/OYIr5fP56G5vVUJBfR1t9TW0N9TR0VQ/Xt9SsKE8OPhHYAfj9HmB8RgAJgGfQnnvflSvzIXTHZ/9Etd94MNqlyGEmKC8Ph9OtxuHy4XT7b7k8wOX3ZfXS1dLE631tbTUnKW+4jQNZ8px2sdVZ31NwC+Bx4FOlWsJqvEUAGYC9wMfJ0L7wtfp9fzv314iZUooXzIQQojRc3s8ONxu7C5XQFcHzuf1emmtq6a+4jT15aeoqzhFd1trECpVnRXlisBPgDMq1xIU4yEAXAU8ANzE6HrlU80nHvoWq6/dcvkvCiGECjxeL3aXK2hhYIC5p8sfCE5TV3GK5qrKaL514EPp2v1HKJ0ORa1oDQAxwIdQGv7FKtcyKrd94nPc+OGPq12GEEKMymAYcDpxBXlsA4/bTXP1GerKT1FfcYq68lOYu7uCeowwOQj8GOWhwajr0znaAoAe+AzwEMqoexFvzpLl3Hz3JyhaEBU5RQghLhDKMDCgu71VuUpQcZq68lO01lVH06BKDcD3gF8DUVN0NAWAG1AuuYT93f0rodFomDaziPnLVrNk3QYKZs9RuyQhhAgaj9eLzenE5nSO6QHCy3Ha7TSeraCu7CQVh/fRUFk2rAfECHUK+DIQFe96R0MAKEG5xLJZ7UIuJjFlEvOWrmTe8tXMW7qS5Mlh6eRPCCFU5XC5sDqdOMJwP9/S10vFwb2UHXyPM0cPRfqbBi+jBIFytQu5lEgOAKnAN1Au+Qe1j/yx0up0zCiZx7zlq5m/bBX5RcVoNBH9/KEQQoSMx+vF6nRicziuqNOhQLldLqpPHqX8wHuUHXyPXlNHyI8ZADfKEPDfRBkILuJEYgCIAT4HPAxMVrmWQSmpaSxcuZb5y1YzZ8ly4hIS1S5JCCEijt3lwupw4AziWwSX01JTRdnB9yg/8B5NVZWRdqugCyUEPEaEPSgYaQFgDfB7lGFwVZc8eQpLr9rE8qs3MWv+IjnLF0KIUXJ7PINXBcLZHJu7uyj33yqoOnYYlzNiujA+jNIlfcSMNxBJAeCLwCOofLk/adJklqzbyPIN1zJ74WJp9IUQYgw8Xi/9djs2pzPsx3Y5HVQdP0LZgXcpP7g3El417AM+CTytdiEQGQEgEfgdSjJSp4DkFJas28iyq6+luHQpWq00+kIIEUxufxCwqxAEQBnPoKmqkqO7dnBk1w5s/WZV6vB7HKUfG7uaRagdAIqBbajwap9eH8OS9RtZc/1W5ixejlYXEWMFCSHEuOb2eDDb7WF5c+CiNbhcnN6/h0NvbOfssUNqPTNwDOXEt1KNg4O6AeB2lPv9YX2aLi0rh6u2vp91W24heZK8rieEEGpweTyYbbawPiw4kh5TO4fe2M7hN1+juz3sYxb0o7zp9lS4DwzqBAA98EOUyx9hodFomb98FRtvuZ35K1bLfX0hhIgQNqeTPptN9Sf3fT4fVSeOcHDHK5ze9064xyr4L5SeBMNKjQDwW+DfwnGgpEmTWXfDzVy99TbSsqOi52AhhJhwPF4vfVYrDpWvBgyw9ZvZ/9pL7HnhGfp7e8J12PuAX4TrYBD+APD/gG+H+iAZU6dx00f+jRUbr0MfExvqwwkhhAgCq9OJOQKuBgxwOR0c3PEKu597mh5Te6gP5wPuAZ4M9YEGhDMA3E2If7HUjCxuuvsTrN18kzzUJ4QQUcjj9dJrtar+bMBQHo+bY7veYNc//0ZHU0NID4XyfNw/Q3mQAeEKABuB7Si9/AVdSmoaW++6l6u2vh+9PiSHEEIIEUb9djv9dlXfkruAz+fj1N53eOvZv9BcfSZUh3ECNwGvheoAA8IRAOYCe4CUYO84MWUSW+78GBtv+SCxBkOwdy+EEEJFVoeDPlvkDfrj8/k48tbrbH/y16F6RsAKrEPpPTBkQh0AUlF+gbxg7lSr03HDhz7KjR/+OMb4+GDuWgghRASxOZ30Wq1qlzEiu6WfV5/6HftffTEUzy3sBVYFe6dDhfpG+deBG4O5w6nTZ/DF/3mU1dduQR8jl/uFEGI8i9Hp0Ot02FXsOOhi9LGxFC9ZSfHSlbTUnKWvqzOYu89F6SToZDB3OlQorwCkATUEqaMfrU7HjXfew00f/YTc5xdCiAnG4XLRY7GEdWChK+Hz+dj7yr94+YnH8QTvAcZ6lB5zQ3IfJJRXAB5GefhvzLLzCvjSD37Oyk03oNXK0/1CCDHR6HU6tBpNxPQVcD6NRsO0WcUULVrKmaMHsVstwdhtCsp4AW8HY2fnC9UVgKCd/RcvWsJ93/pf4hOTxl6VEEKIqNZpNuPyeNQu45Isfb38/Sf/w9ljh4Kxu36gCGgJxs6GCtXpdFDO/lduuoHPfuMHGIxxQShJCCFEtIvR61UZWvhKxBqMLLpqEw6rlYbKsjHvDuVk+sWxVzZcKAJACvA3lKIDtvWue7nrCw+ikw59hBBC+Om0Wrw+X8RfBdBoNBSVLsPc3UlT1Zj7DCgEfgTBfQQiFK3rdcDHxrKDNZtv4q7P/wcajdqjFQshhIg0sXo9NpcrYroMvpTZS1bS0VRPe0PdWHYTB7wJ1AanKkUohsVbP5aNp06fwd33/2ewahFCCDHOaDQa4mOjY5wXjUbDB+9/iKz8wrHuamsw6hkqFAFgbaAbGoxxfPbrPyDWYAxmPUIIIcYZQxT1A6PT67ntvq+g1Y6pyZ0XrHoGhCIAFAS64fKN15GdF/DmQgghJogY/2uB0WLqjCIWXX3tWHaRH6xaBoQiAKQGuuGiVWO6eyCEEGIC0Y3tjDrsipesHMvmER8AUghwxD+dXs+cJcuDXI4QQojxaoyX1MNu5oLSsdQcB0wKYjlBDwABv7Dv83pxR2Bfz0IIIUQwuFxOvF6v2mUMipj45PV6OXVwr9plCCGEiBKeCGpMR6Pq+BG1SxgmYgIAwKG3d6pdghBCiCgRSWfTo3Fizy61SxgmogLAgV07OPpuSMY8EEIIMY443W68UdAR0IDje96i7MC7apcxTEQFAIDfP/ItejtNapchhBAigjmi6Jkxc3cX//rVT9Uu4wIRFwD6e3v4zfcfDuZ4ykIIIcYRj9eLNcIHBBrgdjn5x0+/j63frHYpF4i4AABw+tB+fvLQF7BbrWqXIoQQIsKYbbaoGAfAbunn9994kLPHD6tdyogiMgCAEgK+/8An6e3qVLsUIYQQEcLhcmGPgsv/fV0mfvXfX6S27KTapVxUxAYAgPozFXz38x+nrbFe7VKEEEKozOfz0WezqV3GZbU31vP4V79AW31QB+8LumB3pJwFtAR5nyQkJfPh+77Cqmu3BHvXQgghooTZZsPicKhdxkX5fD72v/Yir/zx1zjtIQkqk4GeYO0sKgLAgPnLV/PRL/0XqRlZoTqEEEKICGRxODBH8Nl/d1sr2x77EVUnQtrZz8QNAACGuHg+8Mn72HjL7WiiaCQoIYQQgem32+m329UuY0Q+n499259n+59+gzP0NU7sADBg5twFfPwrXyM7f3o4DieEEEIFkXzZv7OliW2P/YiaU8fDdUgJAAN0ej1rrt/K1rvuJS0rJ1yHFUIIEQZ9NhvWCGz8ezraePOZpzi88zU8nrD2WSMB4Hw6vZ6119/E1o/cS2pmdrgPL4QQIogGnva3RVhnP72mDt569i8cfOMVtTqrkwBwMTq9nrWbb2brXR+XICCEEFHI6XbTa7VG1Eh/fV0m3nr2rxzc8bLaw9ZLALgcnV7Puhtu5sa77pU3BoQQIgr4fD767faIut9v7u5i17a/sv+1l3C7IuJqhASA0dLp9ZSuuYqrtt7KnMXL5a0BIYSIQC7/Wb87As76fT4fVccPc+D1lzm9b0+47/FfjgSAQKRnT2X9je9j7eabSZmSqnY5Qggx4flQXvGzRMArfubuLg7t3M6BHS/T3daqdjkXIwFgLLQ6HaWrr+Kqre9n7tIVaDQR3RuyEEKMSzank367XdV7/T6fj8oj+znw+suUH9yL1+NRrZZRkgAQLGlZOazf8j7W3nATk1LT1S5HCCHGPbvLRb/Npurl/l5TBwffeIWDb7xCr6lDtToCIAEg2LQ6HfOWrWLp+o0sWn0VickpapckhBDjit3lot9ux63SWXZfVyen9+/h1N7dVJ84GhXDCY9gfAYAfUwMOq0Wh8pPgGq1WooWLGbxug0sWbuByekZqtYjhBDRzOFv+F0qNPxdrc2c2vcOp/a+Q0NlmeqNvsFoxO1y4Qn8f4vxGQDS0jP4+79e5MH77+PQgf1BLiswGo2GgqISlqzfyOJ1G8nKzVO7JCGEiAp2lwuLw4ErzB3mtNbVcGrvbk7tfYfWuuqwHvtSFixeyoPf+A6f/vDtWPrNge5m/AaAA6cq8Hq9/OXJJ3jku9+ir7c3yOWNTU5+IUvWbWDxug3kzypWuxwhhIgoHq8Xm9OJ1eHAG6azbZ/PR+OZck7u3c3pfXvobGkKy3FHKyklhU/f/2W2vO82NBoNW9etkABwvoEAMKCr08QPvv1N/vHXp1S/bDOS1MxsFq+9mrlLVlC0YDHG+Hi1SxJCCFU4XC6sTieOMPWSZzX3UXPqOGePH6Js/7v0dXWG5bhXQqPRsPmW9/OpL3yJSZOnDC6XADCC8wPAgFMnjvP9b32Dd3a9OdbaQkar1VIwew7Fi5ZSUrqUmfMWYjDGqV2WEEKEjNfnGzzbD/WrfA6rlZrTx6k6cYTqk0dpra2OyBPDAUtXruZT93+ZWcUlF6yTADCCiwWAAW/ueJ1Hvvstyk6dDLS2sNHp9RQWz6V40VKKS5cyc+5CYmJj1S5LCCHGzOFyYXe5sDudhKoJdtrt1JWfpPrEUapOHqW5qhJvBPQSeDlFJXP5xH33s2z12ot+RwLACC4XAEC517P9xed59Iffp7KiPJDDqEIfE8uMOfMoKV1GcelSCkvmodfHqF2WEEKMykCj73C5QnJv3+1yUl9xWmnwTxyh8UxFpHXBe0mFs2bz8X+/j7UbrrnsdyUAjGA0AWCAz+fj9e0v88ufPsrRwwcDOZyqYg0GZs5bSPGipRQtKKWgaA6xBoPaZQkhxCCn243Nf18/2I2+y+GgsaqC2lMnqDpxhPqK05Ey2M4VKZm/gI/826dZtf7qUY81IwFgBFcSAIZ6753d/PaX/8ebO16P6HtCl6LT68mbOZuZcxdQWDKP/FnFZObmyeBFQoiwcrrd2J1O7EFs9H0+H6bmRpqqKmmoLKO+4jQttVXR0O3uiDQaDSvWrueDd99D6bIVV7y9BIARBBoABlSfPcMffv04257+G1arNeD9RApjfDx5M4spKComf1YxBUUlZOXly9gFQoig8fp8ON1uHEG6vO/1euloqqe5+gxNVWdorqqkuaYKp90WpIrVE5+QwLU33sxtd36EaQXTA96PBIARjDUADOg3m3nu2X/wlz/+ISoeGLwSBmMceTOLyC8qoaCohPyiErLzCtBqJRQIIUbH5fHgcLlwut04x9BJj9fjob2xnuaqSpqqz9BUfYaWmrO4VO7NNdhmzi7m5g/cwaYtW4kLwuveEgBGEKwAMNShA/v525/+yMsv/AurxRLUfUeKWIORaTOKlCsF/qsF2XkF6GPkrQMhhHKW73C5cLjdOAM8y3e7nLQ31tNSfZYmf4PfWluNyzm+GvsB8QkJXH3tZm689QPMmb8wqPuWADCCUASAATabje0vPs+zf/sr7+3ZHRWvk4yFVqslPSeXnPzp5OQXKtOCQrLzCog1GNUuTwgRYk63e7DBv5I++J12Ox1N9bQ31tHeUEd7gzLf1doctc9YjZZGq2XJ8pVct/UW1l9zLQZjaP5WSgAYQSgDwFBtra288M9neX7bM5w4djTkx4skGo2G1KxsfygoZKo/GOTkT8cQJz0ZChGNfP77+C6PZ3B6ucbaYbMqDXyjv5H3z/d0tI37hv58s4pLuPq6zVy75WbSMzNDfjwJACMIVwAYqqbqLC/8cxsv/msbZyrCe+xIk5qRNRgGcvILycydRnp2LpPS0uVtBCEiiMfrxeV24/Q3+BcbXtfn89HXaaKrrQVTc+OQBr+O3s6OMFcdWQpnFbHhuhvYuHkLObnTwnpsCQAjUCMADHWmooLtLz7P9pde4PTJE6rVEWn0MbGkZWWTnj313CdnKmlZyjQuPkHtEoUY19z+ht7p8eByu4d1u2u3Wuhqa6GrtYXu9pYh8610t7fiCfNIfJGsqGQu6zZuYv2ma8krKFStDgkAI1A7AAzV1NjAju2vsOPV7ex7bw8uZ/R1UBEuickppJ0XDtL94SA1IwutTqd2iUJEDY/Xi8vjwe3x4PJ4sDvsdLe3KQ17Wyvdbf5G3v+xBd6QjHsxsbEsWrqcNVdtYNX6DWRkZaldEiABYESRFACGsvT3s3vXm+za+Qa7du6gpSmyhpqMZFqtlikZWUxOS2dSWgaT09KZnJbBpLT0wWWTUtOlF0QxIdlsNkxtLXR2tNPZ0UZ3Rzu9nSb6ukz0dpno6zTR19kx7h9aDqbM7ByWr1nL8tXrWLJiVVBe2ws2CQAjiNQAcL7KinJ2vbGDXTvf4MDe93CO09dgwikhKdkfCjKGhYVzyzJImjRZnkUQUcHn82Hu6abb1E63qZ0eUwed7W10mdrp7minp7OD3k6TnL0HQazBwMIly1i+ei3L16xV9dL+aEkAGEG0BICh7HY7+97dw+63dvLu7rcpP31qwj1BGy46vZ6UKakkpUwmISmZhKRk4pOSSUhKIj5RmSYkpRCflKSsT0wmPimJuIRECQ4iID6fD5ulH6vZjKW/D4u5T5k392Ixm7H29ylTs7LOYu7D3NNNb3en3HsPEa1WS8nceaxet551V2+gcPZcXFF2hUQCwAiiMQCcr7enh/1732Xfu3vYu+cdyk6dlMt3KtNotMQnJp4LDIlJ/uAw8BkIEMn+8JCiLEtKxhgXL+Ehyvl8Puw2q7+RVhpvpRHvG2zABxpvq7kPS/+5Bt3a34/PJ//9qkmr1TJ3/gJWrF7DilVrWLZyFSmTJg2u7+jqwWKLrm6GIykA6IO1IwEpkyZx7eYtXLt5C6AEgoP79nJg314O7nuP48eOygOFYebzeQf/wF8prVZLfGISCckpyvS8wDDSVYj4pGQMBiM6vR6dPga9Xi8PQgbI6/HgdrvxuF143G4cDvtgQz7S2ffQBt3ab8bS14u13ywhPIrExhpYsGgRS1esYtmKlSxdsZLklBS1yxq3JACEUMqkSVxz/WauuX4zAA6HgxNHj3Dk0EGOHTnM8SOHaaivU7lKcTFer5f+vl76+3rHtB+NRoNOp0en16OPiRmc18Xo0ev06GJilJ91w9cPzOuHrddfcr0uRgkdA/OD2wzd/5B5ALfLhcfjxuN2nzfvVub9y9zuc/NDv+t2KQ20Mu++zPpz23tcLtweNx6Xe/h6/7zcThv/puXls3DxEhYsKqV0yVIWlJYSGysPBYeLBIAwMhgMLPWn2gHdXZ0cO3KEY4cPcfzoYY4ePkxXp0nFKkWw+Xw+3G4XbrcLxzgYFU2IQKSmpbOwtJSFpUtYULqYhaWlTJ6SqnZZE5oEAJVNnpLK1dds4uprNg0ua2ps4NjhQ0owOHKIE8eOjtvBjIQQ409CYiLzFy5iYekSFpaWsqB0MVPD3OOeuDwJABFoau40puZOY8vN7wOUS9Fnz1QqVwmOHObY0SNUlp3GMc6G3RRCRB+j0UhRyRwWLir1X85fzIxZs2SY8iggASAKaLVaimYXUzS7mNvvvAtQQkF9bQ2VFeVUlpVRWVFGZXk51VVn5UFDIUTQxcYaKJw5k6LiYoqK5/inJUzLy5fGPkpJAIhSWq2WgsIZFBTO4Lobbhxc7nG7qamuprL8tBIOysupLD9NbU2NvJsshLgsnV5P4YwZzJpdopx4lJRQNLuEgsJCdPJGy7giAWCc0en1zCwqYmZREVuGLHc5nVSdPUNleTlnKsqoKCujsqKcxvo6PFcwXrgQYnzQ6XRMyy9gdnEJs4qLKZpdwuySEqYXziAmNlbt8kQYSACYIGJiYymeM5fiOXOHLXc5nTQ21FNbU0N9bQ21NdX+aQ0N9XVyO0GIKBYba2Bafh750wvJL5hOwfRC/3wBudPyBl8FFROTBIAJLiY2lukzZjJ9xswL1nm9Xlqam6irqaGupvqCkGC1WlWoWAgxVHxCwmDjnlcwnYLp0wcb/KycHLk/Ly5KAoC4KK1WO/hGwup16y9Y39HeTl3tQDioprG+jpbmZlqbm2ltaZa3FIQIAqPRSGZ2Dtk5OWSKyBJHAAAgAElEQVRl55BXUEB+wfTBM/m09Ay1SxRRSgKACFh6RgbpGRksXb5ixPXd3V3+MNBCa3MTra0tF/zc1zu2XvaEiGbJKSlkZSsNe3ZODlk5OWRlZZOVM5Ws7GyysnOYNHmy2mWKcUoCgAiZyZOnMHnyFErmzrvod6xWqxIGWlpobRkSDvw/m0wddJlMcjVBRBWDwUBqejqpaelkZWX7G/dzjXpWttLIx8XFqV2qmMAkAAhVxcfHUzhzFoUzZ13ye1aLRQkDnSa6TJ10dpro6jTRaeqk07+8s7OTLpOy3BZlI4SJyBYXF8eU1DSmpKWRlpamzKemkZqW6p+mk5qaypS0NFJT04hPSFC7ZCEuSwKAiArxCQnkJSSQl18wqu/bbDYlGJj8wWBIYOjt7cHc10e/uQ9zXx9mcx9msxlzXx9Wi0UGoRmnNBoN8QkJJCUnk5SURFJSMknJyST6pykpkwYb9Cmpaeca9LR0OVMX45IEADEuxcXFkTstj9xpeVe0ndfrxdLff0Ew6DebMff1YjYr8319feeW+5fZbFbsNjsOhwO73YbD4ZDXKMcoJjYWo9GIwWBUpkYDcXHxJA5rwJNITvbPJyaRlJyirE9OJnlwWTIJiYnyRLwQQ0gAEGIIrVarnCEmJwdlf16v91wgsDtw+IOB3WbDbrfjcNiVqd0/9a8buo3T6cDr8eDxePB4vefmPW7/dMgyrwevx4Pb7cHrHfiesmxgW7db2c7r9fh/Zx06nQ69Xo9Wp0On1SpT/0er1aHX6/zr/Mt0OnQ6rf87+nPLtNrB+dhYAwajAaMxDoPBgDHOPzUaMRiVBv38dQZj3LBtpMEWInQkAAgRQlqtlri4OLmELISIOBKvhRBCiAlIAoAQQggxAUkAEEIIISYgCQBCCCHEBCQBQAghhJiAJAAIIYQQE5AEACGEEGICkgAghBBCTEASAIQQQogJSAKAEEIIMQFJABBCCCEmIAkAQgghxAQkAUAIIYSYgCQACCGEEBOQBAAhhBCX5PV61S5BhIBe7QKEEEKoz+Fw8N47uzm47z3aWlvpaG+jo72d9rY2ujpNxMTEkJGZRXpGBukZmaRnZJBXUMD6Ddcwu2SO2uWLAEgAEEKICaq1uZmdr7/Kzh2v8e7bu7DZbBf9rsPhoKG+job6umHL/+cbD5M9dSobN13HxmuvZ9W69cTFxYW6dBEEmiDvLwtoCWTDtPQMDpyqCHI5Qgghznf08EH+97vfYc/uXUHft9Fo5K577uVzX/wSk6ekBn3/Q3V09WC5RGiJRFvXrcDSbw5088lAT7BqkWcAhBBigqisKOfTH/sI7998bUgafwC73c7vHn+MdUsX8dNHfoDVYgnJccTYSQAQQohxrrW5mS/f9+/ccNUaXnvlpbAc09Lfz6OPfJ91SxfxxG9+hcfjCctxxehJABBCiHFs75532LJxPdue/psqT/N3dZr45n9/lY/f+UF6e4J29VoEgQQAIYQYp5783W/4yO3vp7urU+1S2P3WTm65biOVFeVqlyL8JAAIIcQ443I6+eoDX+DrDz2Ix+1Wu5xBdbU1vH/zprDdhhCXJgFACCHGEavFwh3v28rfn/qT2qWMyGqx8Jl77uY3j/1c7VImPAkAQggxTvh8Ph747Kc5fPCA2qVcks/n43vf/DrbX3pB7VImNAkAQggxTjz6yPej5vK6z+fjy5/7DBVlp9UuZcKSACCEEOPAKy/8i5//6BG1y7giVquVT979Ybq7u9QuZUKSACCEEFGu7NRJvvL5z+Lz+dQu5Yo11Nfx2Xs/FlEPK04UEgCEECKKeb1evvjvn8JqtapdSsD27nmH3/3qMbXLmHAkAAghRBR7ftuzVJaXhfQYBr0WbbBHjjnPL3/2KP3mgPvIFwGQ0QCFECJKedxuHv3h94K6z/hYLdfNn8zNpaksLUgie1IskxP0uL0+2npdNHY52HG6mxeOdHGo1kyw7jr0dHfzm1/+Hw88+FBwdiguSwKAEEJEqaf/8mfqamuCsq8ko44HNufypc1TSTToLliv12qYOjmWqZNjWTEjif++KY+yZiv//Uwtzx8JTk+Dv3v8Me75xKdCPoqgUMgtACGEiEIOh4Of/Tg4T/3fujSNM48s4+Fb8kZs/C+mJCeebV+Yw1sPLWDq5Ngx12Hp7+eXP3t0zPsRoyMBQAghotCLz22jtbl5TPvQaOBrt+Tx98+WkJYYE/B+1halsPfhUpYXJo2pHoA//+F32O32Me9HXJ7cAggjS38/Lz63jaqzZzEYDRgMRgqmT2fh4iVMy8tXuzwhRBR549XtY97HDz9UyAPXTw1CNZA9KZadX13Axu8fZ3914A/z2Ww23n17Fxuvuz4odYmLkwAQBlaLhW/9v4d4ftsz2Gy2Eb8zeUoqixYvZmHpEhYtWcqC0lImT54S5kqFENHA5XSy6803xrSPu9dkBK3xH2CM0bLtC3NY+c2jNHY7At7Pjte2SwAIAwkAIdbVaeKeO27nxLGjl/xed1cnb+54nTd3vD64LL9gOguHhIK58xdgMBhCXbIQIsLtffcdrBZLwNsXZcXx+D2zgljROVkpsfz1s8Ws++6xgPex87Xt+Hw/RqMJ8buHE5wEgBByu1x88OYtVJ05E9D2dbU11NXW8Py2ZwHQx8RQXDKHhaWLWbh4CYsWL2XGrFlotfIohxATyY4xXv7/9m0FGPSh+7uxamYyty5NY9tBU0Dbt7W2cvL4MeYvXBTkysRQEgBC6IXntgXc+I/E7XJx8vgxTh4/xlN//AMA8QkJFM0uYfacOcwuLmF2yRxml5SQmpYetOMKISLLrjd2BLztkoJEbluaFsRqRvad2wp47pAJb4D9BOx6Y4cEgBCTABBCv/3lL0J+DKvFwtHDBzl6+OCw5alp6RSXzKGo5FwoKCqeQ3x8fMhrEkKEjtfrpbGxIeDt716TGcRqLq4oK45lhUnsqwrsgcD6utogVyTOJwEgRNpaWzl98oRqx+80dbBn9y727N41uEyj0TAtL5+ikhKKS+Ywu2QORSVzmDFjJjq9/FMQIhp0d3WOaeCcm0rD18nOloVTAg4AHe1tQa5GnE/+6oeI3T7y0/5q8vl81NfVUl9Xy47trwwuj4mNpWD6dPKnF1IwvZC8gumDP0+dmivhQIgI0tHeHvC2RVlx5KeG70Hia0om8XXqAtp2LL+nGB35yx4iDkfgr8CEm8vp5ExFBWcqKi5Yp9PryZ2WR/6QUJBfoEzzCvKJjZW3EoQIp7GcGU+bEt7/XqelGgPeVq4AhJ4EgBDJysomNtaA0xk9QWAkHrebuppq6mqqefvN4es0Gg1ZOTnDrxoUTCc3L5/snBxS09LlNR4hgqy9LfCGMScI3fVeicyUGLQaAnoQsNNkwuv1yltOISQBIESSU1LYtPkGXn7+ObVLCRmfz0dLUxMtTU28987uC9bHxMaSmZlFVk4O2Tk5ZOfkkp2To/ycnUNWzlTSMzLkP3AhroBjDN3kxsWMvp//YNBrNcTotDjc3ive1uPx4Ha75CpjCEkACKEP3fWRcR0ALsfldNLYUE9jQ/1Fv6PT68nIzCQnZypZOVOVgJCd4w8KU8nOziE9IwN9TOD9lAsxnqRlZAS8bUuvM4iVXF63xR1Q4w+QlJwsjX+ISQAIofUbruFzX/wSv3j0x2qXErE8bvfgVYRLSU5JYUpqGqmpqaSmpTMlTZmfkprGlNQ00tLTBudTU1OJiQ3vpU4hwiUjM/DX+JrH0D1vIFp6Ag8cY/k9xehIAAixr/zX1+jt6eHPT/xe7VKiWl9vL329vdRWV43q+4lJSaSmpSshIS2N1NQ0pvjDQ2paGsnJKSQlJ5/7JCWTmJQktyPGKZfTidnch7mvT/m35J8f9hmyrO+8n202K+kZmUydmsuc+fP5zOfvZ0pq6DvTGUl6RuANY1mzFZvTS1xseP6dH67rD3jbsfyeYnQkAITBt3/4I275wAf5zS9+zo5XX8HrDeySmBi9frOZfrOZuprqUW+j0WiIi48neUgoUAJCyrmfk5IuCA4D84mJiRiNcRgMBnl1MoiGNd5DGuu+3t5RNd7mvt6gvJVj6e+ntrqKPbt38dc//ZH7Hvgyn/zs58MeGtPHcAvA6vTyxuketi4Kz0BjLx/rCnjbsfyeYnTkr1SYLF2+gqXLV9DS1MTB/fuU3vsOHeTUieNR9crgeObz+bBaLFgtFlpbWsa0L51ej9FoxGAwYowzDgYDo9GIMW5gPg5jnPIdg9H/HaN/uXFgmVEJFDodWp0OrVaLTqvM63RaZapVlivLdOj881qtVtlOq3x3pH34fD7cbhdulwuXy43H48blcvmXnZsfWDfwPWWZC7dbWeZ2uwe/N3R/bvfAuoFth+zb7cLjdg/fxv89q9Ua1MY72PrNZr7/rW/Qbzbz5Yf+X1iPHRtrYNLkyfR0dwe0/T8PmcISAOwuL6+dDKxGgMys7CBWI0YiASDMsqdO5ab338pN778VUPr3Lzt9iqOHD3H00EGOHj5ETdVZfL4AO9AWEcHjdmPp78fSH/glUBH5fvHoj5kzfwE3bL05rMddumLlsM68rsRf3mvnv2/OozA98Hf0R+MXbzTTYw28x8KlK1YGsRoxkmC/pJ0FBHTqlJaewYFTF3ZEMxH19fZy/Ohhjh46xJHDBzl2+DCdpg61yxJCjCAnN5c9h8Pb7fff//wkX/3S/QFvf8eKdP78meIgVjRcj9VN0YMH6LIEFgBiYw0cqay+7NglHV09WGyR1+vqpWxdtwJLf2DdIwOTgZ5g1SJXACJQckoKa6/awNqrNgwua2yoH7xCcOzIYSrKTmPu61OxSiEEQHNjI2cqKpg1e3bYjrnh2uvRaDQBXyn8+/4OPrQiPWTjAnz+T1UBN/4AK9eslYHLwkACQJTInZZH7rQ8tr7v1sFlLU1NVJSXUVl+mvLTp6ksL+NsZUVE3jMVYjzbtXNHWANARmYm8xYu4sTRIwFt7/PBR39dwZ6vLWJOTnAb2u+92MBf946tH/9rrt8cpGrEpUgAiGLZU6eSPXUqV1+zaXCZx+OhrqaaivIyKspOU1lWRnnZaepra/B4PCpWK8T4ZbVYwn7MTddtDjgAAJjtHm7+ySle/NJcirODEwIef7OFh7eNfRjfa667PgjViMuRADDO6HQ6CmfOonDmrGEPJjkcDs5UlFNZXkZFWRkVZaeoKC+jraVFHjgUYoxycnPDfsxbbvsAP/vRD8cU7GtNdtZ8+xh/+fdirp8/OeD9uL0+Hniqil/uHNvbMwDLV61mau60Me9HXJ4EgAnCYDAwb8FC5i1YOGy53W6nvq6Wuppqaqurqa+tobamhrqaapqbGuWqgRCjkDM1/AEgf3ohH7jjw/z9qT+NaT+9Njc3/eQkd6/J5OvvyyfvCocLfu1kN199uobjDcG5CvKVML9WOZHJWwDiotwuF40N9dTV+gNCTTV1tUo4aKirj/qRDoUIhsKZs3h11x5Vxqtobmxkw8qlQftv0aDXcveaDG5ZnMqGkkkYY0bu5Ki5x8nLx7r4y3vtvF3RG5RjA1y18Rqe+Nszo/6+vAUwNnIFQFyUPiaGgsIZFBTOAK4Zts7r9dLa3ExtzbmrBk2NDbQ0NdLS0kxbaysed+BPAQsRLR56+JuqDVaVk5vLhz92D0/85ldB2Z/D7eW3u1r57a5W4mO1lOTEkzPZQHZKLDaXh+ZuJ41dDipag9/oajSasHeqNNHJFQAREl6vl472dlqbm2hpaVYG/GlupqW5SVnW3ExbWytul0vtUoUI2B13f4zv/ehRVWswdbRz1bJSrFarqnWM1Q1bb+ax3//xiraRKwBjI1cAREhotVoys7LIzMpiIUtG/I7X68XU0UFrcxPNzU20Njf7Q0IjLc3NtLe2YjJ1qPKEtRCXoo+J4evf/T4fuedetUshLT2DLz74Vf7nGw+rXUrAkpKT+c+vfV3tMiYcCQBCNVqtlozMTDIyM1lQuvii37Pb7XSZTHSaOujs7KTT1EFXpwlTh4muziHLO5Tltig7IxDRwWAwsGT5Cq6+ZhPXbt7ivzUWGT752c9z6sRx/vXs6O+fRwqtVsvPfvU78qcXql3KhCMBQEQ8o9FITm7uqF+1slqtSjDoGB4YOk0mujo7lVHkzh8Ott8styPGMa1WS2JS0rBhoJNTUgZHc0w+7+dz6899Py4uTu1f45J+8Oj/UVNdzfEjh9Uu5Yp89eFvDuvLRISPBAAx7sTHxxMfr/SceCXsdvvgCHRDh5jtG2HI2WE/+4cetttt2O12CRJBptFoiE9I8DfUKeeGa/b/PHTI5mEN/JCf4xMS0GiC/chTZDEYDPz6j09x87VX097WpnY5o3LrB+/gk5+9T+0yJiwJAEL4Gf3D7451HHKv14vdbsfhsOOwKVO73Y7Dbh9cPvxnB3abTZnabTjs/qnDgcNuw+Vy4/V4cLvdeLwevB4PHo9XmXo9eDznlnk8bjwe/zLvwDLPue+63eeWeT1oNBr0+hj0MXpi9DHoY2KI0evRx5w3r48hJkbvX6Z8X1kW41+vV+YHvjewr6Hz/n3F+L9/bl8XHj8mNpbEpKTBM3KtduTX0cRwmVlZ/PqPT/GhW26M+C7BFy9dxvd+rO4DlBOdBAAhgkyr1fqvQsQrz+wKEUYLFy/h7/96iU/f8xHaWlvVLmdE191wIz957FfExl5Zp0MiuCRWCyHEOLNw8RKef/0tFi1eqnYpw2g0Gr7wlQd5/Ik/EZ+QoHY5E54EACGEGIcyMjP5+/MvcusH71C7FEB5NucXv/0DDzz40Lh/HiNaSAAQQohxKjbWwI/+75c8/J3vqXrGXTS7mGdeepUbbrpFtRrEhSImAEi3sUIIERof/9Rn2H3wKB//1GfCet99au40/vfnj/HKrj2UzJ0X9P17vNE3WJnHEzltXcQEgO7uLurrxj6OtBBCiAtNSU3j4e98jzf3HuT2O+9Cp9OF9Fhf/+73eXPvQW770J0he4vD5YqcxnQ06qqrsEdQR2UR9RbAe7vfJi+/QO0yhBBi3MrJzeWHP/0/Pn3f/Tz37NPsfO1VTp88Meb9Go1GVq9bz4Zrr+fW2z8UllsOPp8v5McIpsP796pdwjARMxgQwILSxWx76VV0+ojKJUIIMa61trTw5uuvsnPHaxzct5ee7u7LbqPT68nNncb6DRvZcO31rFq7DqPRGIZqFV6fj/rmyHzNcSRut5vP3HU7VZVjGvQuqIMBRVQAAPjCVx7kgQcfClI5QgghrpTT6aCjvZ2O9jba29owtbdjMBrJyMwkPSOT9IwMJk9JVbWDJovNTkfX5YNKpPjt/z3KU7/79Vh3M74DgE6n4x8vbqd0SWS9vyqEECJydHR1Y7HZ1S5jVE4dP8oXPn433rE/tBjUABAxDwEO8Hg8fO4T91B99ozapQghhIhAdqczahr/htoavvWfXwpG4x90ERcAAFqamvjA1huiblQrIYQQoeXzQWdPr9pljErZiePcd89dtEdol8wRGQAAurs6ufPWm9n91k61SxFCCBEh+vr7o+L1v33vvM0Dn7qHvt6gXbEPuogNAABWi4V777qDbU//Te1ShBBCqMzt8dBj7le7jMt66Z/P8N9f/BwOe2Tfpoi4hwAv5oabbuHbP3iE1LT0UOxeCCFEBPP5fLR1dmF3ONUu5aK6Ok38+DvfYE/orlyP74cAL+aVF/7FtWtX8cI/t6ldihBCiDDy+Xy0d3VHdOP/2kvPc8+tW0PZ+Add1FwBGOr6LVv5ziM/Ii09I9SHEkIIoSKvz0d7BJ/5d3a086PvfIP33n4rHIebmFcAhnr15Re5bu0qnv7Ln/F4Iu/VCiGEEGPn9fpoM0Vm4+/xeHjhmae557abwtX4B11UXgEYKn96Ifd/5UFuvvUDIR3cQgghRPh4vV5aTV04XS61SxnG6/Xw2ovP8+RvHqelsSHchx/fPQEGavqMmXzhyw9y8623qdo9pRBCiLFxOF2YuntwRdAw8V6vhx2vvMSTv3qMpoZ6tcqQAHAphTNncf9X/pOt73u/BAEhhIgiPp+PHnM/vRH0qp/P62Xnqy/zxK8eo1H9IeslAIzGzKIiPvfFr3DjzbcQExurdjlCCCEuwelyYerujZhL/m6Xi7def5U///Zx6mqq1S5ngASAKzElNY3bPnQnH/7oxygonKF2OUIIIYbwAb3mfnrNZnw+tauBxrpaXtz2D7Y//xy9PRE32qAEgEBoNBpWrlnLnXffw+Ybt8pVASGEUJnT5aKzpxeHU92zfpfTyds7X+fFZ//B0YP7Va3lMiQAjJVcFRBCCPW43G56+vqx2Gyq1tFQW8ML2/7Bq88/F9F99g8hASBYhl4VuP7GG4mNNahdkhBCjFtuj4eePjP9VvUafqfTwds7XueFZ5/m+OGDqtURIAkAoZCQmMiGTddx/ZYb2bDpOhISE9UuSQghxgW3x0OvuZ9+q1WV+/yWfjN7d+9i984d7H/3HWxWa/iLCI7xGQDiExLIyy+g/PSpIJd05WJjDaxZv57rt2xl0+YbZAAiIYQIgMfrpdfcj9lixRfmlr+r08SeN3ey+80dHDmwD3cEvF0wq2QOdVVVOJ2OQHcxPgNAWnoG7x09yS8e/TG/+OmPcTkjo+tHrVbLkuUruH7LVq7bciPT8vLVLkkIISKaw+nCbLFgsdnD2vA3Nzawe+cOdu/cwekTx/B5vWE79qXExhr46Kf+nTvu+TduuXo1ln5zoLsavwHgwKkKAKrOnOHrX/0P9uzeFczagmLOvPmDYaB4zly1yxFCiIjg8/mw2Gz09VvD+i7/2Ypydu/cwTtv7qD6TGXYjjtaS1eu5v6Hvkau/+Rx67oVEgDONzQADHj5+ef4n288TFP4+1selWl5+ay56mpWr13PyjVrSc+Q0QmFEBOLy+3GbLHSb7XhDcMZd6epg6MH9nF4/z4O7XuPtpbmkB8zEJnZOXzmgf/g6muvH7ZcAsAIRgoAAA6Hg989/hi//NlP6DcH/D9aWMyaPZtVa9axat16Vq5ey6TJk9UuSQghgs4HWG12zBZLyEfq6+3p5ujBAxzZv5cjB/ZTXxsxvfKNKCExiQ/f+wk+cNdHR3yzTALACC4WAAZ0d3fxq5//jCd/92tsKr87OhoajYaSufNYvW49q9asY/mq1SQmJaldlhBCBMzudGK12bHYbHg8oTnbt/SbOXboIEf8Z/k1ZyvD/gBhIOLi47n1zo/woY/eS1Jy8kW/JwFgBJcLAANMHe08/vOf8tcnn8AaRa9y6HQ65i1cxOq161i9bj1Llq8kLi5O7bKEEOKSHE4nFpsdi82Ox+MJ+v7tNhvHjxziyIF9HNm/jzPlZXi9wT9OqMTFx3PL7Xdwxz3/Rsqky1/1lQAwgtEGgAHd3V088Ztf8cff/prenqjowWmYmNhYFi1ewrIVK1lQupiFixaTlZOjdllCCIHD6cJis2G12XEHudFvb22l/NRxyk+d5MSRw5SfPI47gob9Ha2k5GRuvfNubrvzIySlpIx6OwkAI7jSADDAarXyzF+f4ve/jqgRmwKSkZmphIHSJSwsLWXBosWkTJqkdllCiAnA4XRhtdmwBLHR7+vtofzUScpPnaDi1EnKTh6nu7MzKPtWy9Rpedz24bu54ZZbMQZwFVcCwAgCDQADvF4vO197lSd++2ve3b0rKu4ZjUb+9EIWlpaysHQJC0oXM3f+Arl1IIQYM6/Xi83hxGZ3YHc4xtzo2202KstOU3HqBOWnTlJ26gQtEfoG15XSaDQsXbWG933wTlatuwqNVhvwviQAjGCsAWComqqz/PmJ37Pt6b/R0x1xwzmOiU6vp2h2MQtKF7OodDELShczs6hIxjEQQlyWw+nC5nBgsztwjKGzNafTQV1V1eDZffmpE9RWVUXVvfvRSE6ZxPU33cLNt98x+B7/WEkAGEEwA8AAp9PBay+/xLan/8bbb+4MyQMskUCn01FQWEjR7BKKSkooml1MUfEcphcWotPr1S5PCKESj9eLze7A5nBgtzvwXOF7+m63m8a6WmqrzlJz9gw11cq0uaFh3DX2A7RaHctWr+GGW25lzVUb0MfEBHX/EgBGEIoAMFRHezvPPfN3nvnbX6ksLwvZcSJJTGwshTNmUlSsBIKi4mJmF5cwLb8A7RguYQkhIpPP58PhdA5e2h9tj3xer4fmhgZqqs5SU3VmsMFvrKuNygf0AlE4azabb7qFTVtuYnJqasiOIwFgBKEOAEOdOnGcfz37D154bhutzZHZi1QoGY1GZhbNZtbsYmaXlDBrdgmzZs9mau40CQZCRBGPx4vd6cTh/zidLi719JPX66GtuZna6qphDX19Tc1YBqiJWhlZ2Wy4bjPX3LCVWcUlYTmmBIARhDMADPD5fBw9fIiXn3+Ol1/4F82NjWE9fqSJiY0ld1oe+QUF5BVMJ9//ySuYTl5BAQaDPGcghJpcbjd2h9LY251O3O4LL8M7HHZaGhtpbmygqaGe5sYGmv3T1uamCXNGfzFZOVO5+trruWrT9RTPmx/240sAGIEaAWAon8/HiaNH2P7SC7z2yktUnTmjWi2RSKPRkJmVNRgMzgUEJSxIt8dCBJfP58PpcmF3unA4lAZ/oK99c28vTY0NNDfW09ygTJsalAa/y9Qxbt6CCpb8whms27iJdRs3UVSi7iBuEgBGoHYAOF9tdRU7Xt3OG69t58C+vXgmeGq+nJRJk86Fg/x8snKmkp2dQ1ZODlnZ2aSmpaPRBPufmxDjg9LYu3G6XDicTlpbW2lpaqKjvY2OtlY62tpobmqgqb6e5sb6iB8XRW16vZ75i5ewev0G1ly1gezcaWqXNEgCwAgiLQAMZe7rY8/uXeza+Qa7du6gpalJ7ZKiTkxsLJmZWf5AkEP20GnOVLKyssnIzJS3FsS45nG7aW1rpaG+nsaGBlqam7zQpMwAACAASURBVGhpbqKtpYX2tjZM7W2YOtpxh3E43fEiPTOTpStXs3z1OpatXkNCYmSOvSIBYASRHADOV1lRzq43dvD2mzs5sPddHI6J9/BMKGi1WtIzMgYDQVaOEhAys7JJTUtjSmoaqalpTElLlX4PRERxOh10mToxmTro6jTRaTLR1tpCS1MTzc3Ng418V6cpLEPmTgRGo5FFS5ezZOVqlq1eS/70QrVLGhUJACOIpgAwlMPhYP97e3h39272vfsOx48dldsFYZCYlKSEgdRUpqSlkZaWrsynppGalnZeYEiTBxjFFXE4HHR2dNDZaaKrs5OuThOmjo7B+c5OE50dpsF5S3+/2iWPezq9ngULF7HKP6DaspWr6O23YYmC0WGHiqQAINdbx8hgMLDu6o2su3ojAFaLhUMH9rF3zzu8985uCQQh0m820282U1dbM6rvJyQm+gODcgVh0qTJJCUnk5SU5J8mk5iUTFJyMolJSSQnJ5OYqKxLSEyU1yOjjNfrHfw3Yjb3YTabMff1KT/39dLfr/zc51/W09NNp8lEl0lp0K0Wi9q/woSnj4lh4aJSVq1dx4rVa1i8bAXx8fHnfSu6Gv9IIwEgyOITEoYFApvNxtFDBzm4by8H9u3lyKED8gCPCiz9/Vj6+6mvq73ibTUaDfEJCecCw0XCQmJSEkajEWNcnDI1xmEwGjAYlZ8NBiPGOGW50WjEYDRM+FsZTqcDu82Ow+HAbrf55+3Y7XYc5/1st9mw2+2XbdTNZjNWi0WehI8yiUlJLF66nGUrVrJ0xUoWLVmK0WhUu6xxTQJAiMXFxbFq7TpWrV0HKGcmZ89UcuzwIY4fOcyxI4cpO31KHvqJYD6fbzBAtAZ531qtFoPBgMFo9IeCgXBgPBciDAZ0Oh1anQ6dTqvMa3X+qVZZPjD1fzQarX9+YL1ucB9arWZwH6B0DuPxePB6fXg9yrzH6/HPe/F4PPh8ytTj8S/3evF6PHi9Xv+2/u083sF9DDbqdjsO+5BGfcjP0khPTDGxsRTPmcvCRaUsXKwMdDZzVpFcaQszCQBhptVqlb76Zxdz+513AcpZ0OmTJzh+5AhHDx/i+NHDVJ89K38cJwCv14vNZsMWZfcxhRgtjUZD4cyZ/mHOF7OwdDEl8+ZN+KtfkUAeAoxQ5r4+Thw7yrEjhzl2+BDHjh6ekN0WCyGiS/bUqSwqXcIC/zDm8xcuIjEpNK/kdXT1yEOAYyBXACJUUnIyq9etZ/W69YPL2tvalNsGRw9TfvoUlWVlNNTXyZUCIUTYabVapuUXUDS7mOK5c1m4aDELFy8mLT1D7dLEKEkAiCIZmZls2nwDmzbfMLjMZrNxtqKcyopyKsvLqSw/TWVF+YQf10AIERwajYacqbmDA4cpo4uWMLNotjykF+UkAES5uLg45i8qZf6i0mHLLf39/lBQ5v8o4aC9rU2lSoUQkS4rO5tZs0v8jX2x0tjPLiE+IUHt0kQISAAYpxISEyldspTSJUuHLe/t6eFMRTkV/mBQffYsdTXVNDc14vFcOLKYEGJ80el0TM2dRv70QgpnzmR2cQmziksoml1MckqK2uWJMJIAMMGkTJrEUv97tkO5XS4aG+qpramhvraG2ppq6mprqKuppqGufkKOFS5EtDIYDEzLzyd/eqEyaqd/WjB9OrnT8mTMDQFIABB++pgYCgpnUFA444J1Xq+X1uZmamuq/eFgeEiQXtOECL+ExMQLGve8gukUTC8kKydHRt8UlyUBQFyWVqslJzeXnNzcYW8lDDB1tFNbU0NjfR0tzc20NjfR2tJCS4sy32mSAVCEuBJarZa09PQLBsbKyp5KXkEB+QUFpKalq12miHISAMSYpaVnkJaewdLlK0Zc73G7aWttpbW1ZTActLY009rS7A8MzbS1teJyOsNcuRDhFxtrIDNrYGjsbLKyp5KVnS1DY4uwk39hIuR0ev3gFQRYNuJ3fD4fXZ0mJRw0Nw+GBZN/gJauTpMy32mir/f/s3ffYW2d59/Av5JAA5AYYgmwGbEZHoDxnom3neWsZjujI8Np0iTNL6NpRt+mSZu0adqm2Wn2cBI704njgffCGPBg2iwDYkkCtLfeP46QwcYYtI6E7s91cUkcHZ1zExyer8547j7//gCEXACHw4EkOtrZgdLZlTIhAdL4eCTLUiCTpbgG/Ng4KR2eJwGBAgAJCBwOB9L4BEjjEzB5av6w61otFqhUqiHbsqqUSldHN6UzMPT19tJkSWRUOBwOomNizmkrHSeVOltPM10l+ztMSqVS+sROgg79iyVBJyw8HIlJSUhMShrR+jarFT09KqiUSigVCvT19Q7oIqce1FmOWe5cNqCzHAk+EZGRTKdGZwdHsSSaeT6gq2N/R0exRILo6P4BX4rYOCl4PB7bPwIhPkUBgIx5vLAw13UK7rDZbNBpta5QoNVooO4PC1pnK1qNBgZnu9r+trVGowEmg/FMRzyTEUaD0fWa0WgM+S6QYeHhrq6HTCvlMx0QhUIRBKKBrzGPIpHIOWhHO1szMy2ZxQMG+8ioKBrACbkACgCEXACPx4MkOtonk6TYbDZna1yDMxz0hwWTK0iYzSbY7XZXe94z7XvtA9r3DtWe19nK126HzT6gla/NzrzXzkz8xOUybYVdrYOd7YM53AEthYdoP3ymvfDAFsVc1zI+XzBo4O4f1F2DvFBIgzQhLKIAQAiLeDweIiIjaapVQojfcdkugBBCCCH+RwGAEEIICUEUAAghhJAQRAGAEEIICUEUAAghhJAQRAGAEEIICUEUAAghhJAQRAGAEEIICUEUAAghhJAQRAGAEEIICUEUAAghhJAQRAGAEEIICUEUAAghhAzLbrezXQLxAeoGSAghBCaTCQf27kHpoQPo7OhAd1cnuru60NXZCZVSgfDwcCQmJSMhMREJiUlISEzE+IwMLFq8FDl5k9gun7iBAgAhhISoDrkcxVt/RvG2Ldi/excMBsN51zWZTGg53YyW082Dlj//7NOQpaZiybIVWLJ8JeYuXASRSOTr0okXcLy8vWQA7e68MT4hEYcra71cDiGEkLNVlJXi7395Dvv27PL6toVCIW6545e478GHERsn9fr2B+pW9UI3TGgJRJcvnA2dVuPu22MB9HqrFroGgBBCQkRdbQ3uvv1WXL1quU8GfwAwGo14943XsHBGIf710t+g1+l8sh/iOQoAhBAyxnXI5fj9b+/F6ovnY8tPm/yyT51Wi1de+isWzijE+2+/CZvN5pf9kpGjAEAIIWPYwX17cemSRdj4xeesXM2vUirwpycfx503XY++Xq8dvSZeQAGAEELGqA/ffRu3/uJq9KiUbJeCPTuLsWbFEtTV1rBdCnGiAEAIIWOMxWzG4w89gGeeeBQ2q5Xtclyamxpx9aplfjsNQYZHAYAQQsYQvU6HG6+6HOs/+YjtUoak1+lwzx1r8fZr/2G7lJBHAYAQQsYIh8OBh9bdjbLSw2yXMiyHw4EX/vQMNm/6nu1SQhoFAEIIGSNeeemvQXN43eFw4Pf33YPa6iq2SwlZFAAIIWQM+On7b/Gff7zEdhmjotfr8Zu1N6OnR8V2KSGJAgAhhAS56soTeOT+dXA4HGyXMmotp5ux7pe3B9TFiqGCAgAhhAQxu92OB++9C3q9nu1S3HZw3168++ZrbJcRcigAEEJIEPtu4wbU1VT7dB9cb3eNGcLr/34FWo3bc+QTN1A3QEIICVI2qxWvvPiCV7cZwedixdRYXDlNiukZUUiU8CGNCofFZkdnnwXyHhO2V/fi+3IVjjRp4K2zDr09PXj79Vfx0KNPeGeD5IKoGyAhhASpzz58H3945CGvbEss5OGhVWl4eFUqogS8Eb2nWq7Hk1814bty78w0GBkVhT2lFSPuIkjdAD1DpwAIISQImUwm/Ptl71z1f82MeJx8aSaeXjN+xIM/AOSlRGDjA5Ow84l8pMbyPa5Dp9Xi9X+/4vF2yMhQACCEkCD0wzcb0SGXe7QNDgd4as14rF+Xh/iocLe3syA7GgefnoZZWWKP6gGAj997F0aj0ePtkAujawD8RN3Xhx++2YgN6z9DY0MDBEIBBAIhMjIzUVA0HQXTpqOwqAhx0ni2SyWEBIHtP2/2eBsv3pCFh1ameqEaQBbDR/Hj+Vjy12MoaXD/Yj6DwYD9u3dhyYqVXqmLnB8FAD/Yt3sn7rr9Vuh1unNea25swK7i7a7v08aNR+H0GSiYVoTCoumYnF8AkUjkz3IJIQHOYjZj147tF15xGGvnJ3pt8O8nDOdi4wOTMOdPFWjtMbm9nW1bNlMA8AMKAD720w/f4Xf3/AYWs3lE67e2nEZry2n88M1GAAAvLAzZObmDQsGE7BzweCM/T0cIGVsO7t875AeKkcpOFuGNOyZ6saIzkqP5+GxdLhb+5ajb2yjeshkOx8vgcPxw/2EIowDgQx3t7Xjg7l/DarG4vQ2b1YrqyhOorjyBzz58HwAQERGBKQWFKCyagfzCQuTkTUZmVhZ4YfTrJCQUbPPw8P+fr82AIMx3l4DNnSDBNTPisbFU4db7Ozs6cOLYUUwtKPRyZWQgGjF86L233vBo8D8fvV6PkgP7UXJgv2sZny/ARRMnIicvD9m5k5CTm4fsvDykpo2jFE3IGLNr+za33zs9IwrXzvD9tUbPXZuBb44oYHdznoBd27dRAPAxCgA+YjQa8dlH7/ttf2azyXWkYKDIqChk5+QiO+9MKMjJzUN8QqLfaiOEeI/dbkdra4vb7187P8mL1ZxfdrIIM7PEOFTv3gWBp5ubvFwRORsFAB9RKRTQqNVslwGdVovyI6UoP1I6aHmcNN55tIAJBBNzcpGemYWERAoGhASyHpXSo8Y5V0wb2SQ73nBpQZzbAaC7q9PL1ZCzUQDwEZMpsO9jVSkVOLB3Dw7s3TNoeUREBNIzs5CRmeV8zHR9nyST0ekEQljW3dXl9nuzk0VIlwq8WM3wlubF4Bk0u/VeT35OMjIUAHzEarWxXYJb9Hr9kKcSAEAoFGJ8egYTCLIGB4SU1DRwuTSvFCG+5skn43Fx/hv8AWCcVOj2e+kIgO9RAPCRiyZORHJKisczdQUSo9GIutoa1NXWnPNaOJ+PcePTkZGZibTx6ZClpCBZlso8pqRAlpICPt+/f3wIGYu6Ot0fGFO8MF3vaCRFh4PLgVsXAioVCtjtdvpg4UMUAHyEy+Ximl/cgNf+9U+2S/ELi9mMhlMn0XDq5HnXiZPGnwkEshQkpzgDgiwFKampSJKl0KRHhFyAyYNpckXh/p0/JIzLQTiPC5PVPur32mw2WK0W+uDgQxQAfOim2+7Apx++j96eHrZLCQgqpQIqpQKVx4+dd52Y2Fgky1KcQSEVMlkKEpOSEBcfjzhpPKRSKaTxCRBLJH6snJDAEe/BhbrtfSObkMxbenRWtwZ/ABBLJDT4+xgFAB9KGzceH3z+FW6+dg10Wi3b5QSF3p4e9Pb0oKaqctj1wsLDIZVKESdlgkF8QrzruVQqRVx8PKTxCa51JNHRdAEjuSCb1Qq1Rg2NWg11Xx80ajU0GjUMegOSZTKMG5+OJJmM1Zk4E5Pcv41P7sH0vO5o73U/cHjyc5KRoQDgY/nTivD+Z1/iyUceGvLcOXGP1WJBZ0cHOjs6RrQ+LywMcXFxzlDABAKxRMJ8iSWu51FiMSRnLRNLoiEQ0CeRQGe326HTapnBW+0cvJ3P1c7ng1/rYwZ5zZnX9Hr9BfcjjU/Aw489gRtuvY2VIJCQ6P7AWC3Xw2C2Q8T3z3n1smb3P/h48nOSkaEA4AczZs/B5t37sWPrFrz39psoO3xoRH9oiPfYrFZ0d3W5fWtROJ/PhAKxeMjgIJZIEBUVBaFQBIFAAIFQBKFICIFACKFQCKGIWS4UCpl1hAIIhSIIhcKQmsLZbrfDarXAarHCYrHAZrPCYrE6l1lcz/V6/YBP4cwgPfATufqsT+jqvj7otFo4HG5OOzcKSkU3nvy/h/HBu2/jg/UbkCyT+XyfA3kyV4febMf2ql5cXhjnxYrO78ejKrffS3OS+F7o/OVhGYfDwZIVK7FkxUrYbDacrK3B0bIjqCgvQ8WRUpysrYHNFpy3DoYCi9nsuobB23g8HgRDBAOBQOgMEQLweDxweTxwOVzXcx6PCy6Xx3zP5TqX8cBzPudynetymXWH2obD4YDVYoHVygy+zIBscS5zPu9/zWp1PWcemYHcamXWdb024D2u15zP7Xb3zgcHorqaatxz51p88d0mv56r5vMFiImNdfvaoq+PKPwSAIwWO7accP/6p6Rk/warUEQBgAU8Hg+5kyYjd9Jk3HDrbQCY++8rjx1FRVkpKsrKcLTsCNo8mO6TBA+bzQa9TudRdzfCjqNlR/D/nnwCz730sl/3O2P2HGzb/JNb7/30QBeevHI8shLcv0d/JP67XY5evfszFs6YPceL1ZChePuqqGQA7e68MT4hEYcra71cTnBTdHfhaFkZKsqPoOLIERyrKIO6r4/tsgghA4hEIpTXNfr1OpH1H3+Ixx/+ndvvv3F2Aj6+J9eLFQ3Wq7ci+9HDUOncCwB8vgDldQ2IiIgYdr1uVS90BoNb+2DL5QtnQ6d1b3pkALEAer1VCx0BCGDxCYlYunIVlq5cBQBwOBxoaqjH0fJy1FZXoba6ErU11ZC3trJcKSGhy2AwoOTAPiy8ZInf9rl4+UpwOBy3r3lYX9KNG2Yn+KwvwP0f1bs9+APAnPkLLjj4E89RAAgiHA4HmRdNQOZFEwYt12o0qK2pRl11FWqqq1BXU43a6mr0qJQsVUpIaCk5eMCvASAxKQlTCgpxvKLcrfc7HMBtb9Vi31OFmJTi3YH2hR9a8NlBz+bx7//QQ3yLAsAYECUWY/rMWZg+c9ag5d1dXairqUJNFRMKaqqrcKq2hu5AIMTLoqNj/L7PZStWuR0AAEBjtOHKf1bih4cnI1fmnRDwxo52PL3R8za+S1es9EI15EIoAIxhCYmJSEhMxPxFl7iWORwOtJxudp5CqEZTQz2aGxvQ1NgIRTd13yLEHalpaX7f55prr8O///GiR3cPNSmMmP/no/j03lysnBrr9nasdgce+qQerxe7dQnYILPmzkNq2jiPt0MujAJAiOFwOBifnoHx6RlYvurSQa/ptFo0NzW6AgHz2ICmhnp0dXb65R5rQoINh8NBdu4kv+83PTML1914M9Z/8pFH2+kzWHHFP09g7fwkPHNVOsaPsl3wlhM9ePyLRhxr8c5dLI888UevbIdcGN0FQEbEYDDgdFMjmhobzgkIHXL5mLq/m5DRuOq66/HP195kZd/y1lYsnjMDZrN3pvgVhHGxdn4irp0Rj4tzY8APG3qI6FJbsOmoCh/t68TuWu/dmXTxkqV4//OvRrw+3QXgGQoAxGNmswmnm5rR1tqC9rZWtLfL0SGXQ97Who72NrTL5dQLgYxJQqEQxQdKIUtNZa2GPz35ON5/2/sBRCLiYUpaJJIkfCRKwmG02NGpNqOtx4zKVp1bLX6Hw+Fw8O2WYkwtKBzxeygAeIZOARCP8fkCTMjOxoTs7POuo1Gr0d4uR3tbGzrkba7n7XI5OtrbIG9ro5BAgoo0PgGv/+8DVgd/ALjvwYfxxScfef3iXrXBhv0n1V7d5nBWXXbFqAZ/4jkKAMQv+ufLz845/+QjWo0G7XI52uWtaJfL0dXRAYWiGyqlEiqlAkoFMxWvSqWCzer+PcaEeILD4WD2vPl4+dU3WB/8Aebo6YOPPo7nn32a7VLcJpZI8NhTz7BdRsihAEACRpRYjIk5OZiYkzPseg6HA+q+Piid4UCpVEClUEDpDAoqpQKKboXruUqlgsXs3z7oJHgJhUKIJRKmY6T4TNfImNhYzJg1G4sWL4E0PoHtMgf5zbr7UXn8GL7dMPLz54GCy+Xi32++i/TMLLZLCTkUAEjQ4XA4iI6JQXRMDLImTBzRezRqtSsMuDrMOTvJMY8aV0vYge1hNWo11Bo1HXEIEq6ujRIJJBIJJJLoQR0bB37PDPAD1nV+HxYezvaP4Za/vfIqGhsacKy8jO1SRuXxp/+ES5YuY7uMkEQBgISE/j/67n7KMBgMAwJC36CAoNFooNVqYDQYYTQaYDQaYTIaBn1vNBhhMhmZ587XTM7XQu0OirDwcITxeAgLD0d4WDjCwsOcy8Kcy8IQzucjytl6edCgLYmGZMgBnXkUCn3b4CaQCQQCvPXBJ7hy+SXo6uxku5wRueb6G/Gbdb9lu4yQRQGAkBEQiUQQiURITEry+rYtZjNMJtOgsDAwSFgsVthtNtjsNtjtdua5zQabzQ6Hw+58bnOuYz9rHZtzHfuAdc5sh8PhDBh8wxAWFo7w8PBBgzSzLGzI9XhhYQgPCxu0HrMs3LVeWNiZgZ0XRn9yfCkpORlvffAJblhzGUwm79wa6CtFM2bihZdfYbuMkEb/NxLCsnA+3/WJlxBPFRRNx/pvN+HuO25FZ0cH2+UMacXqy/DP194En++/DorkXFy2CyCEEOJdBUXT8d3WnSgsmsF2KYNwOBw88MijeOP9jxARGcl2OSGPAgAhhIxBiUlJWP/dD7jm+hvZLgUAEBERgf++8x4eevQJcDjenoOOuIMCACGEjFF8vgD/ePV1PP3cC6x+4s7OycVXm37G6ivWsFYDORcFAEIIGePuvOse7CmtwJ133ePX8+6paePw9/+8hp927UPe5Cl+2y8ZGQoAhBASAuKk8Xj6uRew42ApfnHTLeDxeD7d1zN/+St2HCzFtTfcBC6XhppAFDDNgKLEYhyvP+3lcgghhAyl/uRJfLPhCxRv+RlVJ457vD2hUIh5Cxdh8fKVuOYXN/jllEOnUgWDMbBvdxzIYbdj1dzpnnRvHJvdAAFgZ0kZ0jMyvVgOIYSQC+lob8eOrT+jeNsWlB46iN6engu+hxcWhrS0cVi0eAkWL1+JuQsW+n0iptPtnUE1kVZrcxPWXnWpJ5sYu90Af/r+W9xz/4Nsl0EIISElWSbDTbfdgZtuuwMA0+K7u6sL3V2d6OrshKKrCwKhEIlJSUhITEJCYiJi46SsH9p3OLzck9jH9hRvY7uEQQLqCECUWIydh44EXKMNQgghgcVms6Glo4vtMkasV6XCLVeugl7nUdtzrx4BCKgrM7QaDV56/jm2yyCEEBLg9EF07h8A3nn1FU8Hf68LqAAAAOs//hAfvPMW22UQQggJYFq9nu0SRmzj559g09eB16o54AIAAPzpycex8YvP2S6DEEJIANLo9DCZLWyXMSJbfvgWr774PNtlDCkgA4DD4cCjv/stNm/6nu1SCCGEBBCb3Y4etYbtMkZkz/at+NszfwzYixUDMgAAzAUe9/3qDrz68t8D9j8eIYQQ/+rpUwf8rX8Oux0fvvUannn0IdjtNrbLOa+AugvgfC5eshT/fP0txMbGeXvThBBCgoTRZEaHQsl2GcPq7VHhL08+htID+3yx+bF7F8D57CrejsuWLEJFWSnbpRBCCGGB1WaDosdrY59PnKgow29uvNZXg7/XBcURgH5h4eG4+777se7B3yMiIsJXuyGEEBJALFYrOhUqWG2BeTjdoNfjw7dfx5cfvQ+bb2scu1MBj3gnMhkef/r/Yc211/l6V4QQQlhksVjRoVTCZgu88/4OhwNbf/web73yDygV3f7YJQWAfjNmzcazL7yIyVPz/bVLQgghfmK2WNChUAXkRX911ZX499+eR+XRcn/ulgLAQFwuF9ffsha/f/wPiE9I9OeuCSGE+IjJbEanUgW7PbDuAutRKvG/1/6NTd9sgMP/wYQCwFAEAgF+cdMt+M1992N8egYbJRBCCPGCPo0WvRptQN0C3t7ags8/+B82f/eNJ+18PUUBYDg8Hg+XrbkK99z/IPImT2GzFEIIIaNgsVqh6OkNqFn+TtZU47P338GurVsC4Z5+CgAjdcnSZbj3gYcwa+48tkshhBAyDLVWhx61JmA+9ZcfPoTP3n8Xh/fvZbuUgSgAjFbRjJn41T3rsGzVavD5ArbLIYQQ4mS1Mvf3G81mtkuB2WzC3h3b8eXHH6DmxHG2yxkKBQB3xcTG4sqrr8V1N96MqYXT2C6HEEJClsPhgFqnR28AfOqvOXEcm7/7Gts3b4JWE9B9BigAeEN2bh6uu/FmXP2L6+nuAUII8ROHg2nl26vR+nrSnGGplAps3fQ9fvp2I5ob6lmrY5QoAHgTLywMlyxdhutuvBlLl69EOJ/PdkmEEDImafUG9Ko1rM3oZ7VYsH/3Dmz+7huU7NvDagBxEwUAX4mNjcMVV1+DFZddjtlz5iEsPJztkgghJOjpDEb0qjWwWK1+37fVasXRI4exd8d2FG/+Eeq+wO4ncAFjMwDExsbhFzffinff+G9ApDJJdDQWL1uO5asuxSVLlyMyKortkgghJKjojUb0qrUwW/x7W59ep8WhvXuwb2cxDu3bHRDn9blcHq6/7Q589+Xn0Ot07m5mbAaA+IREHK6sxfGKcjzywH2oq6n2cmnuC+fzMXf+Qqy49DIsW7kaScnJbJdECCEByWa3Q6vTQ6PXw2r134e57s5O7N9VjL07i1FRWgKrn0PHcLIm5uDRZ/+MnElTcPnC2dBp3Q4kYzsAAIDFbMY7b7yGV19+CXq93pv1eYzD4WBq4TQsX3UpVqy+FNm5eWyXRAghrDOazdBo9dAbjX67qr/hZC327izGvh3FqKuu9Ms+RyMiMhK33bUO191yG3g8HgBQABjKwADQr6O9HX9//s/4+sv1AdkMAgDSMzKxaPESzF2wELPnzUecNJ7tkgghxC/sdge0ej00Or1fzu/3qlSoKC1B+eFDKNm/Fx3yNp/v0x0cLherr7wav/rt784ZEygADGGoANCv6sRxPP/MU9i3Z5cntfkch8PBxJxczF2wkAkEc+cjJjaW7bIIIcSrTGYLScbg1wAAIABJREFUNDo9dAaDTz/t9/X24OiRwyg/zAz6wXC73qx5C3DPQ/+HzAkTh3ydAsAQhgsA/Q7s3YOX//oXlJYccmcXfsfhcJA7aTITCOYvxKy58yCJjma7LEIIGTWzxQKdwQi9weizT/satdo54B9CRWkJGk+dZH2SoJEqmD4Tv1z3APKLpg+7HgWAIYwkAPTbs7MY/3n57zh88IA7u2INl8vF5Kn5mDN/AebMX4hZc+YiSixmuyxCCBmSxWKFzmCAzkeDvk6rwdEjpagoLUFFaQlO1dWy0WLXI/lF07H21/dgxtz5I1qfAsAQRhMA+pUeOog3Xv0Xirf8HDQpcSAej4fcSZORP60IBYXTUFA0HRNzcl0XixBCiL9ZrFboDEbo9AavDvo2mw2Np06ipvI4ak4cR03lcTSeOhUIHfZGjcPlYu7Ci3Hj7b/C1GlFo3ovBYAhuBMA+jU11ON/b76Orz7/FAaDwa1tBAqRSITJ+QUomFaE/MIiFBQVIT0jk+2yCCFjmNlihd5ohN5ggNni+aDvcDjQ1nIatZXHUX3iOGoqT+BUTTVMJqMXqmWPKCICq668GtfevBap48a7tQ0KAEPwJAD0U/f1YcP6z/DRe++isf6UR9sKJDGxscgvLEL+tGkoKCxCQdF0JCRS/wJCiHvsdjsMJjMMRhOMJpPHU/Mqu7tQU3kC1SeOobbyBGqrTkCjVnupWvalZ2bhqhtuxorLr0REpGeTwlEAGII3AkA/h8OBvbt24POPP8LWzT/CEgBtJr0tOSUFhdOmI39aEXLyJiEnLw8pqWngcLz9KyWEjAUmswUGkwkGowkmN/8mOhwOdMjb0FR/Cg0n65jD+ZUnoOjq9HK17Avn87Fw8TJcds11KJo1x2vbpQAwBG8GgIF6VEpsWP85vvzsk4CaXdAXIiIjkZ2Th+zcXGTn9j9OopkLCQlBNrsdBqPJ9SnfNsqL67o7O9FUfxKN9SfRVH8KjadOoqmhHsYgP816IRdl52D1mmuw4rIrIfbBXVsUAIbgqwAwUNWJ4/j6y/X4buNX6Ooce4n1fCTR0c5AkIec3DxMzMlFTl4eTVpEyBhis9thMpthMplhMJlHPP9+j1LJDPD1J9HYP9DXn/JkkAo68YlJWLb6Miy/7EpkTcz26b4oAAzBHwGgn91uR8mB/dj07df48fvvoFIq/LLfQBMnjUdOHhMIJubkIjMrC+MzMpGSmkZ3IhAS4CxWK0xmC4wmM0xm87BX7NtsNnS1y9HW2oK2081oaqh3DfR9vT1+rDpwxMTF4eJlK7Fk5WpMLSwCh8v1y34pAAzBnwFgIJvNhgN7d+OHb77Glp9+RI9K6fcaAg0vLAxp48YjPSMT6RkZGJ+RifTMTKRnZGJcegZEIhHbJRISUhwAzGYLTGYzjM5P+Wcf0jcZjWhrOQ15awvkrachb2lBW2sL5C2n0dkuD4guq2yLiY3DgiXLsHjFKhTOmAku1/8fdCgADIGtADCQzWbDkZJD2Lr5R2z96Uc0NzWyWk+gSkxKYkKB82t8RiYyMjMxPjMTsbFxbJdHSNCz2e2DB3yzBQ6HA329PZC3MAM8M7ifGeyVim62yw5IKWnjMH/xUiy4ZCmmFk7z2yf986EAMIRACABnO1VXh+1bfsL2LT+j7HAJJegREEskGJ+egeSUFMhkKUhOSUWyTDbo+4iICLbLJCRg2Gw2mCxW9Pb1oq2lFfK2VnS0y9Hd2QlFVye6uzrR3dkBeWtrSJ2XdxeXy8OUwkLMXXgJ5l68GOmZWWyXNAgFgCEEYgAYqKdHhd3Fxdi5fSv27NxBadsDYonEFQZkKSlITklBcrLszPeyFETHxLBdJiFe09vTg452OVpbWyFvbUVbWyva5W3obG9HV2cHujs7aXD3QJw0HjPnLcCs+Qswc858n1y97y0UAIYQ6AFgIIfDgbqaauzdtRN7dhaj5MD+oJ+BMNCIRCIkyVIgS0lBUnIypPEJiJPGQyqVIi4+HtL4BOa5NB5iiYTtckkIUvf1QaVUQKlUQqVUQKVQQKFQQKVUQNHdjY72dnS0t6GzowMmY3DPgBdoIiIiMHvefEybNRdTi2Yg46IJbJc0YhQAhhBMAeBsFrMZ5UdKsX/vbhzYuwflR0rH5ORDgSqcz3eFgThpPKTx0mEDA3VkJGdzOBznDOjK7u4zg7tSAUW3wvVcqVTCOsLb7Ijnwvl8TJs+A/MWLMK8hYtQWDQd4Xw+ulW90AXZhy8KAEMI5gBwNqPRiCOHD6HkwH4cPngA5aWHYaRPAAEjLDwc0dExEEskEIvFzkcJopzPo8RiSCQSREX1fy9h1pFIIHYui4yKolkXA4TdbodOq4VWo4FGo4ZGo4FGrYZGrYZWox60TNv/qGUe1c5lfX29NKAHEJFIhKIZszBjzhzMnDMX02fOhlAoPGc9CgCeCfPWhsgZQqEQ8xdejPkLLwYAWC0WHDtagZID+3D44AFUlJWF7NwDgcBqsUCp6PboOg4Oh4PIqCgmLDjDQ5RYAqFQCKFICKFQBKFQCIHzSygUQSAQQChilgtdywe/dva6AoEgaIOGw+GAyWSC0WBgHo0GmIzGQd8bjUYYDUaYTEbn82HWNTDrnD2o63W6oOwGSs6Ik8ajcPp0zJozF7PmzsfU/AKEhYezXdaYR0cAWNLachrHystwtLwcxyrKcPxoBXRaLdtlkQDE5wvA43HB5fHA4/HA4/Kcz7ngcp3LXcuY5RwO1/ncuZzLdT3ncrmu9QHAbrPBZrfBbrczz2022AY+t9ngcNhhs9lhs9nOrG9j3mOz2V3LXK/b7DCbTSz/lyOBKEosxtSCQqbBWWEh8qcVIc3Nznp0BMAzdASAJWnjxiNt3HhceuVVAJjDmA2nTuFYRRmOlpfhWHk5qk4cpz+ihP4NkKAlEAgwacpU5E8rcrU4z5owIWiPao01FAACBJfLxYTsbEzIzsY1198IgDlUXVNd5QwETDA4VVdL8xEQQgIOLywM2Tm5zGBfOI3pVJqbR4fyAxgFgAAWFh6OKfkFmJJfgFtuvxMAYDAYUHnsKKqrKlFXXYW62hrU1VSjtyc05/MmhPhfbGwcsvOY5mLZeZOQO2kyJk/NH/JCPRK4KAAEGZFIhBmz52DG7MH9qbs6O1FXU4Xa6mrU1VSjrqYGdbXV0Ot0LFVKCAl2kVFRyM7JRXbeJGawd7YYT0hMZLs04gUUAMaIxKQkJCYlYcHFi13LHA4H2lpbUFddjdqaatTVVKGupgan6urovDIhxEUgEGBCdg7TMjwvDxNzmMfUtHFsl0Z8iALAGMbhcFwXGy5ZsdK13GazobmxAbU11Wg4dQqnmxrR3NSI5sYGdHZ00C1VhIxBHA4HSTIZMjKzXE28siZMQE5uHsZnZFIL8BBEASAE8Xg8ZE2YiKwJE895zWQy4XRT05lQ4AwGzU1NaG05TZOlEBLAwvl8pI0bz3TnPKtj57j0dAgEArZLJAGEAgAZRCAQYGJODibm5Jzzms1mQ7u8Dc1NjTjd2IjmpiZnOGCCAl1vQIjvRUZFuQb29MwspGdkMIN9ZiZkKangstzulgQPCgBkxHg8nuuUQv8shwP1qJSQt7WhQy5He7scHfI2tMvl6GiXM41R5G3Q6/UsVE5IcIiIjESyrL91doqzW2bqme9TUxEbG8d2mWSMoABAvCY2TorYOCkmT80/7zrqvj50tMuZYCBvcwaFwd9r1Go/Vk2If0iio5nB/exB3dkCO1mWQo2qiF9RACB+JYmOhiQ6Gtm5eeddR6/TOY8ctEHRrUCPSgmlUgGVUgmVQgGl0rlMoURfbw/sdrsffwJCGFwuF9ExsZDGS52dJ+MRK5UiTiqFtL8zZUK8c6BPRUREBNslEzIIBQAScCIiI3HRxIm4aOK5FymezW63o7dHBaVCOWxQ6G/jqlKpqFUzGVI4n4+4uLhBbaVj45yDeXz8oIE9ThqHmNg4Ot9OghoFABLUuFyu6w/2SBkMhjOtYtXqIVrIOtvKqs9qI6vpcz2naxkCS0REhKuVs1gc7WrtLHEtk5x5vb8NtGsZ8ygSidj+MQjxKwoAJOSIRCKIRCIkJiW5vQ2b1QqNRuPqK6/VaGAw6F3tbftb3ZpcbWwNrta4RqOz9a3zNVN/W9wBLW/72+MG+9GKcD7/TPtjwdmtkkWDvmdaKYsGrStwvda/rhAiUcSAgZwZ1OkedkJGjwIAIW7ghYUhJjYWMbGxPt2P3W6H2Wwe1KrX3t921+44pw2vqz2vfUArX7sdNvuAVr42G+wOZnsAmBbBnDPtgnnO9sEc7oCWwtyz2g8PaEHM5XIGrHOm5TCfz6dD5IQEMAoAhAQwLpdLDVYIIT5B8ZwQQggJQRQACCGEkBBEAYAQQggJQRQACCGEkBBEAYAQQggJQRQACCGEkBBEAYAQQggJQRQACCGEkBBEAYAQQggJQRQACCGEkBBEAYAQQggJQdQLgBBCCACgs6MDR0oOorOjA91dneju6kJXZycU3V0QCARITEpGQmIiEhKTkJCYiPEZGZgxey4EAgHbpRM3UAAghJAQZbfbcayiDMVbt6B4y8+oPH5s1NsQiUSYt+hiLFm2AouXrYAsNdUHlRJfoABACCEhpkelxOv/fgUbv1gPpaLbo20ZDAZs/3kztv+8GQCQO2kyfrPut7jquuupHXSAo98OIYSECJ1Wi3+99DcsnFGIt1971ePBfyg1VZX4/W/vxeqL52Pr5h+9vn3iPRQACCFkjDObTXj3jdewcEYhXnnpr9BptT7fZ11tDe667RZce+kKHNq/z+f7I6NHAYAQQsYweWsrrl61HM89/SR6VEq/77+s9DBuvOpyPP/s07DZbH7fPzk/CgCEEDJGHT54AFcsX4yqE8fZLgVvv/Yf/OqWG6Du62O7FOJEAYAQQsagTz94DzdfuwYqpYLtUlx2FW/HVauWof7kSbZLIaAAQAghY4rD4cDTjz2CJ//vYVgtFrbLOUdj/SlcvXoZ9uwsZruUkEcBgBBCxpCX//oXfPTeu2yXMSyNWo177liL6soTbJcS0igAEELIGPHDNxvx6j//wXYZI6LX6/GbtTcH1CmKUEMBgBBCxoATx47i/x64j+0yRqWttQV337EWFrOZ7VJCEgUAQggJct1dXfjNbTfDaDSyXcqolR46iKce/z+2ywhJFAAIISTIPXzfPeiQy9kuw23rP/4Q3274iu0yQg4FAEIICWL79+zG3l072C7DYy//9S8BedfCWEbNgAghJIj9/fk/e32b46UCXJofh6KMKKTECCCL4cNgtkHea0aLyoSdNX3YXtkDvdnutX2ebm7C+k8/xi233+m1bZLhUQAghJAgtf3nzSg/Uuq17a0pkuKPV47HtPSoYdf73YpUGC12fFumxDMbm3Gqy+CV/b/68ku47sabIRAIvLI9Mjw6BUAIIUHI4XDg7y8855VtTUmLxP6nCrHh/kkXHPz7CcO5uGF2Ak68MB3/uvUiCMM9H0462tvx4btve7wdMjIUAAghJAgVb/kZNVWVHm9nTZEUe/9YgFlZYrfeH8bl4L6lKdj5RD5SYvge1/Pmq/+mpkF+QgGAEEKC0M8//uDxNn65KBlf/XYSogQ8j7c1I1OMPY9NQZqHIUCp6MaRkkMe10MujAIAIYQEGYfDgR3btnq0jQXZ0fjvbRPA4XinJovRghiHDZ/cmoEIvmdDy/YtP3unKDIsugjQT0wmEzb/8D2+/PRj1NefhEAghEAgQEZmFgqKpqOgqAgFhUWIErt3GI4QEjqOlh+BorvL7fcniMPxxX15COd5Z/S3GC3Q9xgABzBFJsIrV4/DXeub3d7e9i0/4Yln/uSV2sj5UQDwgyOHS/CbtTejR6U857W6mmps+WkTAIDD4SBrwgQUFs1AQdF0FE4rQt7kKQgLD/d3yYSQAObpJ+Q/XDEeiRLv/F0ZOPj3uzY/Bu8cUKDktM6tbdafPInmpkakZ2R6pUYyNAoAPla8dQvu+9XtI5qi0+FwoP7kSdSfPIkN6z8DAPD5AkyaMhWF06ejYNp0FBYVISPrIl+XTQgJYMUeBIDMBCHuXizzSh1DDf79nlklw2VvnXJ728Vbfsadd93jQXXkQigA+FB3VxfuvfM2mM0mt7dhNptQUVaKirIz9/pGx8Qgv7AIhdOnI79gGnInT0Zq2jhwvHUyjxAS0E7V1bn93jsXJoMf5vnfiuEGfwCYkx6JnEQharvc609w6qT7PyMZGQoAPvThu295NPifT19vL/bsLMaencWuZZFRUcjOyUXOpMnIyc1DTt4k5E6ahNg4qdf3TwhhT19vr0d/V66cFudxDRca/PutyJG4HQC6Ojvceh8ZOQoAPmI2m/Dx+//z2/50Wi3Kj5SeMytYfEIicvImISfPGQryJmFCTi4iIiL8VhshxHu6u9y/+C8tVoApaZEe7X+kgz8ALJkoxn/2uFevJz8nGRkKAD6i7Fagt6eH7TKg6O6CorsL+3bvdC3jcDgYn56BnLxJyM7LY0JBdg7GZ2RCJBKxWC0h5EK6uzrdfm9WotCjfY9m8AeAjDj35wTw5OckI0MBwEdMpsDty+1wONDc1IjmpkbXHQgAEwwSk5IwPiMTGZlZSM/MQnpGhvMxE5LoaBarJoQAnn0ylnkwSc9oB38ASBK7f6cBHQHwPQoAPmKxWNkuYdQcDgc6OzrQ2dGBwwcPnPN6bGwcEwYyz4SC9MwsZGRmQhqfwELFhIQetbrP7ffGRrj3J9+dwR8ABGEcCMO5MFpG3zXQYjbDaDRCKPTsqAU5PwoAPpI1YQKSkpPR2TF2LmTp6VGhp0c16I6EfpFRUUwgyMhE2vh0yFJSkJySwjzKUpGQmAgez/PpRgkJdXFx7l/E16WxjPo97g7+AKAz290a/AFAJBLR4O9jFAB8hMfj4arrbsCbr/6L7VL8QqfVourEcVSdOD7k67ywMCQmJUEmS0FySqozGDgDQkoqUlJSkZiUBF4Y/ZMkZDgJiUluv1feax7V+p4M/gDQoR594Ojnyc9JRob+2vrQzbffgU8/fA8atZrtUlhns1rR3taG9rY2AIeHXIfL5SIhMZEJCLIzRxASk5IRJ5UiThoPqTQecfHx1C+chKzEJPcHxrp2PWx2B3jcC88D4OngD8DtWwABz35OMjIUAHxofHoG3v34c9x2/TUjmgkw1Nntdtc1CEdxZNh1I6OimDAgjUdcvBTx8QnMc6kU0nhmuTT+TGCgQ4lkpOx2OzRqNdTqPuaxrw8GgwEJiYlITUtjfW4NTz4Zq3RW7D+pxsKc4S/o9cbgDwBb6zRuv5eOAPgeBQAfmzlnLt784GM8+cjDaG05zXY5Y4ZOq4VOq8Xp5qYRrR8REcGEgoQESKVSSKKjIRZLIJb0fzHfR4nFkPQvc74eGRUFLpcaZwYLs9kEdV8f1H195wzkZz9XO5/3r6fu64Nep4PDcf6RLzklBY888Udcc/2NrMy+GREZiYiICOj1erfe/125ctgA4K3B3+EAttS6f/QzITHRswLIBVEA8INFi5diZ0kZfvr+W3z4v3dQUXYEFvPozsURz+j1euj1p90KYRwOB5FRUWdCgVh8TnAQSySIioqCUCiEwPklFIogEAggdF7MJBAIIRQJzzwXCqnR0wjUnzyJE8eOoq+v95zB+pwBvq/PJ7NvDtQhl+OR+9fhg3fewrufrGdloJpSUIiSA/vdeu97ezrxhyvGIzby3D//3hr8AWDj8V6PrgGYUlDoeRFkWBQA/ITH4+Hyq67B5VddA7PZhKoTx1Fx5AiOlh9B+ZEjaG5sYLtEch4OhwNajQZajQbtaPPqtnk8HgQCAQRCEYSiM8FAKBRBIBS4wgKPxwOXxwOXy2Gec3muZTweD1wOx/W8/3Uulwsej8ssH7D+wG30f4KNjIrC5Kn5yM2bFBChpEelxPPPPo1dxdsC9n7w40crsO6Xt+HTjd8hnO/+/fXuWLZyldsBoFdvxYs/tuCFXwzutOfNwd9ic+CFre1uv5/L5WLJ8hWeF0KG5e3jV8kA3Pqtxyck4nBlrZfLCR49PSocLStDRVkpjpYdwdGyMvT0qNgui4QYPl+A5asvxZ9e+BtrczuUHNiP393za3S0uz+A+NPtv74Lzz7/N7/us+HUSSydN8vt94v4XBx8uhCTU5lpgb05+APAP3Z04vlt7t8CPW36DGz8aesF1+tW9UJnMLi9HzZcvnA2dFq3r42IBdDrrVooAASw5sYGlDuPElQcOYKqE8d9fniTEACIjZPixVf+g2WrVvt1v8ePVuDqVctgs9n8ul9PREREoKKu0e9HARbPmYGmhnq335+ZIMSBpwsRHQavDv6bqvpw+6dNGOYyigt65A9P4b4HH77gehQAPEMBIIhYzGZUnTiOoxXlqK2uQm1VJepqa+g2Q+ITAoEAP2zfjQnZ2X7Zn91ux9Wrl+NYeZlf9udNH2/4BvMXXuzXff7lmT/indf/69E25l4kxie3pCNa4J1JuvY1anHjh43Qm92b/Kff5l37kJM36YLrUQDwDF0DEETC+XwUFE1HQdH0Qcvb29pQU12Fupoq1FRVoa6mGqfq6uhoAfGIyWTCIw+sw4ZNP/tlFsdvvvoiKAd/gDlt4e8AcNmaqzwOAAfqNVj+2kl8tjYTF8V7NrfGh4eVePT7Nlhsnh1KmJCdPaLBn3iOAsAYIEtNhSw1FYuXLXcts9lsaGpoYEJBdRXqqqtRU12F002NsNs9S+ckdBwtO4Jdxdv9ckFW2eESn+/DV6KixH7fZ2HRDCxethw7tl34XPlw6hUmLH/9JB5bmow7Z0vB543uwHBLrxl/2dKBL496p/vpQ48+4ZXtkAujADBG8Xg8XDRxIi6aOBGrr1jjWm40GnGqrpY5hVBdjaaGejQ3NeJ0UyNNVkSGVFFW6pcAUH/qpM/34SupaWms7Pf3T/wRO7dvG3begpHoM9rwh01teH1fN+5flIArJsUgUTz88HBMbsDn5Sq8X6KEyeqdCwgmTZk66O8V8S0KACFGKBRiSn4BpuQXDFre3wnwdFMjmhob0NzYgOamJudjI11nEMIqjgw/K6O3tMvlftmPL0zMyWNlv5On5mP1FWvw43ffeGV7Lb1mPPpdGx77vg3T0yJQmBoBmSQcSeIwGCwOdGgsaOuzYHe9BvI+9+/xP59H/vAUK5MrhSoKAAQAM9lNskyGZJkMs+bOO+f1HpUSTY2NaG5sRHNjA5oaG5xhoREqpYKFiom/+Otakin5BUE5H8Zla67GxJwc1vb/8GN/wM+bvvfqnRMOB1Daokdpi3uzDbpj+sxZg05jEt+jAEBGJDZOitg4KaZNn3HOa1qNBs1NjWhrbWEa/sjl6Ghvg7ytDR1yOTo62mnmwyCWXzjNL/uZPW8+Nn37tV/25S3hfD4e/ePTrNZw0cSJuGnt7fj4/f+xWocneDwennj2z2yXEXIoABCPRYnFmDw1H5On5g/5usPhgFLRjXa5HO1yJhQwz1uZsCCXo6O9ne5aCFBTC/wTAJatWIW//flZ6LRav+zPU9ExMXjl9bcxPj2D7VLw1HPPo/L4MZQfKWW7FLc8+afnMH2m+xMbEffQPAAkIDgcDqiUCldIaJfL0dXRDoVCAaWiGyqFAkqFAkqlAlqN+x3GyOikZ2bhp517IRKJ/LK/Des/wyP3r/PLvjxRWDQDr7zxFtIzMi+8sp90dXZizYrFQTODYr/rb74Vf3vlP269l+YB8AwdASABgcPhQBqfAGl8wjkXKJ7NbDZBpVBCoeiGSukMBs4vlVLBLFcooVR0Q6lUQK/T+emnGFs4HA5efOU/fhv8AeDaG25CeelhfPLBe37b59k4HA4iIiMhiY6GRBLNPEZHIyYmFjNmzcbFS5ZBlprKWn3nk5iUhDff/xjXX3kpTKbgOJpWNGMmnnvxH2yXEbLoCAAZ84xGo/MIQjdUKhU0zu5xGo0aGo0GGrUa2v5HrcbZYe7MslA8NcHnC/D408/izrvuYWX/2zb/hD8++jA6O0Y/nzyXy0VkVNSgwXvgc7FEcv7XnJ0d/THxka9889UXeGjd3WyXcUHJKSn4bssOj7op0hEAz9ARADLmCYVCpKSlIcXNe7UtZvO5YUGjdj1Xq9XQabUwGg0wGo0wGgwwGY2DvjcajTCZTMwyA/OayWgMyDnvC4qm48V/vYrsnFzWali2ajXmLVyE8iOHUXXiOGqrq8HlcgcN2GKJ5JwBXCKJRpRYHNK3kl113fUwGgx4+olHA/bi26wJE/HOR5+y0kqZnEFHAAhhkdVicYYDozMsDAgORgNMBiMsVgvsNhtsNhusVhvsduZ5/zKb3X7muc3qfHQuG7SufcDrzDIA4IWFQSwWY9LUfOQXTkNq2jiW/6sQbygtOYR777wNiu7Aaqe8ZPkKvPL62xBLJB5vi44AeIaOABDCorDwcESFhyNK7P+pZMnYNmPWbHy/dQfuuuNWHK8oZ7scAMB9Dz6Mhx9/Elwul+1SCAD6LRBCyBiVnJKCL7//CdfdeDOrdURGReG/77yHR/7wFA3+AYR+E4QQMoYJBAK89O//YsOPWzB73ny/7pvPF+CXd9+LPaUVuPTKq/y6b3JhFAAIISQEFM2Yic+/+QEfrP/qgrfaeorH4+EXN92CHQdL8dSfn0dsnNSn+yPuoWsACCEkhCxavBQLL1mCzT98h6/Wf4b9u3d5rRNoskyGxctX4pd33YsJ2dle2SbxHQoAhBASYjgcDlZfsQarr1gDo9GIA3v3oHjLZhRv2wJ5a+uIt8PlcjFt+gwsXr4SS5avQN7kKT6smnibt28DjIabtyiE8/k4erLJr7OOEUIIGay9rQ2dne3o7upCd2cnuro6oejqgkAoRGJSEhISk5CQmIiExCSkpo3zyu187upW9UBn8M7RC3/Q67S4YtFc2O1uz/8hBOC1mcm8fQSgD4DjatBPAAAPi0lEQVQZAH+0b7SYzSg9dAALL1ni5ZIIIYSMlCw1NSCnOh6KzW5nu4RRqSg97Mngr4EXB3/ANxcBut0cfvuWn71ZByGEkDHMZguuAHBg905P3t7trTr6+SIAtLn7xo/f/x+Olh3xZi2EEELGILvdAavNynYZI3aiogybvtngySbcHlvPxxcBYLe7b7RZrXhw3d3Q6/XerIcQQsgYYzAZ4XCwXcXIGPR6vPDUE3B4dspir7fq6eeLALDNkzc3NdTjmcf/D45g+c0SQgjxO50+OC7+czgc+Ndfn4O8tcXTTe3wRj0D+aLnZTuARzzZdtWJ42hrbcHSFato2khCCCGDGEwm9KrdbqjjNzabDX975kls+eFbTzdlBnAfAIvnVZ3hiwBgAZADIN+TjVSdOI6qyuNYeenlCAuj6QoIIYQwn6i7lD2wB/gdACajEU8/8jvs2uaVi9s/BfCFNzY0kK+aZs8EUOKNDc2aOw/vfPQZq/eaEkIICQy9Gm3Af/rXqNV44oF7UXnUa10YiwB4vaWjr46vHwZwwBsbKjmwH1evXoaKslJvbI4QQkiQslit6NNo2S5jWMfLy7Bu7Q3eHPx3wgeDP+CbUwD96gHcDi8cZehRqfDlp59Ap9Vi5px5dEqAEEJCjMPhQHdPL6xWtyfS8SmjwYDX//kS/vnC/4O6160JcYfiAHArAI+vIByKLwNAE4A0MIcuPOZwOFB2uASbvv0Gk6dMRWraOG9slhBCSICzOxzoUqpgNJnZLmVI5SWH8Nhv78Lh/Xvh5XsT33B++YSvrgHoFwOgCoDMmxvlcDhY+8tf47GnnkVERIQ3N00IISSA2O12dCpVMJm9egG8V+h1Orzxykv4YcOXvrh1XQ4gD4Da2xvu5+sAAABLAPwIQODtDScmJeHeBx7CTbfdAYHA65snhBDCIpvdjk6FCmZLYA3+JpMR333xOT59/x30qlQ+2QWA1fDBvf8D+SMAAMBVAL6Cj045JCUnY93vHsaNa28Dn09BgBBCgp3NZkOHQgWLNXCm+zWbTfj+qy/w6f/ehkrpdtubC7ECuA6Ax5MHXIi/AgAArAXwgS/3mSyTYd2Dv8eNt6xFOH/UDQkJIYQEAKPJBEVPH6y2wLjgz2I244eNX+KT/70NZXeXL3dlB3AbgE98uZN+/gwAAPBbAP/x9U5kqam478Hf4/qbbqEgQAghQcLhcEDVp4ZGFxj9YKwWCzZ9swGfvPsmujs7/bHLe+HDi/7O5u8AAABPAnjOHztKlslw/S1rccPNa5GSluaPXRJCCHGD0WyGIkBu8+vqaMemrzdg09df+foT/0CPAXjRXzsD2AkAAPASmH4BfsHlcnHJ0mW4ae0dWLx8BXg8X979SAghZKQcDgd61BqotTpW67DbbTiwexe+3/AFSvbv9bRz32j9BcAf/blDgL0AAADPAHgKvp2L4Bx0VIAQQgKD0WyGsqeP1Qv9Otvl2PT1V/jxm43+/LTfzwrgaQAv+HvHALsBAADmA/gYQIa/d0xHBQghhB1miwU9ag0MRhMr+7fZbNi/awd+2PAFDh/c7+9P+/3qAdwC4BAbOwfYDwAAEA3gdQA3sVVAskyGNddej1WXX46CadPB4QTCfxZCCBlbLFYretQa6A1Gv+/b4XCg6lgFdm/fhu0//QClotvvNQzwAZiL4lltbBBII91aAP8FIGaziGSZDCtWX4YVl12OOXPng0d9BwghxCNWqw29Gg20eoOf92tFRWkJ9mzfin07i9ke9AGgF8A9ANazXQgQWAEAALLA3P84h+1CACAmNhZLV6zCqsuuwMLFS2i2QUIIGQWrzYY+jRZanR5enyj3PEwmI0r27cXe4m3Yv3sHtJqAaR28B0xjn9NsF9Iv0AIAAISBuSjiD/DzBYLDiYiIwMVLl2PVZVdgyfIViBKzeqCCEEICltFkhkanh95o9MUc+efQajQ4sHsn9uzYhpJ9e2Ay+v8UwzCsAP4E4HkwE/0EjEAMAP2mgLk14kq2CzlbOJ+P+QsXYcXqyzD/4kswPt3v1zASQkhAsdvt0OoN0Oj0frmqv63lNI4cOoA9xdtQcfgQrAE0ZfAAG8Dc7VbNdiFDCeQA0G8OmFskLmG7kPNJTRuHuQsWYt7CRZg7fyGSU1LYLokQQvzCZLZAo9NDZzD49NN+V0c7yg8fQlnJIVSUHkJXR4fP9uUF2wA8AaCU7UKGEwwBoN8KMIdQprNdyIVkZF3EBIIFCzF3wUJI4xPYLokQQrzG4XC4Pu37qlOfSqlA+eFDKC85hPLDhyBvbfHJfrzsEJjT18VsFzISwRQAAKbeawH8GUAuy7WMWHZOLuYuXIS5CxZizrwFiI6JYbskQggZFYeDadKjMxigNxhh9/KnfXVfLypKS1B+uATlJQfR3Njg1e37WCWYmfy+YbuQ0Qi2ANCPB+B2MLMJjme5llHhcrmYNGUq5i5YiLkLFmH6zFmQREezXRYhhJzDAeegrzdCbzTC7sUJczRqNU5UlDkP6x9Ew8k6v1ww6GVNYMahjxFgF/iNRLAGgH4CAL8GsA7AJJZrcQuHw0F6ZhYKpk1DfmER8qcVYfLUfIhEIrZLI4SEKKPJ7Pqkb/PCoG80GFBXXYXayuOorapETeVxtLUEzN1w7jgOZt6a9wCYWa7FbcEeAAZaAOBuANcBELJci0d4PB4m5uSiYFoR8gunIX9aEXLzJiEsPJzt0gghY5S3Bn2rxYL6k7WoqTyB2srjqKk8geaGBtjt7Hf585ABwBcA3gRwgOVavGIsBYB+cWBOD9yFILpO4EL4fAEmTZmK/GnTmFBQWISLJk4El8tluzRCSBCy2e0wGE0wmEwwGk1uDfoOux3NjQ2ocQ70tZXHcaquFlYfXRjIkiowg/6HYGbyGzPGYgAY6GIwRwWuBcBnuRavi4yKwpT8AuTkTUJObh6yc/MwMSeXLjIkhJzD4XDAZLbAYDLBYDSN+up9TV8fGutPobH+JJrqT6HhZC3qqqtgNPh3el8/MQL4CszAv5flWnxmrAeAfvEA7gBzVGAiy7X4XFJyMrJzJyE7NxfZuXnIzs3FxOxcREZFsV0aIcSPLFYrjCYzDEYjjCbziK7c1+u0aGqoR+MpZqDvfwyAefT9oQbAW2Ca9ahYrsXnQiUA9OMAWAymBeOVYIJBSOBwOEhJTUNOXh4m5uQ5H3MxITsHQmFQXzJBCHGy2e0wmczMp3yTCVbr+c+7m4xGNDcOHugb60+hq6PdjxUHhC4A34G5kn8Xy7X4VagFgIF4ABYCuNr5NY7dctjB5XIxLj0DE3NykJl1EcZnZCIjMxPjMzKRmjYOPF7AtGMghJyl/xO+yWyGyWw5Zwpem82GrnY52lpOM1+tLWg73Yym+lNol7fB4cXb+oJMM4CvAWwEsA9BeAufN4RyADjbDDBB4BqMoYsHPREWHo7UtHHIyMxEekYm0jOzXI/j0tOpOyIhfuRwOGC2WGA0W2ByDvo2ux1mswntra2uQV7e2sI8tpxGh7wNNlvQX33vLZVgBv2vAZSxXEtAoAAwtFycCQMzWK4lIHE4HCSnpAwKBv1HDsanZ0AskbBdIiFBzW63w2S2wGg2Q6lUoqmx0TnIN0Pe0uJ6rujqCsYJdPzBAaAEZwb9OnbLCTwUAC5sHM6cJliIAGpRHMgio6KQLJMhOTkFySkpSJbJkCRLgUyWgiSZDLKUFEjjE8Dh0D9BErrsdjuUCgXk8jbm8HxLK9rlbejoaEdnezsUXV1QdHdCr9OxXWqwsII5j/81mGl529gtJ7DRX9/RkQJYAuZCwsWgUwUeCQsPR2JSkjMUMCEhWZaCZFkKZClMUEhKTgafT6caSPAxm03oaGcG8na5HJ0dcnS0t0Pe1oaOdua5oqszUNvYBpMqADucX8UAetgtJ3hQAPCMDEwQ6A8FWeyWM/ZwOBzExMRCmhCPOGk8pNJ4xEmlkCYkuJ7HSeMRn5CAOKkUsXFSunCR+ITNaoVKpYJKqYBSwXyplAoolQqoFAqolEooFN2u13t7aBzykVM4M9jvBBDQfYEDGQUA70rHmaMDSwCksVtO6OFwOIiOiYE0fkBgiI+HNL4/PMQjLl6KmJhYiCUSiMViiMUSmmY5xFjMZmi1GqjVamg1GvT29kDZPWBAVyqh7O52PVcpFejr7aVz7ew4DWaw7/+UHxR9gYMBBQDfmoDBpwyS2C2HnI9QKESUWAKxRIIosRgSMfPY/z0TFpyBQSIZct3IqCi6psHHHA4HdFotNGo1NFoNNM4BXKPuYx41amg0zHLXawOW9a9rMpnY/lHI+bVj8CH9oOoLHEzor5V/TQITBOYAmAkgG/Q7GDM4HA74fD6EIhGEQiGEQhEE/7+9u3mNGgjjOP7dGTG71FewIlrU0l7E3qT//1Wo3jxYqdS3ShFBq4ckq5n18CRtdra7W3VLdpPfBx6STIZloO0+T5pJJklIyuMk6dMfWLsdJ6d9q3NJf7JvkiR473He473Du2rf45zDOWuv2rzz9JyzfV+d96ef4Vzv9DMAQlFQhIIQRrZfRggFRREoioJRCBShbC+sPYSCEMJZW9m/+ow8z8mylCzNyPOMLMvIo+MsTct+2WTfNLVtre9wONRVeLsEYB/YA55jSf91oyPqECWfZt3AHjPcrcXDRkckInJ53mHJvoqXwM9GR9RhKgCWz13GC4JdYL3REYmI/L0vjCf7PaATCwqsChUAq+Ex4wXBM+B6oyMSETnzA3jBeLL/0OiIZC4VAKupB2wCO8DTcruDvZegdcsei8jSyLF79K+ieI+9eU9WiAqAdrmCLXccFwbb6A2GInJxv7Hn7eNEfwBocYGWUAHQDQnwhMnC4BH6HRDpshE2MS9O9PvY1b60mL78u+0a9ijiVhnbtf0HgGtuaCKyIAH4BLwt46C2/wbQQgMdpQJApkmweQZxYbBVtmuugcjyyIFDzk/yh8CwuaHJslIBIP/CYa85jouDTWz1xHX0uyWySCPssbqPnJ/oj7ArfZEL05e0XIar2C2EjVrEx/fQxEQRsEl1x9i/6afFEfCrqQFKO6kAkKZ4bDXFjRlxH9AqPbLKhsBnZif3YzSzXhqgAkCWWQ+4DdzBbivUY1rboJGRSlek2NvsvpbbOOL27+j5eFlSKgCkbdaYXyjcAm5iazFUW92O6JYCe3vdSW37jckEHh9rxry0hgoAEbOGFQP1wiAuEuadH6C/qcs2wq7Cq6R9MmV/3nklcuk8fVmJLE4Pe3xyMCX6M87N6ptgT174KBbRBnY1HMptPf63LceSdRVZdDwrpvXNLvajEJF5/gCqnnxHIvQ3lwAAAABJRU5ErkJggg==;" vertex="1" parent="PDZQ3TdTwW282XvhMDcU-1">
                    <mxGeometry x="90" y="70" width="40" height="40" as="geometry"/>
                </mxCell>
                <mxCell id="PDZQ3TdTwW282XvhMDcU-10" value="Component" style="rounded=0;whiteSpace=wrap;html=1;" vertex="1" parent="PDZQ3TdTwW282XvhMDcU-1">
                    <mxGeometry x="-620" y="690" width="120" height="60" as="geometry"/>
                </mxCell>
                <mxCell id="PDZQ3TdTwW282XvhMDcU-11" value="Component" style="rounded=0;whiteSpace=wrap;html=1;" vertex="1" parent="PDZQ3TdTwW282XvhMDcU-1">
                    <mxGeometry x="-470" y="690" width="120" height="60" as="geometry"/>
                </mxCell>
                <mxCell id="PDZQ3TdTwW282XvhMDcU-12" value="Component" style="rounded=0;whiteSpace=wrap;html=1;" vertex="1" parent="PDZQ3TdTwW282XvhMDcU-1">
                    <mxGeometry x="-310" y="690" width="120" height="60" as="geometry"/>
                </mxCell>
                <mxCell id="PDZQ3TdTwW282XvhMDcU-13" value="Layout" style="rounded=0;whiteSpace=wrap;html=1;" vertex="1" parent="PDZQ3TdTwW282XvhMDcU-1">
                    <mxGeometry x="-470" y="530" width="120" height="60" as="geometry"/>
                </mxCell>
                <mxCell id="PDZQ3TdTwW282XvhMDcU-14" value="data" style="ellipse;whiteSpace=wrap;html=1;fillColor=#60a917;fontColor=#ffffff;strokeColor=#2D7600;" vertex="1" parent="PDZQ3TdTwW282XvhMDcU-1">
                    <mxGeometry x="-435" y="630" width="50" height="30" as="geometry"/>
                </mxCell>
                <mxCell id="PDZQ3TdTwW282XvhMDcU-18" value="data" style="ellipse;whiteSpace=wrap;html=1;fillColor=#60a917;fontColor=#ffffff;strokeColor=#2D7600;" vertex="1" parent="PDZQ3TdTwW282XvhMDcU-1">
                    <mxGeometry x="-590" y="630" width="50" height="30" as="geometry"/>
                </mxCell>
                <mxCell id="PDZQ3TdTwW282XvhMDcU-19" value="data" style="ellipse;whiteSpace=wrap;html=1;fillColor=#60a917;fontColor=#ffffff;strokeColor=#2D7600;" vertex="1" parent="PDZQ3TdTwW282XvhMDcU-1">
                    <mxGeometry x="-275" y="630" width="50" height="30" as="geometry"/>
                </mxCell>
                <mxCell id="PDZQ3TdTwW282XvhMDcU-22" value="data" style="ellipse;whiteSpace=wrap;html=1;fillColor=#60a917;fontColor=#ffffff;strokeColor=#2D7600;" vertex="1" parent="PDZQ3TdTwW282XvhMDcU-1">
                    <mxGeometry x="-435" y="470" width="50" height="30" as="geometry"/>
                </mxCell>
                <mxCell id="PDZQ3TdTwW282XvhMDcU-25" value="RESPONSE" style="edgeStyle=none;html=1;exitX=0;exitY=0.25;exitDx=0;exitDy=0;entryX=1;entryY=0.25;entryDx=0;entryDy=0;strokeColor=#24F016;" edge="1" parent="PDZQ3TdTwW282XvhMDcU-1" source="PDZQ3TdTwW282XvhMDcU-23" target="PDZQ3TdTwW282XvhMDcU-2">
                    <mxGeometry relative="1" as="geometry"/>
                </mxCell>
                <mxCell id="PDZQ3TdTwW282XvhMDcU-23" value="Service" style="rounded=0;whiteSpace=wrap;html=1;" vertex="1" parent="PDZQ3TdTwW282XvhMDcU-1">
                    <mxGeometry x="50" y="360" width="120" height="60" as="geometry"/>
                </mxCell>
                <mxCell id="PDZQ3TdTwW282XvhMDcU-26" value="place&lt;br&gt;holder&lt;br&gt;data" style="ellipse;whiteSpace=wrap;html=1;fillColor=#60a917;fontColor=#ffffff;strokeColor=#2D7600;" vertex="1" parent="PDZQ3TdTwW282XvhMDcU-1">
                    <mxGeometry x="-447.5" y="220" width="75" height="60" as="geometry"/>
                </mxCell>
                <mxCell id="PDZQ3TdTwW282XvhMDcU-31" style="edgeStyle=none;html=1;entryX=0.25;entryY=0;entryDx=0;entryDy=0;strokeColor=#F7F2F7;exitX=0.75;exitY=0;exitDx=0;exitDy=0;fillColor=#f5f5f5;gradientColor=#b3b3b3;" edge="1" parent="PDZQ3TdTwW282XvhMDcU-1" source="PDZQ3TdTwW282XvhMDcU-27" target="PDZQ3TdTwW282XvhMDcU-23">
                    <mxGeometry relative="1" as="geometry">
                        <Array as="points">
                            <mxPoint x="-1020" y="320"/>
                            <mxPoint x="80" y="320"/>
                        </Array>
                    </mxGeometry>
                </mxCell>
                <mxCell id="PDZQ3TdTwW282XvhMDcU-32" style="edgeStyle=none;html=1;entryX=0;entryY=0.25;entryDx=0;entryDy=0;strokeColor=#F7F2F7;exitX=1;exitY=0.25;exitDx=0;exitDy=0;" edge="1" parent="PDZQ3TdTwW282XvhMDcU-1" source="PDZQ3TdTwW282XvhMDcU-27" target="PDZQ3TdTwW282XvhMDcU-2">
                    <mxGeometry relative="1" as="geometry"/>
                </mxCell>
                <mxCell id="PDZQ3TdTwW282XvhMDcU-27" value="Modal" style="rounded=0;whiteSpace=wrap;html=1;" vertex="1" parent="PDZQ3TdTwW282XvhMDcU-1">
                    <mxGeometry x="-1110" y="359" width="120" height="60" as="geometry"/>
                </mxCell>
            </root>
        </mxGraphModel>
    </diagram>
</mxfile>